<svg id="SvgjsSvg1001" width="360" height="360" xmlns="http://www.w3.org/2000/svg" version="1.1" xmlns:xlink="http://www.w3.org/1999/xlink" xmlns:svgjs="http://svgjs.com/svgjs"><defs id="SvgjsDefs1002"></defs><g id="SvgjsG1008"><svg xmlns="http://www.w3.org/2000/svg" id="Layer_1" x="0" y="0" enable-background="new 0 0 450 450" version="1.1" viewBox="0 0 450 450" xml:space="preserve" width="360" height="360"><g id="Login" fill="#000000" class="color000 svgShape"><path fill="#edf3ff" d="M383.7801819,258.6600037c-17.5314026,32.6906738-49.3564148,59.8977661-86.3642578,62.4826965
					c-39.8189697,2.7858887-79.3241272-22.5259399-118.063797-12.9007263
					c-23.7934875,5.910675-44.8511658,24.6469727-69.2595596,22.362915
					c-20.1039886-1.894928-37.3090286-20.2418518-37.89888-40.4337769l-4.9569931-28.2610474
					c-6.5632553-39.3292847,8.5963135-80.466217,35.1882782-110.1828613s63.5621338-48.7789536,102.0759125-59.1195602
					c38.1247711-10.2404175,79.4998474-12.2606812,116.5328064,1.3676834
					c37.0454712,13.6286697,68.8705444,44.7007294,76.8769226,83.3526154
					C403.6080627,204.823349,397.0572815,233.9125214,383.7801819,258.6600037z" opacity=".5" class="coloredf3ff svgShape"></path><path fill="#edf3ff" d="M77.4841919 234.3360443c-.4950485-3.5809174.289917-9.6034546 3.2583694-15.7773438 12.238327-25.732605 45.0300598-29.4637299 67.9413376-39.9667969 28.2674103-13.1147156 35.6850891-36.4004517 48.3070068-64.9316483 3.707901-8.3361816 7.7050781-16.6650391 12.8941956-24.3818359 14.1806488-21.2254791 31.3251495-24.8702545 32.5184784-25.652832.1013031-.0285645 5.4148865-1.526947 5.080368-1.4326172.1007385-.0198517 5.5083008-1.0855103 5.1672974-1.0183105l3.4769897-.4248047c53.353363-6.2641144 143.4793396 47.5054092 147.7676697 120.1787186.0436707 1.0026855.0705261 1.8374023.0808716 2.5053711.0206909 1.3356934-.0246887 2.0036621-.1347046 2.0117188-.1100464.0078125-.2812195-.6445313-.5126343-1.9526367-.1156616-.6538086-.2463989-1.4719238-.3919678-2.4533691C385.6702271 86.9071274 286.4712219 66.8472824 286.3704224 66.7940445c-18.309967-4.2585869-32.4614716-1.6437149-33.0878296-1.6335449-1.3301392.7196503-23.2835388 1.2912598-40.0537262 26.3771973-4.9651794 7.380127-8.8794708 15.5029297-12.5484619 23.7575684-13.2701874 29.9848099-20.8195496 53.3775864-50.4555206 66.6860428-22.7846146 10.0963135-71.3428421 16.5209808-72.0907745 52.342041C78.0434418 236.9703827 77.8181839 236.9969788 77.4841919 234.3360443zM382.2797241 271.203949c.1862183.0898438-.4790649 1.9919434-2.1012878 5.6782227-1.6286926 3.682373-4.1894836 9.1677246-8.1355591 16.2431641-1.9777832 3.5334473-4.3001099 7.4680176-7.1419373 11.6879883-2.8346863 4.2214355-6.1593018 8.7524414-10.1829224 13.3925781-24.0866394 27.5299072-53.2790833 35.1435852-75.9576721 29.6376953-32.7834625-8.1644592-58.4612427-45.7392273-92.5229797-35.5490723-13.4686127 4.0734863-44.2243195 27.6997681-76.1504211 2.1591797-18.622757-14.9503784-20.321167-38.3350525-17.8889084-31.1350098 3.6591568 11.6185913 9.8966904 21.4880371 19.6679916 28.8439941 30.8077087 23.1029053 58.2096405.8322754 73.2097931-3.7329102 36.3467865-10.9125061 62.7832336 27.5515137 94.6456451 35.4943848 20.811554 5.0466919 48.6471863-1.8848877 72.4967651-27.9375 4.0157471-4.4238281 7.3861084-8.7670898 10.2976074-12.8242188 2.9186096-4.0549316 5.3500366-7.8491211 7.4549255-11.2556152 4.2012939-6.8217773 7.0881958-12.1062012 9.0707397-15.5944824C381.0184021 272.8189392 382.0687256 271.1016541 382.2797241 271.203949z" class="coloredf3ff svgShape"></path><path fill="#d5e1fa" d="M280.9342957 227.4564514c-.2001953.0703125-.4637451-.1181641-.7147217-.6015625l-.4260254-1.2998047c-.0836182-.5375977.0170898-.8457031.2250977-.9091797.2078857-.0634766.4682617.1323242.72229.6079102l.4204102 1.2827148C281.2382507 227.0707092 281.1443787 227.3827209 280.9342957 227.4564514zM283.1170349 232.9501038c-.1936035.0869141-.4715576-.0791016-.7618408-.5405273l-.5321045-1.2607422c-.1278076-.5292969-.0527344-.8442383.1494141-.9243164s.4777832.09375.7701416.546875l.5244141 1.2426758C283.3877869 232.5399475 283.3201599 232.8587952 283.1170349 232.9501038zM285.7802429 238.2269592c-.1845703.1049805-.4764404-.034668-.8077393-.4677734l-.645752-1.2080078c-.1759033-.515625-.1297607-.8359375.0644531-.9335938s.4849854.0507813.8172607.4746094l.6352539 1.1884766C286.0118103 237.7928772 285.9738464 238.1170959 285.7802429 238.2269592zM288.955658 243.2123108c-.1724854.1235352-.4768066.0151367-.8510742-.3823242l-.7668457-1.1367188c-.2281494-.4951172-.2148438-.8178711-.03125-.9345703.1834717-.1166992.4881592.0019531.8619385.3886719l.7530518 1.1162109C289.1408386 242.7552795 289.1365662 243.082428 288.955658 243.2123108zM292.6673279 247.8085022c-.1564941.1435547-.4708252.0712891-.8884277-.2802734l-.8929443-1.0410156c-.2835693-.4658203-.3071289-.7875977-.1376953-.9238281.1693115-.1367188.4857178-.0537109.901123.2871094l.8747559 1.0195313C292.7980652 247.3329163 292.8316345 247.6585999 292.6673279 247.8085022zM296.9211121 251.9046936c-.1364746.1621094-.4572754.1308594-.9169922-.1650391l-1.0201416-.9194336c-.3413086-.4262695-.4055176-.7421875-.2545166-.8989258.151123-.15625.4759521-.1142578.9312744.1708984l.9974365.8989258C296.9889832 251.4149475 297.0643005 251.7337952 296.9211121 251.9046936zM301.7096863 255.3656311c-.1108398.1806641-.432373.1967773-.9306641-.0302734l-1.144165-.7631836c-.4000244-.3730469-.5087891-.6762695-.3812256-.8520508s.4555664-.1811523.9471436.034668l1.1158447.7446289C301.7049255 254.8710022 301.8260193 255.1756897 301.7096863 255.3656311zM306.9600525 258.0760803c-.0825195.1953125-.3980713.2587891-.9245605.1088867l-1.2453613-.5849609c-.4511719-.309082-.6037598-.5922852-.5037842-.7856445.1000977-.1928711.4237061-.246582.9417725-.1064453l1.2141113.5698242C306.8814392 257.5873108 307.0467224 257.8705139 306.9600525 258.0760803zM312.5625916 259.9520569c-.0507813.2060547-.3522949.3178711-.8959961.2509766l-1.3218994-.3852539c-.4938965-.2358398-.6882324-.4921875-.6187744-.6982422s.3812256-.309082.9144287-.2509766l1.2866211.375C312.4084167 259.4813538 312.6158142 259.7362366 312.5625916 259.9520569zM318.3977966 260.8876038c-.0147705.2114258-.2929688.3720703-.8411865.3969727l-1.3704834-.1601563c-.5272217-.1499023-.7612305-.3701172-.7263184-.5849609.0349121-.2143555.3258057-.3681641.861084-.3999023l1.3304443.1552734C318.1654968 260.4486389 318.4132996 260.6654358 318.3977966 260.8876038zM324.2980652 260.7616272c.0252686.2104492-.2178955.4194336-.7524414.5444336l-1.3774414.0947266c-.5462646-.0512695-.8157959-.2246094-.8198242-.4418945s.2541504-.421875.7734375-.5512695l1.333252-.0917969C323.9877625 260.3729553 324.2715759 260.5404358 324.2980652 260.7616272zM330.0591736 259.4774475c.0681152.2006836-.1263428.4580078-.6236572.6967773l-1.3286133.387207c-.5510254.0405273-.8518066-.0849609-.8983154-.2973633-.0466309-.2124023.168457-.4550781.65625-.6665039l1.2810059-.3745117C329.676239 259.1639709 329.9876404 259.26651 330.0591736 259.4774475zM335.4236755 257.0238342c.107666.1831055-.0311279.4711914-.4707031.7998047l-1.2241211.6381836c-.5206299.1713867-.8365479.1201172-.9266357-.0776367s.0648193-.4887695.4881592-.8149414l1.1829834-.6162109C334.9836121 256.7923889 335.3106384 256.832428 335.4236755 257.0238342zM340.2008972 253.5516663c.1409912.1586914.0606689.4692383-.3066406.8774414l-1.076416.8652344c-.477417.2705078-.7978516.2822266-.925293.105957-.1275635-.1757813-.0324707-.4912109.3198242-.8945313l1.0422363-.8374023C339.7245789 253.410553 340.052948 253.3856506 340.2008972 253.5516663zM344.2344666 249.2289124c.168457.1289063.1480713.4492188-.135376.9199219l-.8936768 1.0541992c-.4176025.355957-.7302246.4282227-.888916.2797852s-.125-.4765625.1448975-.9394531l.8656006-1.0205078C343.7398376 249.1805725 344.0577087 249.0936584 344.2344666 249.2289124zM347.368988 244.219635c.1901855.09375.2319336.4116211.0440674.9277344l-.6749268 1.2050781c-.3415527.4291992-.6341553.5595703-.8182373.4438477s-.2138672-.4438477-.0379639-.9492188l.652832-1.1655273C346.874115 244.2669983 347.1694031 244.1210022 347.368988 244.219635zM349.4433289 238.6961975c.2054443.0527344.3104248.3549805.2303467.8979492l-.418335 1.3168945c-.2481689.4892578-.5083008.675293-.7116699.5981445-.2032471-.0766602-.2984619-.3925781-.2282715-.921875l.4038086-1.2709961C348.967865 238.8431702 349.2278748 238.6400452 349.4433289 238.6961975zM350.3017273 232.8529358c.2120361.0073242.3795166.2797852.4180908.828125l-.1256104 1.3779297c-.137085.5317383-.3511963.7695313-.5661621.7373047-.2149658-.0317383-.3758545-.3203125-.4211426-.8525391l.1210938-1.328125C349.868866 233.0995178 350.0791931 232.8451233 350.3017273 232.8529358zM349.88974 226.9623108c.2087402-.0375977.4302979.1928711.5844727.7207031l.1696777 1.3725586c-.0211182.5488281-.1798096.8266602-.3967285.8413086s-.4351807-.2324219-.5925293-.7436523l-.1636963-1.3237305C349.5190125 227.2948303 349.6706238 227.0018616 349.88974 226.9623108zM348.2292175 221.2962952c.1954346-.0825195.4613037.0947266.725708.5771484l.4616699 1.3051758c.0977783.5410156.0024414.8461914-.2062988.90625-.2088623.0605469-.4754639-.1342773-.7390137-.5986328l-.4445801-1.2568359C347.9393005 221.7020569 348.0240173 221.3827209 348.2292175 221.2962952zM345.3190613 216.1566467c.1699219-.1269531.4692383-.0175781.8395996.390625l.755127 1.1635742c.2218018.5039063.1999512.8217773.010376.9282227s-.494751-.0214844-.8590088-.4106445l-.7242432-1.1157227C345.1333923 216.6210022 345.1405945 216.2899475 345.3190613 216.1566467zM341.2051697 211.9256897c.1258545-.1645508.4638672-.1611328.9331055.1333008l1.0211182.9453125c.3409424.4355469.3991699.7509766.2426758.9018555-.1563721.1508789-.4827881.1025391-.9300537-.184082l-.9744873-.902832C341.1663513 212.403717 341.0658875 212.1058655 341.2051697 211.9256897zM336.0673523 209.0326233c.0762939-.1977539.3874512-.2626953.918335-.1103516l1.2579346.5932617c.454834.3125.602417.59375.4954834.7832031-.1069336.1889648-.4351807.2402344-.9488525.1015625l-1.199707-.565918C336.1563416 209.5262756 335.9872742 209.2406311 336.0673523 209.0326233zM330.3294373 207.6595764c.0203857-.2114258.3027344-.3579102.8547363-.3544922l1.3701172.2314453c.5219727.1777344.7406006.4086914.6894531.6201172s-.3529053.3491211-.8852539.3544922l-1.3092041-.2211914C330.5475769 208.11026 330.3078308 207.8807678 330.3294373 207.6595764zM324.4372253 207.8959045c-.0393066-.2070313.1875-.4501953.7180176-.6171875.4593506-.0668945.9207764-.1181641 1.3833008-.1538086.5531006.0463867.8278809.2329102.8355713.4487305.0080566.21875-.2468262.4101563-.758667.5424805-.4407959.0336914-.880249.0825195-1.3173828.1459961C324.7695007 208.2460022 324.4789734 208.1161194 324.4372253 207.8959045zM318.8916931 209.8690491c-.1029053-.1835938.0352783-.4873047.4892578-.8125.4172363-.2070313.8425293-.3979492 1.2741699-.5717773.543457-.1230469.8618164-.0258789.9329834.1782227.0723877.206543-.1142578.4638672-.5606689.7436523-.4085693.1645508-.8105469.3447266-1.2047119.5405273C319.3172302 210.0951233 319.0011902 210.0643616 318.8916931 209.8690491zM314.3285828 213.5853577c-.1601563-.1367188-.1359863-.4692383.1781006-.9316406.3203125-.3388672.654541-.6650391 1.001709-.9765625.4699707-.3022461.8034668-.3173828.9389648-.1494141.1376953.1699219.0487061.4746094-.2745361.8886719-.3270264.2939453-.6419678.6010742-.9438477.9204102C314.8061218 213.6498108 314.499115 213.7308655 314.3285828 213.5853577zM311.3556824 218.6620178c-.1983643-.0698242-.2956543-.3896484-.1652832-.9350586.1799316-.4316406.3789063-.8549805.5955811-1.2685547.3352051-.4477539.6425781-.578125.8280029-.4682617.1884766.1118164.2109375.4282227.0528564.9287109-.2036133.3891602-.3903809.7866211-.55896 1.190918C311.8240662 218.551178 311.5673523 218.7367249 311.3556824 218.6620178zM310.5823669 224.4784241c-.2064209.0200195-.432251-.2294922-.5393066-.7841797-.0131836-.4702148-.0015869-.940918.0339355-1.409668.1318359-.5473633.3670654-.7866211.5799561-.7563477.2175293.0302734.3587646.3129883.4112549.8320313-.032959.4345703-.0437012.8706055-.0313721 1.3056641C310.960907 224.1810608 310.8085632 224.4569397 310.5823669 224.4784241zM312.3543396 230.0780334c-.1834717.1025391-.4875488-.0351563-.8115234-.4921875-.2061768-.4194336-.3939209-.8486328-.5612793-1.2861328-.114502-.5488281-.0065918-.8662109.1988525-.9306641.2089844-.0664063.4592285.1274414.7293701.5751953.1563721.4086914.3320313.8105469.5255127 1.2041016C312.5802917 229.6522522 312.5501404 229.9681702 312.3543396 230.0780334zM316.0426941 234.6688538c-.1408691.1567383-.4716797.1235352-.9262695-.1977539-.331665-.3251953-.6518555-.6625977-.9594727-1.0112305-.2966309-.4711914-.3112793-.8037109-.1428223-.9389648.1706543-.1367188.4755859-.046875.8881836.28125.291626.3305664.5955811.6508789.9106445.9599609C316.1195984 234.1922913 316.1924744 234.5023499 316.0426941 234.6688538zM320.9508972 237.938385c-.09021.1918945-.4105225.2441406-.9401855.0732422-.4208984-.1967773-.8060303-.4599609-1.2067871-.6943359-.4237061-.3588867-.5461426-.6572266-.4250488-.8378906.1210938-.1801758.4487305-.2001953.942627-.0107422.3818359.2226563.7467041.4746094 1.1486816.6616211C320.8918152 237.4496155 321.0455017 237.7367249 320.9508972 237.938385zM326.5737 239.7113342c-.0360107.2089844-.3284912.3349609-.87854.2924805l-1.3492432-.3276367c-.5076904-.2143555-.7095947-.4604492-.6437988-.6679688.0656738-.2070313.3762207-.3232422.907959-.2905273l1.2910156.3134766C326.3890076 239.2460022 326.6114197 239.4920959 326.5737 239.7113342zM332.4693298 239.9945374c.0164795.2114258-.236084.4067383-.7790527.5024414l-1.3875732.0195313c-.5447998-.0810547-.8026123-.269043-.791748-.4863281.0108643-.2167969.2819824-.4072266.8061523-.5078125l1.331543-.0185547C332.1758728 239.5902405 332.4521179 239.7723694 332.4693298 239.9945374zM338.2659607 238.8397522c.0671387.2011719-.1309814.4516602-.6350098.6757813l-1.3426514.3535156c-.548584.0532227-.8443604-.0668945-.8862305-.2802734s.1755371-.4633789.6600342-.6875l1.2883301-.3393555C337.8831482 238.5179749 338.1955261 238.6283264 338.2659607 238.8397522zM343.5852966 236.2938538c.1162109.1777344-.0114746.46875-.442627.8115234l-1.2097168.6782227c-.5170898.1884766-.8323975.1455078-.925415-.0507813-.0932617-.1962891.0545654-.4926758.4654541-.8305664l1.1572266-.6484375C343.1331482 236.07901 343.4632263 236.1078186 343.5852966 236.2938538zM348.0386658 232.4315491c.1591797.1401367.1174316.4594727-.1984863.9130859l-.9680176.9936523c-.4659424.3041992-.7896729.3383789-.9317627.1743164-.1422119-.1645508-.0706787-.4814453.2510986-.8989258l.927002-.953125C347.5496521 232.3495178 347.8715515 232.2845764 348.0386658 232.4315491z" class="colord5e1fa svgShape"></path><path fill="#d5e1fa" d="M351.4234314 227.5951233c.185791.1020508.2131348.4213867.0019531.9287109l-.729248 1.1738281c-.3607178.4135742-.6586914.5302734-.836792.4052734-.1781006-.1245117-.192749-.4541016.0056152-.9506836l.7043457-1.1337891C350.9267273 227.6200256 351.228363 227.4877014 351.4234314 227.5951233zM353.8262634 222.1976624c.2000732.0708008.2827148.3818359.1654053.9169922l-.5075684 1.2788086c-.2810059.4692383-.5543213.6386719-.7530518.550293-.1986084-.0883789-.2722168-.4082031-.1640625-.934082l.494751-1.246582C353.3435974 222.3060608 353.6163025 222.1239319 353.8262634 222.1976624zM355.4507751 216.5101624c.2070313.0463867.3286133.3461914.2813721.8901367l-.3374023 1.3295898c-.2177734.5-.4675293.7050781-.6766357.6455078s-.3236084-.3662109-.2835693-.902832l.3312988-1.3056641C354.986908 216.6756897 355.23349 216.4613342 355.4507751 216.5101624zM356.513031 210.6947327c.2098389.03125.3565674.3212891.3565674.8652344l-.2207031 1.3476563c-.173584.5151367-.4050293.7426758-.6190186.7036133-.2139893-.0385742-.3547363-.3320313-.3607178-.8720703l.2185059-1.3339844C356.0657654 210.8944397 356.2928162 210.6620178 356.513031 210.6947327zM357.299408 204.8304749c.2104492.0268555.3668213.3134766.3859863.855957l-.1733398 1.3500977c-.1552734.519043-.3790283.7568359-.5944824.7280273-.2155762-.0283203-.3666992-.3149414-.3912354-.8569336l.1729736-1.3476563C356.8599548 205.0414124 357.0784607 204.8026428 357.299408 204.8304749zM358.0950623 198.9671936c.2097168.0322266.3619385.3227539.3739014.8632813l-.190918 1.3417969c-.1622314.5151367-.3892822.7514648-.6048584.7226563-.2154541-.0288086-.362915-.315918-.3797607-.859375l.1921387-1.3500977C357.6534119 199.1673889 357.8749695 198.9335022 358.0950623 198.9671936zM359.1828308 193.157135c.2067871.0478516.34021.3491211.3189697.887207l-.2729492 1.3208008c-.1934814.5019531-.4353027.7250977-.6491699.6855469-.2137451-.0390625-.3433838-.3330078-.3260498-.8779297l.2768555-1.340332C358.7306824 193.3251038 358.9659119 193.1073303 359.1828308 193.157135zM360.8544617 187.4906311c.1988525.0737305.2963867.3896484.2141113.9204102l-.4207764 1.2753906c-.2493896.4746094-.5157471.6704102-.7244873.609375-.2086182-.0610352-.3043213-.3657227-.2241211-.9067383l.430542-1.3051758C360.3874207 187.6009827 360.6455994 187.4129944 360.8544617 187.4906311zM363.3293152 182.1278381c.18396.1054688.2305908.4345703.0681152.9443359l-.6105957 1.190918c-.3190918.4291992-.6131592.5830078-.8109131.4926758s-.2458496-.4052734-.0822754-.9287109l.6291504-1.2270508C362.8528748 182.1610413 363.1362 182.0169983 363.3293152 182.1278381zM366.7753601 177.3417053c.1564941.1430664.1340332.4760742-.1269531.9404297l-.8349609 1.034668c-.3979492.3525391-.7182617.4448242-.8952637.3183594-.177002-.1259766-.1616211-.4418945.105835-.9223633l.8685303-1.0766602C366.3058777 177.2728577 366.6110535 177.1913147 366.7753601 177.3417053zM370.2017517 174.2723694c.1236572.1723633.1204834.4179688-.0560303.6674805l-.5841064.456543c-.28479.1108398-.5238037.0541992-.6644287-.1118164-.140625-.1655273-.1435547-.3999023.0386963-.6606445l.6120605-.4780273C369.8453064 174.0316467 370.0718689 174.091217 370.2017517 174.2723694z" class="colord5e1fa svgShape"></path><g fill="#000000" class="color000 svgShape"><polygon fill="#d5e1fa" points="406.158 167.947 365.636 162.858 367.076 166.188" class="colord5e1fa svgShape"></polygon><polygon fill="#edf3ff" points="406.158 167.947 353.178 173.853 363.745 164.949" class="coloredf3ff svgShape"></polygon><polygon fill="#edf3ff" points="406.158 167.947 374.438 159.469 365.636 162.858" class="coloredf3ff svgShape"></polygon><polygon fill="#d5e1fa" points="364.091 172.627 366.737 177.746 406.156 167.948" class="colord5e1fa svgShape"></polygon><g fill="#000000" class="color000 svgShape"><polygon fill="#c7d6f2" points="364.091 172.627 365.177 174.727 406.156 167.948" class="colorc7d6f2 svgShape"></polygon></g></g><g fill="#000000" class="color000 svgShape"><ellipse cx="226.108" cy="373.841" fill="#edf3ff" rx="175" ry="15.906" class="coloredf3ff svgShape"></ellipse></g><g fill="#000000" class="color000 svgShape"><path fill="#e1ebff" d="M317.4015198,80.2872772v134.75c0,5.9599609-4.8300171,10.7802734-10.7800293,10.7802734H186.0814972
					c-5.960022,0-10.789978-4.8203125-10.789978-10.7802734v-134.75c0-5.9599609,4.8299561-10.7797852,10.789978-10.7797852
					h120.5399933C312.5715027,69.5074921,317.4015198,74.3273163,317.4015198,80.2872772z" class="colore1ebff svgShape"></path><path fill="#c7d6f2" d="M256.4873657,199.6242981c0,2.8098145-1.75,5.2199707-4.2199707,6.1699219v8.9399414
					c0,0.670166-0.2700195,1.2700195-0.7099609,1.6999512c-0.4300537,0.4301758-1.0300293,0.7001953-1.6900635,0.7001953
					c-1.3299561,0-2.4100342-1.0700684-2.4100342-2.4001465V205.79422
					c-2.4699707-0.9599609-4.2099609-3.3601074-4.2099609-6.1699219c0-3.6501465,2.9599609-6.6201172,6.6199951-6.6201172
					S256.4873657,195.9741516,256.4873657,199.6242981z" class="colorc7d6f2 svgShape"></path><path fill="#ffffff" d="M297.2382202 179.0880585c0 3.8817902-3.1225281 7.0898438-7.0888062 7.0898438h-87.602005c-3.8818054 0-7.0877838-3.2080536-7.0877838-7.0898438 0-3.9662628 3.2059784-7.0877686 7.0877838-7.0877686h87.602005C294.1156921 172.0002899 297.2382202 175.1217957 297.2382202 179.0880585zM195.4596252 155.460083c0-3.968338 3.2059784-7.0898438 7.0877838-7.0898438h87.602005c3.9662781 0 7.0888062 3.1215057 7.0888062 7.0898438 0 3.8817902-3.1225281 7.0877686-7.0888062 7.0877686h-87.602005C198.6656036 162.5478516 195.4596252 159.3418732 195.4596252 155.460083z" class="colorfff svgShape"></path><g fill="#000000" class="color000 svgShape"><path fill="#c7d6f2" d="M246.3485718,139.8392639c-15.2753906,0-27.7041016-12.4277344-27.7041016-27.7036133
								s12.4287109-27.7036133,27.7041016-27.7036133s27.7041016,12.4277344,27.7041016,27.7036133
								S261.6239624,139.8392639,246.3485718,139.8392639z M246.3485718,85.7142639
								c-14.5683594,0-26.4208984,11.8525391-26.4208984,26.4213867s11.8525391,26.4213867,26.4208984,26.4213867
								s26.4208984-11.8525391,26.4208984-26.4213867S260.9169312,85.7142639,246.3485718,85.7142639z" class="colorc7d6f2 svgShape"></path><circle cx="246.349" cy="112.136" r="23.619" fill="#ffffff" class="colorfff svgShape"></circle><path fill="#c7d6f2" d="M237.886734 102.8909988c0-4.6675415 3.7953949-8.4501038 8.4627686-8.4501038 4.6673889 0 8.4500275 3.7825623 8.4500275 8.4501038 0 4.680069-3.7826385 8.4626236-8.4500275 8.4626236C241.6821289 111.3536224 237.886734 107.5710678 237.886734 102.8909988zM260.9286194 120.0216064c-2.3464355 5.7572708-7.9883575 9.8090515-14.5791168 9.8090515-6.590744 0-12.2325745-4.0517807-14.5791016-9.8090515-1.0898743-2.6671677.897583-5.6035538 3.7826385-5.6035538h21.5802002C260.01828 114.4180527 262.0185852 117.3544388 260.9286194 120.0216064z" class="colorc7d6f2 svgShape"></path></g></g><g fill="#000000" class="color000 svgShape"><path fill="#ffc5c5" d="M163.7345428,185.5989838c2.1741028,1.5590668,4.297699,3.0841827,6.4719086,4.6601105
								c0.3791656-0.6235809,0.7414703-1.2134247,1.1038666-1.8032684c0.4382172-0.7163696,0.8679962-1.4243011,1.3061066-2.1320343
								c0.7163696-1.1461487,1.4074402-2.30896,2.1657715-3.4213715c0.3370972-0.4888306,0.6741943-0.9690094,0.9186096-1.5000153
								c0.1178894-0.2275391,0.2106781-0.4635162,0.2863922-0.716156c0.219101-0.7332458,0.6573181-1.3146515,1.3399506-1.7275696
								c1.5505219-0.9185944,3.1853943-1.6012268,4.9381561-2.0225677c0.3792725-0.0925903,0.733139-0.3032532,1.0702362-0.4970703
								c0.4634094-0.2612762,0.8763275-0.5900421,1.3482819-0.8342438c0.5982819-0.3034668,1.2218628-0.5898438,1.8538818-0.8173828
								c0.5225677-0.1938171,0.7163696-0.5816193,0.85112-1.0620117c0.0421753-0.1516266,0.1685944-0.3032532,0.3034668-0.3958282
								c0.2022247-0.1602783,0.4718475-0.2528534,0.6740875-0.4213562c0.3708344-0.3034515,0.9606781-0.5731659,0.834259-1.1377106
								c-0.1348724-0.5982819,0.1348572-0.8089447,0.5646362-1.0449219c0.530899-0.2950287,0.6573181-0.7754211,0.3622894-1.3146515
								c-0.1938019-0.3538666-0.4802856-0.6488953-0.6573181-0.9943237c-0.0925751-0.1853638-0.1431885-0.5645294-0.0420685-0.64888
								c1.1460419-0.9523468,2.3258362-1.8623199,3.4803162-2.7977905c0.1769257-0.1432037,0.40448-0.4466553,0.3454285-0.5814056
								c-0.067276-0.1938019-0.3791656-0.4213562-0.5814056-0.4129181c-0.5645447,0.0337372-1.1712494,0.0843506-1.685379,0.3032532
								c-0.8173981,0.337204-1.6094666,0.766983-2.3511505,1.2640381c-0.8005066,0.5310059-1.5588531,0.8848724-2.5701447,0.6741943
								c-0.6404419-0.1347504-0.8763275,0.1938019-0.8258209,0.8595581c0.0252075,0.2612915,0,0.4382172-0.3033447,0.5141296
								c-0.5141449,0.1432037-1.0280609,0.3116913-1.5421906,0.4801941
								c-0.8258209,0.2697144-1.6516418,0.5478668-2.4859009,0.8089447c-0.10112,0.0337372-0.2191162,0-0.3286591-0.0082245
								c-0.0420837-0.0421753-0.0758209-0.0927887-0.1095581-0.1434021c0.2359772-0.2779388,0.4382172-0.5982819,0.7163696-0.834259
								c0.7583313-0.6404419,1.5672913-1.2302856,2.3257294-1.8791809c0.7753143-0.6657562,1.2724762-1.483139,1.1207428-2.5618134
								c-0.1263275-0.8932953-0.7667694-1.1881104-1.483139-0.6235809
								c-0.5898438,0.4719543-1.1375122,1.0111847-1.6685181,1.5590668
								c-0.8005066,0.8258209-1.5757294,1.6685028-2.6122131,2.2161713
								c-0.4213562,0.219101-0.8764343,0.4213409-1.2304077,0.7332458
								c-0.9100647,0.7920685-1.8286743,1.6010284-2.6460571,2.4943237c-0.64888,0.6995087-1.2218628,1.4915771-1.7106934,2.3173981
								c-0.7078247,1.1799011-1.2134247,2.4521637-2.1235962,3.5223999
								c-0.2106628,0.2528381-0.4129028,0.5141296-0.5898285,0.7920685
								c-0.3960419,0.5816193-0.7415771,1.2052002-1.1039886,1.8034821
								c-1.348175,2.2330475-2.8397522,4.3650818-4.6768646,6.2276001
								C164.4423676,184.8490906,164.1053772,185.21138,163.7345428,185.5989838z" class="colorffc5c5 svgShape"></path><path fill="#fcafaf" d="M163.7345428,185.5989838c2.1741028,1.5590668,4.297699,3.0841827,6.4719086,4.6601105
								c0.3791656-0.6235809,0.7414703-1.2134247,1.1038666-1.8032684c0.4382172-0.7163696,0.8679962-1.4243011,1.3061066-2.1320343
								c0.7163696-1.1461487,1.4074402-2.30896,2.1657715-3.4213715c0.3370972-0.4888306,0.6741943-0.9690094,0.9186096-1.5000153
								c-0.1517181-0.0252991-0.2865906-0.0590363-0.4297791-0.0927887
								c-1.820343-0.4886169-3.3455658-1.8623047-4.1882477-3.5476837
								c-0.2106781-0.4213562-0.3791656-0.8509216-0.5140228-1.2977905
								c-0.3960419,0.5816193-0.7415771,1.2052002-1.1039886,1.8034821
								c-1.348175,2.2330475-2.8397522,4.3650818-4.6768646,6.2276001
								C164.4423676,184.8490906,164.1053772,185.21138,163.7345428,185.5989838z" class="colorfcafaf svgShape"></path><path fill="#1f2123" d="M118.3860168,366.8607483c-0.1653442,0.0716553-5.119957,7.8834229-1.3397446,9.7269897
												c3.7802124,1.8435974,25.9452133,3.8400574,28.3639145-2.0154724
												c0.402832-0.9876099-0.2335205-2.0697937-1.0553589-2.9614563
												c-1.0648041-1.1552429-2.4538422-1.9581909-3.961441-2.4003601
												c-4.6943054-1.3768311-19.1624527-4.9419861-21.8618469-2.648407L118.3860168,366.8607483z" class="color1f2123 svgShape"></path><path fill="#ffc5c5" d="M133.4825745,369.7200623c-1.2038879,1.9327087-13.6809387,2.506897-15.0885849,0.1703186
												c-0.4049911-0.6732178-0.5424194-1.7398987-0.5331116-2.9241638
												c0.0089798-2.9394836,0.3038788-6.5724182,0.3333664-6.6958923l9.733017,0.4079895l0.0236588,4.3318176
												l-0.0057526,0.9023132C127.9451675,365.9124451,134.6861267,367.7832642,133.4825745,369.7200623z" class="colorffc5c5 svgShape"></path><path fill="#fcafaf" d="M127.9272614,360.6783142l0.0236588,4.3318176
												c-0.4665909-0.0879822-0.943924-0.1147156-1.4172592-0.1417847
												c-1.7837753-0.0977783-3.5963516-0.1568909-5.3297195,0.2761536
												c-1.2406311,0.3137207-2.4478073,0.9181824-3.3430634,1.8217163
												c0.0089798-2.9394836,0.3038788-6.5724182,0.3333664-6.6958923L127.9272614,360.6783142z" class="colorfcafaf svgShape"></path><path fill="#1f2123" d="M81.2936401,367.6910095c-0.1653519,0.0716248-5.1199646,7.8833923-1.3397522,9.7269897
												c3.7802124,1.8435669,25.9452133,3.8400574,28.3639069-2.0155029
												c0.4028397-0.9875793-0.2335129-2.0697632-1.0553589-2.9614258
												c-1.0647888-1.1552429-2.4538269-1.9581909-3.9614258-2.4003601
												c-4.6943054-1.3768311-19.1624527-4.9419861-21.8618546-2.6484375L81.2936401,367.6910095z" class="color1f2123 svgShape"></path><path fill="#ffc5c5" d="M96.3901901,370.5503235c-1.2038956,1.9326782-13.6809311,2.5068665-15.0885773,0.1703186
												c-0.4049988-0.6732178-0.5424194-1.7399292-0.5331116-2.9241943
												c0.0089722-2.9394531,0.3038712-6.5724182,0.3333588-6.6958618l9.733017,0.4079895l0.0236588,4.3318176
												l-0.0057449,0.9022827C90.8527908,366.7426758,97.59375,368.6135254,96.3901901,370.5503235z" class="colorffc5c5 svgShape"></path><path fill="#fcafaf" d="M90.834877,361.5085754l0.0236588,4.3318176
												c-0.4665909-0.0880127-0.943924-0.1147156-1.4172516-0.1417847
												c-1.7837753-0.0978088-3.5963593-0.1568909-5.3297272,0.276123
												c-1.2406235,0.3137512-2.4478073,0.9182129-3.3430557,1.8217163
												c0.0089722-2.9394531,0.3038712-6.5724182,0.3333588-6.6958618L90.834877,361.5085754z" class="colorfcafaf svgShape"></path><g fill="#000000" class="color000 svgShape"><path fill="#061437" d="M92.7897873,130.4813995h-1.057251
												c-2.6251831,16.2509766-9.4238892,31.8032227-19.5307617,44.7937012H89.363884
												c1.6091919-0.8039551,3.1754761-1.6933594,4.68573-2.6711426
												c7.7598267-5.0229492,14.0537109-12.2822266,17.9259033-20.6757813L92.7897873,130.4813995z" class="color061437 svgShape"></path><path fill="#061437" d="M102.2643051,144.1939697c-0.0473251,5.7111206,1.0353088,11.6520386,4.4524689,16.233017
												c2.3615265,3.1668854,5.7651367,5.5284119,9.5340881,6.7193451
												c3.7757263,1.1773682,7.8898544,1.1841431,11.6925888,0.0946503
												c0.8526001-0.2436676,1.6916504-0.5413513,2.5104523-0.8661346
												c-0.9744263-2.4360352-1.7796021-4.9328766-2.4156189-7.4771118
												c1.536026,1.8946838,3.0855103,3.8096771,4.9801025,5.3457031
												c0.2639923,0.2164154,0.5345917,0.4262085,0.8188171,0.6292419
												c1.3803253-0.6495667,2.7539673-1.3059082,4.1682281-1.8675842
												c-6.7936707-5.9410706-10.72509-14.9677582-10.6641312-23.9807281h-5.2305527v-2.1788177L102.2643051,144.1939697z" class="color061437 svgShape"></path><path fill="#061437" d="M90.9098816,132.7130737c0.0077667-0.0333557,0.0149536-0.0670624,0.0227127-0.1006012
																					c0.7424088-2.2422485,1.5978165-4.8107834,2.6488113-7.2240143
																					c2.315773-5.3174515,9.520134-12.264595,21.27005-9.7773514
																					c11.75,2.4870834,12.4361572,14.5802078,12.693367,25.8156052
																					c0.0384979,1.6771088,0.2241821,3.206192,0.4926224,4.6216278H88.5409164
																					C90.0287857,141.7082062,90.4550018,137.3213348,90.9098816,132.7130737z" class="color061437 svgShape"></path><path fill="#ffc5c5" d="M99.3532562,139.2820587c0.0597229,0.7808685,0.0170975,10.8338318-0.7772598,22.5738678
																						l11.4420319,0.6955719l0.8389282-10.8995056c0,0,6.5864792,0.7569885,8.4034424-6.1321411
																						c1.8169632-6.8893585,1.968399-20.9709625,1.5140762-22.1822662
																						c-0.4542084-1.2113113-12.3401337-7.3434601-18.2452316-1.5898056
																						c-5.9052124,5.7538834-5.6024399,12.037468-5.8294907,13.3243942
																						C96.4808121,136.3126373,96.0624313,139.6515656,99.3532562,139.2820587z" class="colorffc5c5 svgShape"></path><path fill="#383838" d="M116.7612381 133.3779755c.0804214.0083008.1640015-.0140839.2317276-.0691223.1354523-.1100922.1559906-.3089905.0458984-.4444427-.0924606-.1139221-.1992264-.2155304-.3168564-.3019714-.5080032-.3735199-1.1785355-.4378052-1.7491989-.1685486-.1252289.0591888-.2430344.1335602-.3507156.2210846-.1351547.1102905-.1557007.3091736-.0452957.4446564.1095047.1350861.3089981.155838.4444809.0454407.0680771-.055481.1424255-.1025543.2216492-.1398163.3600235-.1700287.783905-.129364 1.1051025.1065369.0740967.0544891.1415863.1188507.2005081.1911621C116.6035843 133.3306732 116.6808243 133.3696747 116.7612381 133.3779755zM106.0570297 133.0333862c.0802307-.0069885.1581116-.0445862.2142639-.1111145.0572662-.0680084.1220016-.1284637.1921768-.1797943.3214493-.2353516.7451096-.2750244 1.1050415-.1039429.083374.0398102.1621017.0902557.2335968.1501617.1330261.1119995.3328552.0949097.4450836-.0390625.1119385-.1337891.0945969-.3329773-.03936-.4450531-.1122971-.0944519-.23629-.1739349-.3681183-.2366333-.5699234-.2706451-1.2399673-.2078247-1.7492828.1643677-.1109467.0810394-.2126236.1761627-.3024673.2826233-.1122818.1333618-.0955429.3327637.0381393.4451752C105.8929596 133.0165405 105.9761887 133.0404205 106.0570297 133.0333862zM110.7346344 141.2056427c.3324051.0343323.7010193.02742 1.0559006-.0717926.1175308-.0326996.2834396-.1193237.4063873-.3456421.6225433-1.1440887-.3884201-5.4242859-.4007874-5.4637146-.0516663-.1664886-.2300644-.2593536-.3954697-.2075806-.1663361.0516968-.2592926.2279053-.2082214.3941803.248642.8604279.8866882 4.6695251.4185333 5.0185394-.8067017.2239532-1.7829208-.1934204-1.7924118-.1976624-.1615753-.0694275-.3466034.0040588-.4158325.1638031-.0695724.1600189.0036545.3460999.1636658.4156647C109.5981598 140.9252625 110.1014404 141.1402588 110.7346344 141.2056427z" class="color383838 svgShape"></path><g fill="#000000" class="color000 svgShape"><path fill="#fcafaf" d="M113.363739,144.0156555
																									c-0.2885971,1.3515472-1.4368286,2.3079376-2.7107162,2.1763916
																									c-1.2738876-0.1315613-2.2024307-1.3024292-2.208725-2.6844482L113.363739,144.0156555z" class="colorfcafaf svgShape"></path></g><g fill="#000000" class="color000 svgShape"><path fill="#383838" d="M106.6595154,136.0728607c0.0246277,0.4291077,0.2783203,0.7687378,0.5685501,0.7520905
																							c0.2965012-0.0170288,0.5096664-0.3834534,0.4850311-0.8125763
																							c-0.0249863-0.4352722-0.2783203-0.7687378-0.5748215-0.7517242
																							C106.8480453,135.2773132,106.6345291,135.6375732,106.6595154,136.0728607z" class="color383838 svgShape"></path></g><g fill="#000000" class="color000 svgShape"><path fill="#383838" d="M115.3963547,136.5422516c-0.0441513,0.4275513,0.152092,0.803299,0.4412613,0.8331604
																							c0.2954178,0.0305176,0.5643158-0.2972107,0.6084747-0.724762
																							c0.0447845-0.4336853-0.1520996-0.803299-0.4475174-0.8338165
																							C115.7094116,135.786972,115.4411392,136.108551,115.3963547,136.5422516z" class="color383838 svgShape"></path></g><g fill="#000000" class="color000 svgShape"><path fill="#061437" d="M110.924614,128.9703827c-1.7809219,1.0161438-3.8123169,1.4841461-5.8031006,1.9750366
																					c-1.9907913,0.4909058-4.0145264,1.0353088-5.7191772,2.1747742s-3.0619354,2.9929504-3.0821838,5.0432739
																					c-1.0762177-3.2313995-0.3896561-6.8664703,1.253418-9.8498383s3.1526871-6.5799332,5.8329773-8.6814117
																					c1.9539337-1.5319824,5.1058197-1.7751541,7.5489655-2.2176666
																					c2.2238464-0.4027939,5.4155579,0.2099075,6.5579224,2.4068985
																					c-1.5931854,1.160408-1.4622726,2.59758-2.2217407,4.2948914
																					C114.38591,126.1406479,112.8460388,127.8619843,110.924614,128.9703827z" class="color061437 svgShape"></path></g><g fill="#000000" class="color000 svgShape"><path fill="#061437" d="M122.5391235,136.5648346c-0.2064514-2.1815338-1.1938858-4.2819824-2.7469254-5.8349609
																					c-0.9245911-0.9156647-2.055687-1.6695709-2.7019958-2.8096542
																					c-0.4039688-0.7092133-0.5924988-1.5262451-0.9246368-2.2801666
																					c-0.3321457-0.7539139-0.8797226-1.4810944-1.669693-1.705513l1.9565582-4.4044037
																					c1.3914642-0.0806503,4.2464447,2.1242371,5.3146896,3.0219269
																					c1.0592651,0.8976898,1.2747574,2.4327011,1.364502,3.8151703
																					C123.3290863,129.7782745,123.1316223,133.2077179,122.5391235,136.5648346z" class="color061437 svgShape"></path></g><g fill="#000000" class="color000 svgShape"><path fill="#fcafaf" d="M104.3566437,148.2704926c0,0,0.4300461,5.9748993,6.0080185,6.3015747l0.49617-2.9192657
																			C110.8608322,151.6528015,106.200798,151.5287323,104.3566437,148.2704926z" class="colorfcafaf svgShape"></path></g><g fill="#000000" class="color000 svgShape"><path fill="#2b2b2b" d="M79.5885468,292.6017151c-0.2639084,34.1847839,0,70.3658447,0,70.3658447
																s8.41082,2.7809753,11.8347473,0c3.4103851-2.774353,7.8830872-36.9726868,8.1469879-43.2790222
																c0.2638245-6.3132629,4.472702-47.0751648,4.472702-47.0751648s3.1532516,19.7245178,4.9937439,26.3016357
																c1.8472595,6.5770874,6.577095,60.2564392,8.681572,62.881958c2.1043167,2.6321106,10.6370468,0,10.6370468,0
																c8.5325623-12.883606,3.0381927-74.9805298,3.0381927-79.9811401
																c0-2.5914917-1.7729187-16.2262573-3.4036102-28.9677734
																c-1.1435165-8.9723206-2.2194595-17.5050659-2.5577927-21.4229431
																c-0.114975-1.2451019-0.1488419-2.0231934-0.0879669-2.2059021l-2.9095764,0.1083679l-39.4356613,1.4750671
																c-1.3262253,3.2547607-2.2871094,6.2184448-2.9705353,9.0739288
																C76.8277283,253.3286133,79.7983551,264.3986511,79.5885468,292.6017151z" class="color2b2b2b svgShape"></path><path fill="#1f2123" d="M79.9074173,240.3590851c3.6268768-0.8864594,7.5920792-0.5682831,11.3407974-0.0203247
																c12.8902893,1.9082336,25.3949127,6.3674622,36.6207352,12.991806
																c-1.1435165-8.9723206-2.2194595-17.5050659-2.557785-21.4229431
																c-0.9675751-0.7442169-1.969017-1.4411926-2.997551-2.0975342l-39.4356613,1.4750671
																C81.5517273,234.539917,80.5908432,237.5036011,79.9074173,240.3590851z" class="color1f2123 svgShape"></path><path fill="#1b409c" d="M78.0784836,165.6264648c0.9100723,5.5365295,2.9578552,20.5784454,3.7331161,27.1345978
																	c0.20224-0.3285522,0.30336-0.5054779,0.30336-0.5054779
																	c0.3202209,0.8173828,0.6067581,1.7021484,0.8426895,2.6459503
																	c0.1769791,0.6657562,0.3202286,1.3568268,0.4550323,2.0729828
																	c2.4438248,13.1544952-1.2977219,33.8846741-1.2977219,33.8846741
																	c2.8736038,4.1038971,46.96315,9.8931885,44.6626129,0
																	c-0.581459-2.5113068-0.8763809-5.5448608-0.9775009-8.6797485
																	c-0.3034058-9.1853638,0.9775009-21.5138245,0.9775009-21.5138245s0.0674286,0.0925751,0.1938019,0.2696075
																	c0.6404572,0.8763275,3.1769562,1.2976837,6.0252533,4.6937561l-0.3033447-30.1177673
																	c-0.5814667-1.137619-1.15448-2.1656799-1.6938171-3.0083618
																	c-3.3286438-5.1741333-10.2218475-7.8960114-14.7218399-9.1684875
																	c-1.8707504-0.5393219-3.3201523-0.8173828-3.9353485-0.9270325
																	c-0.2106781-0.0420837-0.3202286-0.0589447-0.3202286-0.0589447s-16.7863922-1.7105865-19.2639008-1.8286743
																	c-0.1853714-0.0084381-0.2865372-0.0084381-0.30336,0c-0.1685486,0.0843506-0.3455276,0.1432953-0.530899,0.1685944
																	c-0.3623505,0.0420685-0.7668762,0.1095581-1.1882172,0.20224
																	c-2.5112076,0.4971619-5.8904037,1.6179962-8.6122818,2.5954437
																	C80.6739349,164.0085602,79.3087845,164.7247314,78.0784836,165.6264648z" class="colorfe6b4d svgShape"></path><path fill="#1a3371" d="M126.9726028,201.2447815c-0.0322266,0-0.0644531-0.005127-0.0966797-0.015625
																	c-0.1630859-0.0537109-0.2509766-0.2287598-0.1972656-0.3913574
																	c1.8925705-5.7460938,0.7597656-10.5339355-3.6708984-15.5246582
																	c-0.1142578-0.1279297-0.1025391-0.3239746,0.0253906-0.4375
																	c0.1289063-0.1132813,0.3251953-0.1022949,0.4375,0.0258789
																	c4.5956955,5.175293,5.7665939,10.1499023,3.7958984,16.130127
																	C127.2235794,201.1620178,127.1024857,201.2447815,126.9726028,201.2447815z" class="colorf4573d svgShape"></path><g fill="#000000" class="color000 svgShape"><path fill="#1a3371" d="M82.1129684,230.8594055c2.8786469,4.1063385,46.967308,9.8918915,44.6644058,0
															c-0.5842133-2.5117493-0.8720856-5.5484467-0.9764709-8.6811371
															c-2.2718964,1.5861206-5.1448975,2.3622284-7.9445801,2.3452759
															c-3.9143829-0.0225983-7.7046661-1.4195862-11.1759415-3.2314301
															c-10.9756393-5.7319336-19.524147-15.9455261-23.2325058-27.7593536l-0.4882431,1.3688049
															c0.1721191,0.6660004,0.321701,1.360321,0.4543381,2.0771179
															C85.8552322,210.1330566,82.1129684,230.8594055,82.1129684,230.8594055z" class="colorf4573d svgShape"></path></g></g></g><g fill="#000000" class="color000 svgShape"><path fill="#1b409c" d="M131.4349213,203.9826813c0,0,12.487915,13.6180878,18.8577728,14.6147614
								c6.3749847,1.0016785,24.6112061-34.7259369,24.6112061-34.7259369l-6.7448273-5.244812l-19.7362518,22.6180725
								l-15.6163177-25.366394L131.4349213,203.9826813z" class="colorfe6b4d svgShape"></path></g><g fill="#000000" class="color000 svgShape"><path fill="#ffbd39" d="M69.9421692,236.4542694c4.9794769-4.7252045,12.2686615-5.5070648,18.0091476-2.4468231
									c0.9692001,0.5167084,2.1584244,0.364975,2.2158127,0.3109589l41.3952484-39.2875214
									c2.0383911-1.9347534,4.1062775-1.8525085,5.3027496-0.4994812c1.1386566,1.2898102,0.9970856,3.2675018-0.251297,4.4521332
									l-2.1308594,2.022049c-0.3813019,0.3618317-0.3970947,0.9641418-0.0352631,1.3454437l4.8040314,5.062561
									c0.6030121,0.6354523,0.5767212,1.6393738-0.0587463,2.2424011l-2.6463318,2.5112
									c-0.6354675,0.6030121-1.639389,0.5767059-2.2424164-0.0587616l-4.8040161-5.0625458
									c-0.3618317-0.3813019-0.9641418-0.3970795-1.3454437-0.0352631l-2.4652634,2.3398132
									c-0.3813019,0.3618317-0.3970871,0.9641418-0.0352554,1.3454437l2.6203766,2.7613983
									c0.6030121,0.6354523,0.5767212,1.639389-0.0587463,2.2424011l-2.6463394,2.5112
									c-0.6354599,0.6030121-1.639389,0.5767059-2.2424011-0.0587616l-2.6203766-2.7613831
									c-0.3618317-0.3813019-0.9641418-0.3970947-1.3454437-0.0352631l-24.0886688,22.8642731
									c-0.7927475,0.7522736-1.0131683,1.9279327-0.54879,2.9173431
									c2.8262863,6.0362091,1.5439835,13.4827881-3.7417831,18.1990662
									c-6.0267715,5.3778992-15.8204575,5.0349121-21.4617157-0.7463379
									c-6.0673714-6.2187347-5.8592262-16.1752777,0.4217834-22.1355438H69.9421692z M72.8347626,245.9546204
									c-1.1436768,1.0852814-1.1910324,2.8926544-0.1057587,4.0363312l5.2407608,5.5227814
									c1.0851669,1.1435547,2.8926544,1.19104,4.0363312,0.1057587c1.1436768-1.0852661,1.1910324-2.8926544,0.1057587-4.0363312
									l-5.2407608-5.5227814C75.7859268,244.9168243,73.9784393,244.8693542,72.8347626,245.9546204z" class="colorffbd39 svgShape"></path><path fill="#ffae1f" d="M70.2961121,259.3640442c-5.0020523-6.2453003-4.462677-15.376236,1.437645-20.9787598
									c4.9761353-4.7249756,12.2735596-5.5095825,18.0071411-2.4475861
									c0.9675369,0.5154724,2.161171,0.3658905,2.2203293,0.3097229l41.3909149-39.2874146
									c1.4713745-1.39711,2.9659882-1.7480316,4.130188-1.3067017c-0.1269226-0.3854675-0.3337555-0.7513428-0.6209717-1.0834656
									c-1.1983185-1.3508606-3.2658844-1.4403992-5.3065643,0.4972839l-41.390564,39.2877655
									c-0.059166,0.0561829-1.2462845,0.212616-2.2206802-0.3100739
									c-5.7339172-3.0623627-13.0310059-2.2773895-18.0071335,2.4475861
									c-6.27742,5.9605865-6.4846916,15.9151459-0.4217072,22.1375427
									C69.7679062,258.8817749,70.0207596,259.1332397,70.2961121,259.3640442z" class="colorffae1f svgShape"></path><path fill="#ffae1f" d="M102.7839508,225.1007996c-0.6219406-0.7542572-0.2446899-0.4689789-0.8768463-1.2028198
									c-0.1122055-0.1224823-0.2243423-0.2549133-0.3262787-0.3773804l-7.3514099,6.9739685l-4.0682297,3.8643646
									c-0.0611725,0.0512695-1.2439575,0.2041168-2.2125397-0.3156433
									c-5.7404022-3.0588379-13.0408401-2.2742157-18.0165405,2.4469604
									c-6.2705612,5.9648132-6.4846992,15.9159698-0.4180145,22.1356659
									c0.2549057,0.2549133,0.5098038,0.5098267,0.7851181,0.7338562
									c-5.0063095-6.2396393-4.465889-15.3752899,1.4376221-20.9731903
									c4.9757004-4.7311249,12.2659378-5.5057831,18.00634-2.4469604
									c0.9685822,0.5098114,2.1615677,0.3669128,2.2227402,0.3056793l4.6596222-4.424942l6.5356674-6.1993103
									C103.0388565,225.4477997,102.9165115,225.2541351,102.7839508,225.1007996z" class="colorffae1f svgShape"></path><g fill="#000000" class="color000 svgShape"><path fill="#ffae1f" d="M84.7738571 250.3439178c-.4562759-.4805298-.4369202-1.230072.0437088-1.6864471l3.3938217-3.2225189c.4805756-.4563293 1.2301636-.4369202 1.6864395.0436096.4566193.480896.4368744 1.2301331-.0437012 1.6864471l-3.3938217 3.2225342C85.9796753 250.8439026 85.2304764 250.8248138 84.7738571 250.3439178zM81.5094757 246.9060211c-.4562836-.4805298-.4369202-1.2300873.0437012-1.6864471l3.3938217-3.2225342c.4805756-.4563141 1.2301636-.4369049 1.6864471.0436249.4566193.480896.4368668 1.2301178-.0437088 1.6864471l-3.3938217 3.2225189C82.7152939 247.4059906 81.966095 247.3869019 81.5094757 246.9060211zM78.2450867 243.4681091c-.4562759-.4805298-.4369125-1.230072.0437088-1.6864319l3.3938217-3.2225342c.4805756-.4563141 1.2301636-.4369202 1.6864395.0436096.4566269.480896.4368744 1.2301331-.0437012 1.6864471l-3.3938217 3.2225342C79.4509125 243.9680939 78.7017059 243.9490051 78.2450867 243.4681091z" class="colorffae1f svgShape"></path></g></g><g fill="#000000" class="color000 svgShape"><path fill="#ffc5c5" d="M107.7596512,229.9648438c-0.1835175,0.0199127-0.3874512,0.0303802-0.5200119,0.132431
							c-0.77491,0.5506287-1.6110001,0.9479218-2.5897827,0.7746735c-0.4690399-0.0711975-0.6933899,0.1125031-0.8667068,0.4794312
							c-0.1529007,0.3768768-0.4384232,0.5197601-0.825882,0.5302124c-0.3160706,0.009964-0.6423569-0.0104523-0.9584351,0.0408325
							c-0.428215,0.0711823-0.9787827,0.06073-1.2336884,0.3260956c-0.7443542,0.7134247-1.7639618,0.723877-2.508255,0.3977814
							c-0.5607758-0.2449493-1.0909958-0.5202637-1.6313553-0.825943c-0.3262787-0.1732483-0.652565-0.3569641-0.9788437-0.5302124
							c-0.4690475-0.2549133-0.9482346-0.5202637-1.4172745-0.795578c-0.3772507-0.2140808-0.7647095-0.4381104-1.1419601-0.6626434
							c-0.8564987-0.5098114-1.7536926-0.968338-2.5286102-1.5802002c-0.7647018-0.6019135-0.4078674-0.3260956-1.1216049-1.0096436
							c-0.8156738-0.2549133-3.3442841-1.0604401-6.7396011-2.2428436c1.5905838-2.712326,3.2525558-5.3733673,5.0164566-7.9632111
							l3.4462891,1.6513824c0.0509644,0.0104523,0.0917892,0.0308685,0.1427536,0.0408325
							c0.6933289,0.2245331,1.3764496,0.2548981,2.0901871,0.1329193c0.7545013-0.122467,1.5192108-0.2548981,2.2839203-0.3061829
							c1.30513-0.0915985,2.610199-0.3773651,3.9255295-0.0408173c1.2438965,0.3265839,2.6204071-0.030365,3.7725677,0.825943
							c0.3364258,0.2449493,0.825882,0.2753143,1.2234802,0.4386139c0.2141418,0.0816498,0.4996643,0.1936646,0.5608368,0.3464966
							l-1.4376831,1.3661194c-0.3466339,0.0921021-0.7238846,0.102066-1.1113358-0.0199127
							c-0.7137451-0.2245331-1.4172745-0.3773651-2.1615677-0.2857666c-0.2447586,0.0308685-0.4996643,0.102066-0.7443619,0.1528473
							c0.652565,0.7646942,1.2643051,1.4681702,1.8761139,2.1820984c0.1019363,0.122467,0.2140732,0.2548981,0.3262787,0.3773804
							c0.6321564,0.7338409,0.2549057,0.4485626,0.8768463,1.2028198c0.1325607,0.1533356,0.2549057,0.3470001,0.3772507,0.5202484
							c0.1325607,0.1936646,0.2651138,0.3773804,0.4486313,0.5098114c0.7749176,0.5809937,1.6007996,1.0808411,2.4164734,1.6006012
							c0.1019363,0.071701,0.2651062,0.0512848,0.3976593,0.0816498c0.7545013,0.132431,1.4274139,0.4181976,1.8454895,1.1112213
							C108.5957413,229.4550476,108.3611908,229.883194,107.7596512,229.9648438z" class="colorffc5c5 svgShape"></path></g><g fill="#000000" class="color000 svgShape"><path fill="#1b409c" d="M44.3708534,204.1205292c3.0084114,5.4185486,42.901371,24.0841675,42.901371,24.0841675
							l3.4634476-10.685257l-23.2751236-14.3005524l14.3510513-10.365036
							c-1.1838989-10.068161-2.4114685-19.3976288-3.7331161-27.1347046
							C77.1852341,166.182663,41.3624382,198.7020874,44.3708534,204.1205292z" class="colorfe6b4d svgShape"></path></g><g fill="#000000" class="color000 svgShape"><path fill="#1a3371" d="M87.2724075,228.514801c-0.0439453,0-0.0888672-0.0095215-0.1318359-0.0292969
							c-1.6318359-0.763916-40.0185547-18.7709961-43.0400391-24.2145996
							c-0.4677734-0.8415527-1.8886719-3.4023438,13.4521484-19.378418
							c0.1181641-0.1240234,0.3144531-0.1271973,0.4384766-0.0090332c0.1230469,0.1186523,0.1269531,0.3149414,0.0087891,0.4382324
							c-13.0722656,13.6135254-13.9804688,17.5270996-13.3583984,18.6484375
							c2.9257813,5.2697754,42.3642578,23.7675781,42.7626953,23.9538574
							c0.1542969,0.0725098,0.2216797,0.2570801,0.1484375,0.4121094
							C87.5009232,228.4486389,87.3886185,228.514801,87.2724075,228.514801z" class="colorf4573d svgShape"></path></g><g fill="#000000" class="color000 svgShape"><path fill="#1a3371" d="M90.7352982,217.8294983c-0.0556641,0-0.1113281-0.0148926-0.1621094-0.0458984l-23.2744141-14.3005371
							c-0.0888672-0.0544434-0.1435547-0.1491699-0.1474609-0.2526855s0.0439453-0.2021484,0.1279297-0.2626953
							l14.3505859-10.3649902c0.1376953-0.0991211,0.3320313-0.0698242,0.4326172,0.0698242
							c0.1005859,0.1386719,0.0693359,0.3325195-0.0693359,0.4326172l-13.9736328,10.0930176l22.8779297,14.0571289
							c0.1455078,0.0895996,0.1914063,0.2805176,0.1015625,0.4265137
							C90.9403763,217.7770081,90.8388138,217.8294983,90.7352982,217.8294983z" class="colorf4573d svgShape"></path></g><g fill="#000000" class="color000 svgShape"><path fill="#ffc5c5" d="M92.3452377,162.4410706c0,4.0871277,5.3342209,14.0877533,11.9661942,14.0877533
							c6.1431961,0,11.2499237-9.5287628,11.9661942-13.194458c-1.8707504-0.5393219-3.3201523-0.8173828-3.9353485-0.9270325
							c-0.2106781-0.0420837-0.3202286-0.0589447-0.3202286-0.0589447s-16.7863922-1.7105865-19.2639008-1.8286743
							C92.4884796,161.1348572,92.3452377,161.7753143,92.3452377,162.4410706z" class="colorffc5c5 svgShape"></path></g><g fill="#000000" class="color000 svgShape"><path fill="#fcafaf" d="M92.3452377,162.4410706c0,4.0871277,5.3342438,14.0897675,11.966217,14.0897675
						c2.1319809,0,4.129158-1.1459503,5.865097-2.7892609c-1.4325333,1.0786743-2.9999771,1.7612-4.6432343,1.7612
						c-6.6319733,0-11.9577332-10.0026398-11.9577332-14.0897675c0-0.2781525,0.0252533-0.5561066,0.0758133-0.8258209
						c-0.3876572-0.0337372-0.6910095-0.0590515-0.8932495-0.0674744
						C92.4884796,161.1348572,92.3452377,161.7753143,92.3452377,162.4410706z" class="colorfcafaf svgShape"></path></g><g fill="#000000" class="color000 svgShape"><path fill="#c7d6f2" d="M100.1536255,132.2575226c0.0861053-2.331955,0.400116-4.7707977,1.0456924-6.9872742
							c0.3364487-1.1083984,0.7342072-2.1887436,1.2761307-3.1680222c0.5488052-0.9598465,1.2033539-1.8898315,1.9841156-2.6903305
							c1.5416794-1.6206436,3.545372-2.7816086,5.7638779-3.2227936c1.1066513-0.2211456,2.2709885-0.285553,3.4412384-0.1424942
							c1.173439,0.1360168,3.8378677,0.6977539,5.018158,1.1059113l0.0088196,0.0029526
							c0.1287079,0.0443192,0.269043-0.0237198,0.3135147-0.1524429c0.035347-0.1024551-0.0008469-0.211937-0.0814743-0.2753754
							c-1.0152664-0.7904129-3.6784363-1.6548691-4.9433441-2.087471c-1.2684479-0.4237595-2.6415024-0.5868912-4.0129547-0.5064163
							c-2.7525635,0.1630173-5.4410782,1.4205399-7.4128189,3.3542786
							c-0.9900208,0.9645004-1.8586502,2.0453415-2.5291061,3.2692642
							c-0.6740189,1.2100067-1.1395187,2.4970169-1.4657669,3.7962189c-0.639389,2.6162796-0.7889938,5.2255859-0.4061279,7.8833771
							c0.0790329,0.5491486,0.5881424,0.9296722,1.1370621,0.8506012c0.4880142-0.0699005,0.8432846-0.4805603,0.860466-0.9564209
							L100.1536255,132.2575226z" class="colorc7d6f2 svgShape"></path><path fill="#edf3ff" d="M110.6815262,114.9587708c-1.6963272-0.0202637-3.3415527,0.4577637-4.8116226,1.2571716
							c-3.9532089,2.1447678-5.5049973,5.87117-6.5747452,10.1756058l-0.4038696,2.4546127
							c-0.0164795,0.1001587,0.0513687,0.1949921,0.1515579,0.2116089c0.100235,0.0161743,0.1948166-0.0515137,0.2112885-0.1516724
							l0.0025787-0.0154724l0.4022522-2.4222946c0.9685211-3.8632736,2.4332199-7.7792816,6.3706741-9.9626465
							c1.4083633-0.7871017,3.028595-1.2654419,4.6338043-1.2606812l0.0159378,0.0001221
							c0.0790939,0.0000763,0.1433411-0.0634842,0.1436234-0.1428833
							C110.8232193,115.0237579,110.7599716,114.9596939,110.6815262,114.9587708z" class="coloredf3ff svgShape"></path><g fill="#000000" class="color000 svgShape"><path fill="#edf3ff" d="M104.244194,138.7636108c-1.0330811,2.0828857-3.2609787,2.7907715-5.277504,1.6088867
							c-2.4117966-1.4134979-3.4207077-4.539093-2.8290176-7.1907959c0.6947327-3.1136475,4.2061768-4.6616516,6.6185913-2.3696289
							C104.9125748,132.8607178,105.3751907,136.4832001,104.244194,138.7636108z" class="coloredf3ff svgShape"></path><path fill="#4052f2" d="M102.5318222,137.6835022c-0.6331863,1.4031372-2.028862,1.8650208-3.3066788,1.048111
							c-1.5282822-0.9770355-2.1878281-3.1029358-1.836792-4.8950043c0.4121552-2.104248,2.6084442-3.1251068,4.1441498-1.5528259
							C102.9051437,133.6891022,103.225029,136.1473389,102.5318222,137.6835022z" class="color4052f2 svgShape"></path><path fill="#1939d1" d="M98.3802872,134.3524475c-0.1298599,0.6466827-0.062294,1.2901917,0.1362991,1.9033661
							c0.211853,0.6074066,0.5850677,1.1490784,1.0322266,1.5987244c0.0716705,0.0720367,0.1882172,0.0723877,0.2602844,0.0007172
							c0.0720825-0.0716705,0.0715256-0.1891022-0.000145-0.2611389c-0.4134216-0.4189148-0.7379227-0.9186096-0.9389648-1.4647064
							c-0.2078934-0.5375977-0.2952423-1.1514893-0.2102661-1.7115631l0.0023117-0.0157318
							c0.011879-0.0778503-0.0418472-0.1507721-0.1199799-0.1625824
							C98.4662857,134.2278137,98.3953476,134.2783203,98.3802872,134.3524475z" class="color1939d1 svgShape"></path></g></g></g><g fill="#000000" class="color000 svgShape"><path fill="#25a59f" d="M348.7153931,305.462677c1.0209961,1.9873352,2.7344666,8.7756042,3.1020508,14.9005127
						c0.5045471,6.1619263-0.3369446,11.6604309-1.2635498,11.9247742
						c-1.0053406,0.4998779-2.8851929-4.4472961-6.2886963-8.2132568c-3.1789551-3.9968567-7.8816223-6.8125-9.3478088-7.383667
						c-3.1410522-1.5615845-3.9681396-7.3840027,0.4787903-12.5289001
						C339.8757935,299.0202026,346.8378296,300.7128601,348.7153931,305.462677z" class="color25a59f svgShape"></path><path fill="#383838" d="M357.2831421,355.6932678c-0.0986328,0-0.1962891-0.0461426-0.2587891-0.1325684
						c-4.7255859-6.5683594-5.7509766-15.0053711-6.6552734-22.4489746
						c-0.8486328-6.9858398-1.90625-15.6801758-6.6044922-22.1269531c-0.1035156-0.1420898-0.0722656-0.3410645,0.0693359-0.4448242
						c0.1416016-0.1020508,0.3417969-0.0725098,0.4443359,0.0698242c4.796875,6.5805664,5.8652344,15.3659668,6.7236328,22.425293
						c0.8945313,7.3674316,1.9082031,15.7182617,6.5400391,22.1540527c0.1025391,0.1425781,0.0693359,0.3415527-0.0732422,0.4440918
						C357.4130249,355.6737366,357.3475952,355.6932678,357.2831421,355.6932678z" class="color383838 svgShape"></path><path fill="#3fc4bd" d="M375.3067932 339.9689331c-.9835815.1131592-4.7878113 1.1442566-7.4754639 2.915863-2.8575745 1.6344299-4.5985107 4.0093689-5.3781128 3.644043-.7316284-.1430969-.3699341-3.4284973 1.9044189-6.2693787 2.0450745-2.9155273 6.0029907-5.3865662 7.1679688-5.6259766 2.2715759-.8926086 5.3092651.0774231 6.1382141 1.7682495C378.5102539 338.0886841 377.1928101 339.5046082 375.3067932 339.9689331zM335.8535767 326.2063293c-3.3158569-.4649658-4.4501648 1.1888123-2.9683228 2.8815613 1.4804382 1.7432556 3.8948975 3.5979309 5.7822876 4.5872803.9244995.3537292 4.8367004 2.2391663 7.1470642 5.4824829 2.5600281 2.9795532 3.5181274 7.316864 4.2999878 6.4809265.8867493-.6783752 1.0991516-7.027771-2.7064819-11.9212646-1.7363281-2.4505005-4.1615295-4.4994507-6.4450073-5.6930847C338.6973877 326.7841492 336.5735474 326.399292 335.8535767 326.2063293z" class="color3fc4bd svgShape"></path><path fill="#25a59f" d="M334.6259766,333.7451477c0.9114075,0.0792542,4.3660889,1.5883484,6.4542847,3.7669678
						c2.2462158,2.0779114,3.1259155,4.8253784,2.5379944,5.0557251c-0.58255,0.3625793-2.3942566-1.3460999-4.7344055-2.3870239
						c-2.2611389-1.1652527-5.0506287-1.6627808-5.7645874-1.7507935c-1.3793335-0.2881165-2.5635681-1.3745728-2.3937988-2.7316589
						C330.8860779,334.3429565,332.7566223,333.2951355,334.6259766,333.7451477z" class="color25a59f svgShape"></path><path fill="#32b5b3" d="M385.9797363,317.1650085c-1.0594177,0.0000305-3.9880371,0.0884705-7.2962952,1.0591125
						c-3.3102722,0.9301758-7.0003052,2.7426147-9.629303,5.2565613c-5.7238464,4.8548279-6.5450745,11.435791-7.643158,10.8951416
						c-0.9277039-0.1248474-3.0314026-7.0866089,0.2362366-15.0333862
						c1.4476013-3.9086609,4.3742065-7.8497925,7.5524597-10.6852112c3.1395264-2.8754883,6.5307312-4.6454468,8.0141602-5.1360779
						c6.0310669-2.7072144,15.3735657,0.7016602,16.4980774,5.7766724
						C394.9099426,314.2479858,390.3150635,316.9176636,385.9797363,317.1650085z" class="color32b5b3 svgShape"></path><path fill="#383838" d="M358.0702515,355.4772034c-0.1855469,0-0.3457031-0.1398926-0.3662109-0.3286133
						c-1.1933594-11.0830078,2.4033203-35.3579102,24.5566406-47.9020996
						c0.1777344-0.1003418,0.4013672-0.0383301,0.5019531,0.1386719c0.0996094,0.177002,0.0380859,0.4013672-0.1386719,0.5014648
						c-21.8212891,12.355957-25.3632813,36.2663574-24.1875,47.1833496c0.0214844,0.2019043-0.125,0.3833008-0.3271484,0.4050293
						C358.0966187,355.4764709,358.0829468,355.4772034,358.0702515,355.4772034z" class="color383838 svgShape"></path><path fill="#383838" d="M361.9716187 351.1273499c-.1015625 0-.203125-.0419922-.2753906-.1245117-.7246094-.8195801-.9746094-2.1035156-.6552734-3.3505859.2900391-1.1291504.96875-2.1069336 1.59375-2.9145508 2.8955078-3.736084 6.7578125-6.6069336 11.1699219-8.3022461.1875-.0720215.4023438.0214844.4755859.2116699.0722656.1894531-.0224609.4023438-.2119141.4753418-4.2861328 1.6469727-8.0390625 4.4360352-10.8515625 8.065918-.5800781.7480469-1.2070313 1.6474609-1.4628906 2.6464844-.2597656 1.0141602-.0712891 2.0415039.4931641 2.6811523.1347656.1523438.1201172.3847656-.0322266.5192871C362.1454468 351.0970764 362.0585327 351.1273499 361.9716187 351.1273499zM349.3759155 353.8988342c-.1757813 0-.3310547-.1262207-.3623047-.3051758-1.3232422-7.635498-6.8339844-14.4121094-14.0390625-17.2641602-.1884766-.074707-.28125-.2885742-.2060547-.4775391.0742188-.1884766.2861328-.2807617.4775391-.206543 7.4375 2.9443359 13.1259766 9.9401855 14.4921875 17.8227539.0351563.2001953-.0996094.390625-.2998047.425293C349.4179077 353.8971252 349.3964233 353.8988342 349.3759155 353.8988342zM352.6386108 352.2066956c-.0966797 0-.1855469-.0629883-.2148438-.1601563-1.2050781-4.0563965-2.4511719-8.2509766-4.4042969-12.0827637-2.1933594-4.3041992-4.9794922-7.5161133-8.2802734-9.5461426-.1054688-.0649414-.1376953-.2026367-.0732422-.3078613.0644531-.1049805.2041016-.1376953.3076172-.0734863 3.3720703 2.0739746 6.2128906 5.3457031 8.4443359 9.7243652 1.9716797 3.8681641 3.2246094 8.0827637 4.4355469 12.1584473.0351563.1184082-.0322266.2429199-.1513672.2780762C352.680603 352.2035217 352.6600952 352.2066956 352.6386108 352.2066956z" class="color383838 svgShape"></path><path fill="#3fc4bd" d="M370.5483093,301.5067444c-1.2802429,1.4772034-5.2294312,6.6782227-7.7981262,12.5308228
						c-2.8354187,5.6264954-4.2892761,11.9035034-6.7378235,10.3424683
						c-2.5405884-1.1599426-5.4058228-11.5802002-3.8949585-20.4425964
						c0.9807129-9.1252441,6.3385315-16.6916504,7.9920044-18.2045593c4.1117249-4.0515747,8.6206055-1.2723083,10.822937,3.2071838
						C373.2077637,293.4607239,373.1154785,297.8147888,370.5483093,301.5067444z" class="color3fc4bd svgShape"></path><path fill="#383838" d="M357.3544312,353.5746155c-0.1259766,0-0.2490234-0.0649414-0.3173828-0.1813965
						c-2.8759766-4.8930664-3.8847656-11.1674805-2.9980469-18.6486816
						c0.4775391-4.0332031,1.4345703-8.0422363,2.3583984-11.9194336c0.5224609-2.1894531,1.0625-4.4533691,1.5097656-6.692627
						c0.9589844-4.8103027,2.0019531-11.9736328-0.0146484-18.6159668
						c-0.0595703-0.1945801,0.0498047-0.3999023,0.2451172-0.4589844c0.1933594-0.059082,0.4003906,0.0515137,0.4580078,0.2451172
						c2.0654297,6.8007813,1.0078125,14.0856934,0.0322266,18.973877c-0.4492188,2.2524414-0.9902344,4.5231934-1.5146484,6.7192383
						c-0.9199219,3.8566895-1.8710938,7.8447266-2.34375,11.8352051c-0.8671875,7.3183594,0.109375,13.4379883,2.9023438,18.189209
						c0.1025391,0.175293,0.0439453,0.4006348-0.1308594,0.5036621
						C357.4823608,353.5582581,357.4179077,353.5746155,357.3544312,353.5746155z" class="color383838 svgShape"></path><path fill="#ffc5c5" d="M370.3904419,350.7011108l-3.5689392,20.9597168
							c-0.2716064,1.6014709-1.4816589,2.8408813-3.0079041,3.1965942c-0.2894592,0.0675964-0.5916138,0.103302-0.900177,0.103302
							h-13.6025696c-1.9329834,0-3.584198-1.3936462-3.9080811-3.2998962l-2.1013184-12.3414612l-1.4217529-8.3581543
							l-0.0445862-0.2601013H370.3904419z" class="colorffc5c5 svgShape"></path><path fill="#fcafaf" d="M370.3904419,350.7011108l-3.5689392,20.9597168
							c-0.2716064,1.6014709-1.4816589,2.8408813-3.0079041,3.1965942
							c-0.0586548-1.6269836-0.2881775-3.2424927-0.7165833-4.8184814c-1.188385-4.3696899-4.0139465-8.381073-8.0177002-10.4977112
							c-3.6110229-1.908783-8.1808777-2.0898743-11.7778625-0.2218628l-1.4217529-8.3581543
							c0.0472107-0.0879517,0.0956421-0.1746826,0.144104-0.2601013H370.3904419z" class="colorfcafaf svgShape"></path><path fill="#ffc5c5" d="M369.9299927,355.1194458h-27.6916809c-1.0424194,0-1.8875122-0.8450623-1.8875122-1.8875122v-2.3560181
							c0-1.04245,0.8450928-1.8875122,1.8875122-1.8875122h27.6916809c1.04245,0,1.8875122,0.8450623,1.8875122,1.8875122v2.3560181
							C371.8175049,354.2743835,370.9724426,355.1194458,369.9299927,355.1194458z" class="colorffc5c5 svgShape"></path></g><g fill="#000000" class="color000 svgShape"><circle cx="379.485" cy="207.132" r="9.568" fill="#4052f2" class="color4052f2 svgShape"></circle><path fill="#ffffff" d="M378.445282,206.5869598v-4.8110657c0-0.5397339,0.4380798-0.9778595,0.9778442-0.9778595
						c0.5437012,0,0.9778748,0.4381256,0.9778748,0.9778595v4.8110657c0,0.5398254-0.4341736,0.9778442-0.9778748,0.9778442
						C378.8833618,207.5648041,378.445282,207.1267853,378.445282,206.5869598z" class="colorfff svgShape"></path><path fill="#ffffff" d="M384.730896,207.8620758c0,1.4276428-0.5553894,2.7693176-1.5684814,3.7785034
						c-1.0091248,1.0129852-2.3507385,1.5683746-3.7783813,1.5683746c-1.4276733,0-2.7693176-0.5553894-3.7823486-1.5683746
						c-2.0847778-2.0848236-2.0847778-5.4759827,0-7.5608063c0.3833618-0.3793945,1.0012817-0.3793945,1.3846436,0
						c0.3833313,0.383316,0.3833313,1.0013428,0,1.3846588c-1.322052,1.3220062-1.322052,3.4732971,0,4.7953949
						c0.6414795,0.6414337,1.4902344,0.9934235,2.3977051,0.9934235c0.9035645,0,1.7562256-0.3519897,2.3977051-0.9934235
						c0.6414795-0.6415253,0.9934692-1.4941864,0.9934692-2.3977509c0-0.9073792-0.3519897-1.7562103-0.9934692-2.397644
						c-0.3833618-0.383316-0.3833618-1.0013428,0-1.3846588c0.3833008-0.3793945,1.0012817-0.3793945,1.3806763,0
						C384.1755066,205.0889435,384.730896,206.4344482,384.730896,207.8620758z" class="colorfff svgShape"></path></g><g fill="#000000" class="color000 svgShape"><path fill="#d5e1fa" d="M95.122879,90.0130997c0,0,0.1039124-4.9297562-3.2438049-4.6449814l3.3559723,8.4715271
					c0.0236969,0.039566,0.0346756,0.0784607,0.0479584,0.1225586c0.3514023,0.9635391-0.1218567,2.3207245-1.2232742,3.3232422
					c-1.336853,1.1996613-3.0879974,1.4197464-3.9121323,0.4953842c-0.8391113-0.9302368-0.4306717-2.6587067,0.9009781-3.8560791
					c1.0293121-0.9271011,2.3151932-1.273674,3.2348404-0.9471664l-5.1924973-13.1042633
					c-0.0572281-0.1434479,0.01371-0.3058014,0.1487503-0.3651581c0.0051727-0.0022736,0.0103683-0.0045624,0.0103683-0.0045624
					c0.1477585-0.0586929,0.3099594,0.013649,0.3695145,0.1623688l0.2149506,0.5425491
					c0.48909,0.3908768,1.4746857,1.0631104,3.4054031,2.1194305C96.2386932,83.976532,96.257782,87.7529907,95.122879,90.0130997z" class="colord5e1fa svgShape"></path></g><g fill="#000000" class="color000 svgShape"><path fill="#d5e1fa" d="M131.187851,87.0124588c0.2941895,0.576355,0.6960602,1.0727005,1.0972443,1.5376434
					c-0.0435486,0.1575165-0.0874176,0.2994308-0.1152191,0.4567184c-0.3136444,1.4011917-0.4375,2.8937912-0.1555634,4.3490906
					c0.0704803,0.3598785,0.1725006,0.7350006,0.3683472,1.1088638c0.1958313,0.3737717,0.5636597,0.7450409,1.035141,0.8480682
					c0.9434052,0.2216644,1.7883911-0.4810486,2.0537872-1.2223969c0.2807007-0.7572708,0.2157135-1.5880814-0.034256-2.2906342
					c-0.2655334-0.70224-0.685791-1.3238907-1.1512909-1.8663406c-0.336853-0.3874283-0.6887817-0.7433243-1.0402679-1.0834198
					c-0.2879639-0.2939911-0.5755615-0.5722733-0.8319702-0.8510132c-0.3209534-0.3720474-0.6266174-0.7599335-0.8546906-1.1802597
					c-0.8132935-1.4319916-0.9036713-3.4235611,0.0999603-4.7406006c0.6995239-0.9203262,2.4107666-1.3531342,3.4673157-0.9604263
					c1.2295532,0.4373322,2.0078735,1.6971359,1.8777771,2.90728c-0.0983734,1.2254791-1.0919189,2.2912445-2.3860626,2.4825897
					c-1.2784882,0.1912079-2.7803345-0.540329-3.4383392-2.0215073l-0.0156403,0.0002289
					c-0.0109711,1.64785,1.6201782,3.2876129,3.5276031,3.2442703c0.9388733,0.017807,1.8689423-0.3723679,2.5905151-0.994751
					c0.720871-0.6538925,1.1542511-1.585968,1.2740784-2.5450211c0.0882721-0.974205-0.1994019-1.9742813-0.7797546-2.7662048
					l-0.0159912-0.0154724c-0.9336395-1.2105331-2.6177521-1.6882019-4.0294037-1.149971
					c-1.6448822,0.6044464-2.2029266,1.5541382-2.2182465,1.5700684
					C130.497406,83.3190689,130.3388977,85.3770752,131.187851,87.0124588z M133.0860901,89.4172745
					c0.2875977,0.2782822,0.5442505,0.5727234,0.7853394,0.8673935c0.8356171,1.0235519,1.4442596,2.3956757,0.9529266,3.5327072
					c-0.222641,0.5524216-0.7630615,0.874115-1.2196655,0.7395554c-0.4401855-0.1034851-0.6721191-0.6964417-0.7646332-1.3542557
					C132.6410675,91.965889,132.7693634,90.6772385,133.0860901,89.4172745z" class="colord5e1fa svgShape"></path><path fill="#d5e1fa" d="M130.0546112,75.9185944c0.0661316-1.272049,1.1537323-2.3234634,2.4203339-2.3418121
					c0.0781708-0.0011368,0.1564331-0.0022659,0.2192841,0.0124359c0.0781708-0.0011368,0.1566772,0.0134354,0.2196198,0.0282288
					c1.8040161,0.2406082,2.9648132,1.8244553,3.2627411,3.2952347c0.3316345,1.5801468,0.0823059,3.0588531-0.2625427,4.4605026
					c-0.6925354,2.6776733-2.0027008,5.0034943-2.6682739,7.4768677c-0.2879639-0.2939911-0.5755615-0.5722733-0.8319702-0.8510132
					c0.6826935-2.410881,1.7606659-4.6234818,2.2576752-6.9374313c0.284729-1.2909164,0.4273224-2.6425095,0.120224-3.8149948
					c-0.0523224-0.2503738-0.1516113-0.4999771-0.2658691-0.7180405c-0.3391113,0.9465179-1.2467041,1.6501465-2.2943573,1.6653214
					C130.9648743,78.2122421,129.9883881,77.1906357,130.0546112,75.9185944z" class="colord5e1fa svgShape"></path></g><g fill="#000000" class="color000 svgShape"><path fill="#d5e1fa" d="M69.1732407,119.9949875c-0.3004303-0.4355698-0.6806717-0.794754-1.0570908-1.1285553
					c0.0193024-0.1323395,0.0404968-0.2520599,0.0469437-0.382515c0.1114349-1.1692657,0.0581207-2.3922653-0.3233566-3.5415192
					c-0.0949478-0.284111-0.2172928-0.5772018-0.4162674-0.8592072c-0.198967-0.281929-0.5383911-0.543396-0.9348373-0.5763397
					c-0.7948685-0.0784836-1.4134216,0.5816574-1.5537491,1.2109604c-0.151207,0.6438522-0.0119553,1.3102341,0.2653732,1.8528366
					c0.2900238,0.5406723,0.698288,0.9994354,1.1353607,1.3891602c0.315773,0.2778854,0.6405945,0.5285873,0.9634247,0.7665329
					c0.2660599,0.2073975,0.53022,0.4020996,0.7688904,0.6005096c0.3011627,0.2671204,0.5914383,0.5487137,0.8216019,0.8649216
					c0.8138275,1.0733795,1.0941238,2.6778107,0.4094162,3.8528671c-0.4769897,0.8209076-1.8322906,1.3551941-2.7374496,1.1502075
					c-1.0513382-0.2225952-1.8187103-1.1601715-1.8376465-2.1549149c-0.0464935-1.0037689,0.6559982-1.9740906,1.6950455-2.2679443
					c1.0262527-0.2920685,2.3308716,0.1397781,3.0227203,1.2696762l0.0127792-0.0018616
					c-0.1617661-1.3367157-1.6662827-2.4907913-3.2224579-2.2511215c-0.7700272,0.086235-1.490593,0.5021973-2.0164948,1.0840073
					c-0.5220718,0.6072617-0.7800789,1.4091644-0.7787476,2.1993027c0.0287132,0.7990341,0.3677139,1.5787201,0.924614,2.1583252
					l0.0146866,0.0108261c0.8893356,0.8809891,2.3167801,1.0875397,3.4160309,0.4999313
					c1.2832108-0.6662674,1.6414108-1.4958115,1.6522903-1.5103683
					C70.1208572,122.9143524,70.0373077,121.229393,69.1732407,119.9949875z M67.3709183,118.2495041
					c-0.2641602-0.1947021-0.5046539-0.4058228-0.7324448-0.6187897c-0.7897644-0.7399597-1.4299316-1.7867661-1.1457291-2.7609863
					c0.1249161-0.4715958,0.5337601-0.7902756,0.9213028-0.7301865c0.3708801,0.0366669,0.6220856,0.4923782,0.7659531,1.0156021
					C67.4709625,116.1361847,67.4995041,117.1943665,67.3709183,118.2495041z" class="colord5e1fa svgShape"></path><path fill="#d5e1fa" d="M71.2499619,128.8647766c0.0776901,1.0380554-0.7032471,2.0068359-1.7376862,2.1575317
					c-0.0638351,0.0092926-0.1277542,0.0186005-0.1807022,0.0134277c-0.0638428,0.0093079-0.1295853,0.0059204-0.1826248,0.0006714
					c-1.5009842-0.0015564-2.6148529-1.1607513-3.0110168-2.3208313c-0.4350739-1.2451096-0.3842926-2.4702988-0.2473679-3.64328
					c0.2891846-2.2444534,1.1201782-4.2699738,1.4084778-6.3459549c0.2660599,0.2073975,0.53022,0.4020996,0.7688904,0.6005096
					c-0.3087769,2.0271759-0.9615173,3.9360275-1.1284103,5.8647232c-0.099205,1.0767899-0.0758286,2.1875153,0.2969208,3.1048584
					c0.0687637,0.1973114,0.1758652,0.3889465,0.2919464,0.5534363c0.1793823-0.8034973,0.8490677-1.4710846,1.7046967-1.5957336
					C70.2675171,127.1034393,71.1723404,127.8267136,71.2499619,128.8647766z" class="colord5e1fa svgShape"></path></g><g opacity=".5" fill="#000000" class="color000 svgShape"><path fill="#5ac8fa" d="M220.2108154,273.6810303c0.107666,0.9838867,0.0036163,2.0591125-0.2877655,3.0076904
				c-1.1017609,3.6204529-3.5214081,6.0873413-6.9715424,7.5722656c-0.9925995,0.4265442-2.0528564,0.6375122-3.1258698,0.5718689
				c-2.6741943-0.1702881-4.3043518-2.0557251-4.1829224-4.7599487c0.1087341-2.1495056,0.9686737-4.0135498,2.2705841-5.6682434
				c1.4542236-1.8609924,3.262146-3.2737427,5.5361023-4.0158997c0.5447845-0.1795654,1.118103-0.2938843,1.6837616-0.3559265
				c0.5497284-0.0569153,1.1161041-0.0196228,1.7882233-0.0280762c-0.0922699-0.4634399-0.1654053-0.9009705-0.2610474-1.34198
				c-0.7304993-3.1872559-1.4621887-6.3670654-2.1852112-9.5532227c-0.7620544-3.3367004-1.5091553-6.6712036-2.2637482-10.0068054
				c-0.0882416-0.3865051-0.0076294-0.5729523,0.4196167-0.7315674c1.9794617-0.7089386,3.9111328-0.5712128,5.6979218,0.4527588
				c1.6813202,0.9629364,3.2692108,2.0950012,4.8808594,3.1696625c1.5551758,1.0433044,3.0888214,2.1294556,4.9945221,2.3931122
				c0.6718292,0.0983429,1.3795471,0.0036774,2.1360321-0.0077057c-0.9498901,0.3948364-1.8979492,0.5686035-2.8697662,0.5408478
				c-1.6535187-0.0592346-3.1396637-0.688324-4.6117706-1.3613281c-1.4370117-0.6526184-2.8751526-1.2975769-4.3369446-1.8851318
				c-0.9077759-0.3616333-1.8947601-0.3383789-2.870285-0.2371216c-0.3243561,0.028656-0.4198303,0.1595001-0.3399048,0.4991913
				c0.680191,2.9587555,1.3303833,5.9131012,2.003006,8.8707428c0.6632385,2.9181213,1.3414154,5.8384094,2.0045624,8.7565308
				C219.6366577,270.9358521,220.0555725,272.2934875,220.2108154,273.6810303z" class="color5ac8fa svgShape"></path></g><g opacity=".5" fill="#000000" class="color000 svgShape"><path fill="#5ac8fa" d="M192.358429,254.6678772c-0.431839-0.3835602-0.9867859-0.6554108-1.5151215-0.9004517
				c-0.5421906-0.2546997-0.6631012-0.1579285-0.7516174,0.4467468c-0.6139984,4.1950073-1.2866364,8.3739929-1.8185425,12.5810242
				c-0.25,1.96875-1.2479553,3.3170776-2.8569946,4.309021c-1.5835419,0.9729309-3.280304,1.4183655-5.1504822,1.0684814
				c-2.0919495-0.3977661-3.0664368-2.4389038-1.9740448-4.2765198c1.5677643-2.6373596,4.0018005-3.6917114,6.9750366-3.5843506
				c0.5696869,0.0147095,1.1298218,0.3025818,1.7960358,0.4914856l1.9851837-13.5631409
				c1.5163727-0.0982208,2.7414551,0.4394226,3.6317139,1.5456848c0.9604645,1.2003021,1.7837677,2.5026398,2.6854553,3.7401428
				c0.7379761,1.0002136,1.5960541,1.8577271,2.8764801,2.12146c-1.3786011,0.0420532-2.4593658-0.5963745-3.4067383-1.5203857
				C194.008606,256.3123779,193.2210693,255.4421082,192.358429,254.6678772z" class="color5ac8fa svgShape"></path></g><g opacity=".5" fill="#000000" class="color000 svgShape"><path fill="#5ac8fa" d="M204.1317444,271.7467957c0.5350342,1.3973389,0.7170563,2.7582703,0.0732574,4.1357117
				c-0.8770599,1.87677-2.173996,3.2881775-4.3463135,3.6487122c-1.3835297,0.2321472-2.636795-0.7900391-2.6058044-2.3562012
				c0.0482483-2.5699463,1.3678894-4.3972168,3.6412048-5.5514221c0.2394409-0.1250305,0.502121-0.2008667,0.7626343-0.2619629
				c0.2605743-0.0608826,0.5358582-0.0663757,0.9232788-0.1087036c-1.0948792-3.0423584-2.1622314-6.0119934-3.2698517-9.0714417
				c-0.2588654,0.2061462-0.4674835,0.3812866-0.6761169,0.5566406c-2.7262115,2.2161255-5.4511566,4.4249878-8.1645203,6.6582642
				c-0.140213,0.1242981-0.2364197,0.46875-0.1707611,0.645874c0.7997437,2.29776,1.6401062,4.5785522,2.464447,6.8646545
				c0.391037,1.0787964,0.8312683,2.1344604,1.1827393,3.2229004c0.4074554,1.2794495,0.0906067,2.5063171-0.5245972,3.636261
				c-0.7794495,1.418457-1.8842316,2.5071106-3.4831238,3.0126343c-1.2561188,0.4032593-2.6550598-0.1445618-2.9897003-1.1922302
				c-0.2997742-0.9208069-0.3414307-1.8341675,0.0084534-2.766571c0.7042084-1.8944397,1.8944244-3.3061829,3.824707-3.9920044
				c0.3782196-0.1352539,0.7858124-0.1595459,1.2405701-0.2454224c-0.3243256-0.9089661-0.6360321-1.8009949-0.9574127-2.6791687
				c-0.7598267-2.1011047-1.53685-4.1896667-2.2807312-6.296051c-0.0538788-0.15271,0.0144348-0.4630737,0.1353302-0.5596619
				c3.5981445-2.9654541,7.209137-5.9137573,10.8200989-8.8618774c0.0256958-0.0191345,0.0693512-0.0050964,0.1707611-0.0207825
				c0.2346039,0.6366882,0.489563,1.2914734,0.720993,1.950592
				C201.7926941,265.3277283,202.9147339,268.5493774,204.1317444,271.7467957z" class="color5ac8fa svgShape"></path></g><g opacity=".5" fill="#000000" class="color000 svgShape"><path fill="#5ac8fa" d="M238.3859711,276.9269104c-0.2759247,0.7685547-0.6849213,1.3963928-1.4414825,1.7371826
				c-1.030777,0.4643555-2.0696411,0.5867615-3.0967102-0.0371399c-0.6550446-0.3963013-0.8097839-1.2652283-0.2396088-1.9021912
				c0.9345398-1.0461121,2.1307983-1.332489,3.4821014-1.0010071c0.1435699,0.0334778,0.2792358,0.0955811,0.4087524,0.1630249
				c0.1294861,0.0675354,0.2453308,0.163208,0.4206848,0.2835693c0.6296997-1.6483459,1.2449188-3.2568359,1.8754425-4.9168396
				c-0.1804657-0.0068054-0.3291168-0.0085754-0.477829-0.0102844c-1.9165955-0.0533142-3.8300934-0.1091614-5.747467-0.1507874
				c-0.1022491,0.0015259-0.2646332,0.1098022-0.3005066,0.2064514c-0.4868317,1.2352905-0.9508057,2.4779968-1.4233093,3.7171936
				c-0.2221375,0.5855103-0.4156799,1.1789246-0.6576233,1.7543335c-0.2867279,0.6743774-0.8544312,1.0692139-1.5110931,1.3177795
				c-0.8272705,0.3094788-1.6717834,0.3667297-2.5131989,0.0068665c-0.6632233-0.2801819-1.0470428-1.0046692-0.8126678-1.5572205
				c0.2036591-0.4876404,0.5114746-0.8803711,0.9880371-1.1416321c0.9655457-0.5331726,1.9603882-0.6936951,3.0030823-0.2904968
				c0.2046051,0.0786133,0.381897,0.213623,0.6006012,0.3399353c0.1893005-0.4914856,0.3777771-0.9714966,0.5573273-1.4491882
				c0.4333649-1.1397095,0.8551483-2.2803345,1.2969971-3.4165649c0.0320435-0.0823669,0.1707611-0.1864624,0.2551575-0.1833801
				c2.5440063,0.0535583,5.0872345,0.1188049,7.6303711,0.1841125c0.0174408,0.0012207,0.0305176,0.0225525,0.0780487,0.0521545
				c-0.1295166,0.3469238-0.2570496,0.7085571-0.3958588,1.0636292
				C239.7026062,273.4387207,239.0203247,275.170929,238.3859711,276.9269104z" class="color5ac8fa svgShape"></path></g><g opacity=".5" fill="#000000" class="color000 svgShape"><path fill="#5ac8fa" d="M250.4726563,243.571228c0.0251465-0.1718597,0.0278625-0.346817,0.0488586-0.5417938
				c-0.5551758,0.0940857-1.0376282,0.1606598-1.5233765,0.249649c-0.0394592,0.009491-0.0875702,0.0253448-0.1356812,0.0411987
				l-1.8298798,0.3648682l-1.7818909,0.3491974l-0.0543976,0.007309l-1.7434387,0.3471832l-1.7658539,0.3439026
				l-0.9736786,0.1929169l-1.6014709,0.3145447l-0.0224152-0.0032806c-1.8587036,0.3532104-3.7153778,0.7446899-5.574173,1.0978851
				c-0.337326,0.0651093-0.3945313,0.247345-0.427475,0.5245361c-0.2507172,1.8694305-0.5014496,3.7388763-0.7745972,5.6050262
				c-0.2753143,1.8810883-0.5805359,3.7577972-0.8708038,5.6367035c-0.0249481,0.1182861-0.08078,0.2396851-0.1314545,0.3772583
				c-1.262146-0.5964966-2.5239868-0.7277527-3.8233032-0.4453125c-2.33078,0.5052795-4.2636414,1.6251526-5.3189087,3.8343811
				c-0.648056,1.3537292-0.513092,2.4639282,0.4982758,3.4200134c0.6699829,0.6317444,1.5365448,0.8577881,2.4282227,0.9121704
				c1.9862518,0.1304321,3.7327423-0.4983215,5.2892761-1.7037964c1.1082764-0.8519287,1.9460907-1.8882446,2.1547852-3.3140869
				c0.4413757-3.0155334,0.8902435-6.0301819,1.2931976-9.0439148c0.0679016-0.516098,0.2978821-0.6806793,0.7527313-0.766571
				c1.6515198-0.2921295,3.2999115-0.6150665,4.9409332-0.9390869c2.2761078-0.4445648,4.5480804-0.9124603,6.8253784-1.3644867
				c0.5733032-0.1143341,1.1508026-0.2051544,1.776413-0.3118286l-1.149353,7.8525848
				c-0.3686981-0.1377258-0.6627655-0.2645264-0.9697571-0.3552551c-0.3229218-0.0854187-0.6586151-0.1879883-0.9936676-0.1912231
				c-3.0010071-0.073288-5.4628143,1.0149841-7.0273895,3.6299133c-1.1696625,1.9484253-0.4350128,3.9620972,1.8942413,4.5088806
				c1.0979919,0.2599182,2.1811218,0.2049561,3.2704315-0.1007996c1.3519897-0.3815613,2.5173035-1.0495911,3.5341034-2.0064697
				c1.0703278-1.0097351,1.447052-2.28125,1.6429901-3.7242432
				C248.9910126,253.43396,249.750473,248.5052185,250.4726563,243.571228z M247.5684814,247.3167419
				c-1.9440613,0.3634338-3.8892365,0.7345123-5.8356018,1.1130524l-7.5609741,1.4932251
				c0.0983429-0.6719208,0.1866608-1.2232056,0.2525787-1.777771c0.01091-0.0745392,0.0282135-0.140686,0.0433502-0.1918945
				l0.0074615,0.0010834l14.1900177-2.8179321c0.0063782,0.0085602,0.0063782,0.0085602,0.0052795,0.016037
				c-0.0515289,0.4042053-0.1105347,0.8073273-0.1620331,1.2113495
				C248.3894653,247.177597,248.3830872,247.1690369,247.5684814,247.3167419z" class="color5ac8fa svgShape"></path></g><g fill="#000000" class="color000 svgShape"><circle cx="314.35" cy="257.649" r="11.15" fill="#1b409c" class="colorfe6b4d svgShape"></circle><path fill="#ffffff" d="M319.323822,258.0601196l-7.459259,4.8140259
						c-0.3449097,0.2078247-0.7747498-0.0189209-0.7747498-0.4110413v-9.6275787
						c0-0.3921356,0.4298401-0.6188812,0.7747498-0.4110565l7.459259,4.8137817
						C319.6309509,257.4271851,319.6309509,257.8712158,319.323822,258.0601196z" class="colorfff svgShape"></path></g><g fill="#000000" class="color000 svgShape"><path fill="#d5e1fa" d="M366.617157,138.7523499c-0.1022949,0-0.2279053-0.4960938-0.3719482-1.4692383
						c-0.1633301-0.9697266-0.4571533-2.4174805-1.1140137-4.2436523c-0.6623535-1.8164063-1.7922363-4.0126953-3.7475586-6.1420898
						c-0.9543457-1.0839844-2.161377-2.0874023-3.5368652-3.0419922c-1.4171143-0.8955078-3.0349121-1.6933594-4.8632813-2.2519531
						c-3.0977783-0.8916016-6.4521484-1.0634766-9.5863037-0.234375c-3.154541,0.7480469-6.0371094,2.4487305-8.3510742,4.7075195
						c-2.2574463,2.315918-3.9543457,5.2001953-4.7008057,8.3549805c-0.8271484,3.1347656-0.6501465,6.4892578,0.2419434,9.5864258
						c0.5600586,1.8261719,1.3585205,3.4414063,2.2542725,4.8569336c0.9530029,1.375,1.958374,2.5786133,3.0406494,3.5327148
						c2.128418,1.9536133,4.3234863,3.0825195,6.1390381,3.7451172c1.8248291,0.6572266,3.2724609,0.9521484,4.2418213,1.1166992
						c0.9729004,0.1455078,1.4694824,0.2729492,1.4696045,0.3779297c0.0001221,0.1044922-0.4971924,0.1816406-1.5169678,0.2255859
						c-1.0151367,0.0234375-2.5577393-0.0961914-4.5510254-0.6328125c-1.9818115-0.543457-4.4199219-1.6113281-6.8259277-3.6308594
						c-1.2202148-0.987793-2.3706055-2.2568359-3.4619141-3.7368164c-1.0339355-1.5200195-1.963501-3.2807617-2.6260986-5.2910156
						c-0.9945068-3.4350586-1.1807861-7.1362305-0.2698975-10.6118164c0.8300781-3.4951172,2.7054443-6.6918945,5.206543-9.2504883
						c2.5566406-2.5029297,5.7518311-4.3818359,9.24646-5.2143555c3.4749756-0.9125977,7.1759033-0.7324219,10.6114502,0.2617188
						c2.0131836,0.6606445,3.7762451,1.5898438,5.2983398,2.6235352c1.4807129,1.0927734,2.7532959,2.2416992,3.7408447,3.4633789
						c2.0219727,2.4072266,3.0906982,4.8466797,3.6339111,6.8295898c0.5367432,1.9941406,0.6553955,3.5371094,0.6303711,4.5527344
						C366.8033142,138.2552795,366.7247009,138.7523499,366.617157,138.7523499z" class="colord5e1fa svgShape"></path><path fill="#3fc4bd" d="M360.5912781,138.7590485c0,7.061554-5.7281189,12.7896118-12.7962341,12.7896118
						c-3.9216003,0-7.4294128-1.760498-9.7745056-4.532547c-0.1182556-0.1380005-0.2298889-0.2825012-0.3415527-0.427002
						c-1.6816406-2.1611786-2.6801147-4.8806305-2.6801147-7.8300629c0-7.0681305,5.7280884-12.8027496,12.7961731-12.8027496
						c4.1778259,0,7.8892517,1.9968872,10.2211914,5.0974579c0.1905212,0.2561188,0.3744202,0.5123138,0.5386353,0.781662
						C359.8424072,133.8258057,360.5912781,136.2036591,360.5912781,138.7590485z" class="color3fc4bd svgShape"></path><path fill="#32b5b3" d="M360.5912781,138.7590485c0,7.061554-5.7281189,12.7896118-12.7962341,12.7896118
						c-3.9216003,0-7.4294128-1.760498-9.7745056-4.532547c-0.1182556-0.1380005-0.2298889-0.2825012-0.3415527-0.427002
						c-1.3335266-1.7144623-2.2400208-3.7836761-2.5553284-6.043335c0.0788269,0.1050415,0.1642456,0.2101593,0.2496338,0.3087158
						c2.3450928,2.772049,5.8528748,4.5324707,9.7745056,4.5324707c7.0681458,0,12.7961731-5.7280579,12.7961731-12.7896118
						c0-0.6108551-0.0393982-1.2086487-0.1247864-1.7932892c0.0722351,0.0854797,0.1313782,0.1642151,0.197052,0.2496948
						c0.1905212,0.2561188,0.3744202,0.5123138,0.5386353,0.781662
						C359.8424072,133.8258057,360.5912781,136.2036591,360.5912781,138.7590485z" class="color32b5b3 svgShape"></path><path fill="#ffffff" d="M356.3237305,133.3592072c0.3226624,0.3984528-0.8114014,1.9128418-3.5601807,4.4127045
							l-3.6627808,2.9664917l-1.8313904,1.4832153l-0.4578552,0.3708191l-0.2289124,0.1854095l-0.1961365,0.157547
							c-0.0773926,0.0601807-0.15802,0.1144562-0.2413025,0.16362c-0.6644287,0.3994293-1.519165,0.419754-2.1932068,0.0524292
							c-0.309906-0.175705-0.5605164-0.4262543-0.7503967-0.705719l-0.1298828-0.2028046l-0.0785828-0.1301422
							c-0.0517273-0.0861664-0.1026306-0.1709595-0.1526794-0.2543488c-0.0991211-0.1673737-0.1948853-0.329071-0.2873535-0.4852142
							c-0.1805115-0.3145752-0.348053-0.6065369-0.5026245-0.8759308c-0.3032227-0.5413971-0.5426636-0.9991913-0.7198792-1.3694763
							c-0.1758728-0.3683014-0.2945862-0.6579132-0.3384094-0.8403931c-0.0086365-0.080658-0.0390015-0.1757507-0.0576172-0.2136383
							c-0.0115662-0.0259857,0.0250854-0.040329,0.0444641-0.0947723c0.0378723-0.0563507,0.0477295-0.1551056,0.1181335-0.2345123
							c0.0823669-0.0635529,0.1982422-0.0641937,0.3482056-0.0185242c0.2789001,0.0803833,0.5804138,0.2554321,0.9380798,0.526413
							c0.3552246,0.2707062,0.7556458,0.636673,1.2025146,1.0989838c0.2233276,0.2312012,0.4577942,0.4865875,0.7036438,0.7662811
							c0.2241211,0.2619781,0.464386,0.5427551,0.7207947,0.842514c0.0121765-0.00354,0.0218506-0.0116577,0.0270081-0.0221863
							l6.2142334-5.0329132C354.276062,133.7456055,355.9850464,132.9410858,356.3237305,133.3592072z" class="colorfff svgShape"></path></g><g fill="#000000" class="color000 svgShape"><path fill="#e1ebff" d="M335.9378662,177.7625122c2.0715332-2.3535004,5.6713867-2.5828705,8.0249023-0.511322
					c2.3534851,2.0715485,2.5829773,5.6715088,0.5114136,8.0250092c-2.0715332,2.3534851-5.6717224,2.5829926-8.0252075,0.5114441
					C334.0954895,183.7161102,333.8663025,180.1159973,335.9378662,177.7625122z M342.5739441,183.6036072
					c1.149292-1.3057251,1.0219421-3.302887-0.283783-4.452179c-1.305603-1.1491852-3.3027649-1.022049-4.4520569,0.2836761
					c-1.149292,1.3057098-1.0221558,3.3031158,0.2834473,4.452301
					C339.4272766,185.0366974,341.4246521,184.909317,342.5739441,183.6036072z" class="colore1ebff svgShape"></path></g><g opacity=".5" fill="#000000" class="color000 svgShape"><path fill="#4052f2" d="M166.5613708,285.9091187c0.3196411-0.0520935,0.6594696,0.0177307,0.9429169,0.2218323
					l7.0483856,5.071991c0.5675659,0.4084167,0.6965179,1.1992493,0.2881012,1.7668152l-5.071991,7.0483704
					c-0.4078522,0.5671692-1.1996155,0.6962891-1.76651,0.2880554l-7.0483856-5.071991
					c-0.5675659-0.4084167-0.6965179-1.1992493-0.2881012-1.7668152l5.071991-7.0483704
					C165.9416962,286.1354065,166.241745,285.9612427,166.5613708,285.9091187z M172.0466461,292.5184631l-4.9934845-3.5934143
					l-3.5932465,4.9936218l4.9934845,3.5934143L172.0466461,292.5184631z" class="color4052f2 svgShape"></path></g><g opacity=".5" fill="#000000" class="color000 svgShape"><path fill="#ff8261" d="M288.3862305,286.9030457c0.1586304-0.0421753,0.3276367-0.0486145,0.4949036-0.0148926
					c0.4055176,0.0820313,0.7295837,0.3870239,0.8358765,0.7870178l2.7118835,10.2027588
					c0.1063232,0.3999939-0.0234985,0.8257751-0.335022,1.0983582c-0.311554,0.2724915-0.7507935,0.3448486-1.1329346,0.1863708
					l-8.033783-3.3277283c-0.3132019-0.1297607-0.5480652-0.3981323-0.6351624-0.7258606
					c-0.0871277-0.3276978-0.0164795-0.6772766,0.1912231-0.9453735l5.3218994-6.8750305
					C287.954071,287.0962219,288.1595154,286.9632874,288.3862305,286.9030457z M289.760437,296.3099365l-1.5813599-5.9494019
					l-3.103302,4.0090332L289.760437,296.3099365z" class="colorff8261 svgShape"></path></g><g fill="#000000" class="color000 svgShape"><path fill="#edf3ff" d="M394.9018555,240.8742371v16.8503723c0,1.2500305-1.0162964,2.2663269-2.2663269,2.2663269h-21.1492615
					c-1.2500916,0-2.2663879-1.0162964-2.2663879-2.2663269v-16.8503723c0-1.2500305,1.0162964-2.2663422,2.2663879-2.2663422
					h21.1492615C393.8855591,238.6078949,394.9018555,239.6242065,394.9018555,240.8742371z" class="coloredf3ff svgShape"></path><path fill="#d5e1fa" d="M402.4022827,267.1417542h-20.0927734c-1.3925781,0-2.5263672-1.1289063-2.5263672-2.5163574v-15.0515137
					c0-1.3874512,1.1337891-2.5163574,2.5263672-2.5163574h20.0927734c1.3876953,0,2.5166016,1.1289063,2.5166016,2.5163574
					v15.0515137C404.9188843,266.0128479,403.789978,267.1417542,402.4022827,267.1417542z M382.3095093,247.5575256
					c-1.1171875,0-2.0263672,0.904541-2.0263672,2.0163574v15.0515137c0,1.1118164,0.9091797,2.0163574,2.0263672,2.0163574
					h20.0927734c1.1123047,0,2.0166016-0.904541,2.0166016-2.0163574v-15.0515137
					c0-1.1118164-0.9042969-2.0163574-2.0166016-2.0163574H382.3095093z" class="colord5e1fa svgShape"></path></g><g fill="#000000" class="color000 svgShape"><path fill="#edf3ff" d="M216.3436432,322.7124023v16.8503723c0,1.250061-1.0163116,2.2663574-2.2663422,2.2663574h-21.1492615
					c-1.2500916,0-2.2663879-1.0162964-2.2663879-2.2663574v-16.8503723c0-1.2500305,1.0162964-2.2663269,2.2663879-2.2663269
					h21.1492615C215.3273315,320.4460754,216.3436432,321.4623718,216.3436432,322.7124023z" class="coloredf3ff svgShape"></path><path fill="#d5e1fa" d="M223.843689,348.9798889h-20.0917969c-1.3925781,0-2.5263672-1.1289063-2.5263672-2.5163574v-15.0515137
					c0-1.3874512,1.1337891-2.5163574,2.5263672-2.5163574h20.0917969c1.3876953,0,2.5166016,1.1289063,2.5166016,2.5163574
					v15.0515137C226.3602905,347.8509827,225.2313843,348.9798889,223.843689,348.9798889z M203.7518921,329.3956604
					c-1.1171875,0-2.0263672,0.904541-2.0263672,2.0163574v15.0515137c0,1.1118164,0.9091797,2.0163574,2.0263672,2.0163574
					h20.0917969c1.1123047,0,2.0166016-0.904541,2.0166016-2.0163574v-15.0515137
					c0-1.1118164-0.9042969-2.0163574-2.0166016-2.0163574H203.7518921z" class="colord5e1fa svgShape"></path></g></g></svg></g></svg>