<svg xmlns="http://www.w3.org/2000/svg" enable-background="new 0 0 1364 960" viewBox="0 0 1364 960"><ellipse cx="706.902" cy="887.74" fill="#E9EBF7" rx="229.315" ry="33.58"/><path fill="#3A67B3" d="M673.523 769.107c-.045 0-.09-.005-.136-.015 0 0-1.743-.384-4.895-1.151-.337-.081-.544-.42-.461-.758.082-.337.421-.544.758-.461 3.13.761 4.864 1.142 4.868 1.143.338.075.553.409.478.748C674.071 768.907 673.811 769.107 673.523 769.107zM658.928 765.48c-.053 0-.108-.006-.162-.021-3.141-.835-6.405-1.733-9.704-2.669-.333-.096-.527-.443-.432-.776.095-.332.438-.522.775-.433 3.292.935 6.549 1.832 9.683 2.664.335.09.534.433.446.767C659.46 765.295 659.206 765.48 658.928 765.48zM639.59 759.981c-.06 0-.121-.009-.182-.027-3.064-.928-6.274-1.926-9.605-2.993-.33-.107-.512-.46-.406-.789.106-.331.458-.507.789-.407 3.323 1.068 6.527 2.063 9.585 2.988.331.101.519.451.419.782C640.108 759.807 639.859 759.981 639.59 759.981zM620.453 753.838c-.067 0-.135-.011-.202-.033-3.207-1.091-6.402-2.209-9.494-3.322-.326-.118-.495-.477-.378-.803.116-.326.475-.492.803-.379 3.085 1.112 6.272 2.227 9.473 3.314.328.112.504.468.392.797C620.959 753.674 620.715 753.838 620.453 753.838zM601.552 747.028c-.075 0-.15-.013-.224-.042-3.178-1.213-6.326-2.452-9.359-3.683-.321-.13-.476-.495-.346-.816.131-.322.498-.479.817-.346 3.025 1.227 6.166 2.462 9.335 3.673.324.124.486.487.363.81C602.042 746.875 601.804 747.028 601.552 747.028zM582.939 739.472c-.083 0-.167-.016-.248-.051-3.108-1.342-6.198-2.721-9.186-4.099-.314-.145-.452-.518-.307-.832.145-.316.516-.456.833-.308 2.978 1.374 6.059 2.748 9.157 4.086.318.137.465.506.327.825C583.413 739.33 583.182 739.472 582.939 739.472zM564.711 731.052c-.093 0-.188-.021-.278-.065-3.065-1.517-6.079-3.065-8.96-4.602-.306-.163-.422-.544-.258-.849.162-.306.544-.423.849-.259 2.87 1.532 5.873 3.074 8.926 4.585.311.154.438.531.284.841C565.164 730.924 564.942 731.052 564.711 731.052zM546.991 721.58c-.107 0-.215-.027-.314-.085-2.965-1.717-5.861-3.471-8.609-5.214-.293-.185-.38-.572-.194-.865.186-.294.574-.379.866-.194 2.734 1.733 5.616 3.478 8.566 5.187.3.174.403.558.229.858C547.418 721.468 547.208 721.58 546.991 721.58zM530.049 710.816c-.124 0-.25-.037-.36-.114-2.823-1.979-5.545-3.997-8.089-5.998-.272-.213-.32-.608-.105-.88.214-.273.608-.321.881-.105 2.526 1.986 5.229 3.99 8.034 5.957.284.199.352.59.153.874C530.441 710.723 530.247 710.816 530.049 710.816zM514.3 698.393c-.15 0-.299-.053-.419-.161-2.57-2.307-5.004-4.666-7.236-7.013-.239-.251-.229-.648.022-.887.251-.239.648-.23.887.022 2.209 2.324 4.62 4.66 7.165 6.945.258.232.279.629.048.886C514.644 698.323 514.472 698.393 514.3 698.393zM500.543 683.838c-.187 0-.371-.082-.495-.241-2.132-2.727-4.066-5.516-5.747-8.285-.179-.297-.085-.683.211-.863.296-.176.683-.083.862.211 1.655 2.73 3.56 5.476 5.662 8.165.213.272.165.667-.108.88C500.814 683.795 500.678 683.838 500.543 683.838zM490.255 666.728c-.245 0-.476-.143-.578-.381-1.345-3.154-2.42-6.375-3.197-9.575-.082-.337.125-.677.461-.759.339-.076.676.125.758.462.76 3.134 1.814 6.289 3.132 9.379.136.319-.012.688-.331.824C490.42 666.712 490.336 666.728 490.255 666.728zM485.603 647.393c-.329 0-.606-.256-.626-.59-.067-1.122-.101-2.255-.101-3.372 0-2.232.134-4.503.4-6.75.041-.344.352-.601.697-.549.344.041.59.352.55.696-.259 2.199-.391 4.42-.391 6.603-.001 1.092.032 2.201.098 3.296.021.347-.243.643-.589.664C485.628 647.393 485.616 647.393 485.603 647.393zM487.885 627.564c-.057 0-.115-.007-.172-.025-.333-.094-.526-.442-.431-.776.895-3.134 2.057-6.329 3.454-9.498.14-.315.513-.461.827-.32.317.14.461.51.321.827-1.373 3.114-2.516 6.256-3.395 9.336C488.41 627.385 488.158 627.564 487.885 627.564zM495.968 609.324c-.116 0-.233-.032-.338-.099-.292-.187-.376-.576-.189-.868 1.748-2.723 3.8-5.41 6.096-7.984.231-.257.627-.281.886-.05.259.23.281.628.05.886-2.252 2.525-4.263 5.158-5.976 7.827C496.376 609.222 496.174 609.324 495.968 609.324zM509.128 594.426c-.175 0-.35-.074-.474-.216-.227-.262-.199-.658.063-.886 2.429-2.108 5.099-4.192 7.937-6.192.282-.203.674-.131.874.151.2.283.132.674-.151.874-2.804 1.977-5.441 4.035-7.838 6.116C509.42 594.376 509.274 594.426 509.128 594.426zM525.436 582.839c-.214 0-.424-.11-.541-.308-.176-.298-.078-.683.22-.859 2.769-1.642 5.738-3.273 8.826-4.847.308-.159.686-.034.844.273.158.309.035.688-.274.844-3.064 1.563-6.009 3.181-8.756 4.808C525.655 582.81 525.545 582.839 525.436 582.839zM543.282 573.69c-.24 0-.469-.138-.574-.371-.142-.316.001-.688.317-.829 2.949-1.32 6.069-2.635 9.272-3.911.321-.121.687.029.815.352.129.321-.029.686-.351.815-3.187 1.269-6.291 2.578-9.224 3.889C543.455 573.673 543.368 573.69 543.282 573.69zM561.923 566.246c-.257 0-.499-.159-.591-.416-.117-.326.053-.686.379-.803 3.033-1.087 6.235-2.182 9.518-3.253.334-.103.684.072.791.402.108.33-.072.684-.401.792-3.272 1.068-6.463 2.157-9.485 3.241C562.065 566.233 561.994 566.246 561.923 566.246zM581.011 560.008c-.27 0-.52-.175-.601-.447-.099-.332.09-.683.422-.782 3.136-.938 6.388-1.872 9.664-2.776.331-.088.68.105.771.439.093.333-.104.679-.438.772-3.267.901-6.51 1.832-9.639 2.769C581.131 560 581.07 560.008 581.011 560.008zM600.364 554.651c-.279 0-.534-.187-.607-.472-.086-.335.116-.678.452-.763 3.212-.826 6.465-1.634 9.755-2.426.333-.07.676.127.757.463.081.337-.127.677-.463.757-3.284.789-6.53 1.597-9.736 2.421C600.469 554.645 600.417 554.651 600.364 554.651zM619.889 549.943c-.287 0-.545-.197-.612-.489-.077-.338.135-.674.474-.75 3.241-.735 6.513-1.456 9.813-2.164.343-.067.672.142.745.483.073.338-.143.672-.482.745-3.294.706-6.562 1.427-9.799 2.16C619.982 549.938 619.935 549.943 619.889 549.943zM639.524 545.723c-.292 0-.553-.205-.614-.501-.07-.339.15-.672.489-.742 3.262-.667 6.548-1.322 9.852-1.968.341-.074.67.154.737.495.066.339-.155.669-.495.735-3.302.646-6.584 1.302-9.842 1.968C639.608 545.72 639.565 545.723 639.524 545.723zM659.233 541.864c-.296 0-.56-.21-.616-.511-.064-.341.16-.669.501-.733 3.277-.616 6.571-1.226 9.878-1.827.341-.058.667.165.729.505.062.342-.164.668-.505.73-3.304.602-6.595 1.209-9.87 1.825C659.31 541.86 659.271 541.864 659.233 541.864zM678.991 538.265c-.299 0-.564-.215-.617-.518-.061-.341.167-.667.509-.727 3.278-.58 6.566-1.153 9.861-1.725.341-.061.666.17.726.512.059.341-.17.665-.511.726-3.294.569-6.581 1.142-9.857 1.722C679.064 538.263 679.027 538.265 678.991 538.265zM698.739 534.85c-.301 0-.566-.217-.618-.522-.058-.342.172-.666.514-.724 3.302-.56 6.609-1.118 9.917-1.672.338-.06.665.173.723.515.057.342-.173.666-.515.723-3.307.554-6.612 1.112-9.914 1.672C698.809 534.848 698.774 534.85 698.739 534.85zM718.56 531.524c-.302 0-.568-.217-.618-.525-.057-.342.174-.665.516-.722l9.906-1.646c.343-.061.665.177.721.516.057.342-.175.666-.517.722l-9.905 1.646C718.628 531.522 718.594 531.524 718.56 531.524zM738.371 528.228c-.302 0-.568-.217-.618-.525-.057-.342.174-.666.516-.722 3.309-.552 6.61-1.104 9.902-1.66.34-.059.665.173.723.515.058.342-.173.666-.515.723-3.292.555-6.595 1.108-9.905 1.66C738.439 528.226 738.405 528.228 738.371 528.228zM758.174 524.889c-.3 0-.566-.216-.618-.522-.059-.341.171-.666.512-.724 3.312-.566 6.611-1.134 9.893-1.707.342-.072.666.168.726.51.059.341-.169.667-.51.726-3.284.574-6.584 1.143-9.897 1.71C758.245 524.887 758.209 524.889 758.174 524.889zM777.958 521.432c-.298 0-.563-.213-.617-.517-.061-.341.166-.667.507-.728 3.313-.594 6.606-1.194 9.876-1.799.338-.07.668.161.732.502.063.341-.162.668-.502.731-3.273.608-6.568 1.207-9.884 1.802C778.032 521.428 777.994 521.432 777.958 521.432zM797.706 517.77c-.295 0-.558-.208-.615-.509-.066-.341.157-.669.497-.735 3.312-.637 6.595-1.283 9.848-1.939.338-.075.67.152.739.491s-.151.67-.491.739c-3.255.656-6.542 1.302-9.857 1.941C797.785 517.766 797.745 517.77 797.706 517.77zM817.393 513.797c-.29 0-.55-.202-.613-.498-.072-.338.145-.672.484-.744 3.307-.701 6.576-1.414 9.803-2.14.342-.086.674.137.75.474.076.337-.136.673-.474.75-3.232.727-6.506 1.44-9.818 2.144C817.48 513.792 817.436 513.797 817.393 513.797zM836.985 509.38c-.283 0-.541-.194-.61-.48-.081-.337.127-.677.464-.757 3.342-.803 6.616-1.619 9.733-2.427.336-.087.678.115.765.451.087.335-.115.678-.45.765-3.124.809-6.406 1.626-9.755 2.432C837.083 509.374 837.033 509.38 836.985 509.38zM856.424 504.336c-.274 0-.526-.18-.604-.457-.094-.335.1-.68.434-.775 3.339-.939 6.575-1.892 9.617-2.831.33-.102.683.083.784.414.102.331-.083.683-.414.785-3.051.942-6.297 1.898-9.647 2.841C856.538 504.329 856.48 504.336 856.424 504.336zM875.605 498.401c-.261 0-.504-.164-.594-.424-.112-.328.063-.685.39-.797 3.279-1.123 6.446-2.272 9.412-3.417.326-.121.686.037.811.36.125.324-.036.686-.359.811-2.982 1.15-6.164 2.305-9.457 3.432C875.741 498.389 875.672 498.401 875.605 498.401zM894.316 491.157c-.242 0-.471-.14-.575-.374-.14-.317.004-.688.321-.827 3.163-1.396 6.196-2.841 9.015-4.297.306-.162.687-.039.846.27.159.308.038.686-.27.846-2.841 1.467-5.898 2.924-9.085 4.329C894.487 491.14 894.401 491.157 894.316 491.157zM912.077 481.912c-.21 0-.414-.104-.533-.295-.183-.294-.094-.682.2-.864 2.94-1.832 5.677-3.741 8.135-5.674.273-.213.667-.165.881.107.215.272.167.667-.105.881-2.495 1.96-5.269 3.894-8.247 5.751C912.305 481.881 912.191 481.912 912.077 481.912zM927.633 469.52c-.154 0-.31-.056-.431-.17-.252-.238-.264-.635-.026-.887 2.335-2.477 4.35-5.067 5.988-7.7.183-.293.571-.382.864-.201.294.184.384.57.201.865-1.682 2.703-3.747 5.359-6.14 7.896C927.967 469.454 927.8 469.52 927.633 469.52zM937.841 452.853c-.064 0-.128-.01-.192-.031-.33-.105-.511-.46-.405-.789.989-3.073 1.577-6.297 1.747-9.585.018-.347.306-.651.659-.594.346.017.612.313.594.658-.176 3.396-.783 6.729-1.805 9.906C938.353 452.683 938.107 452.853 937.841 452.853zM938.954 433.133c-.298 0-.562-.212-.616-.516-.582-3.204-1.535-6.318-2.831-9.257-.14-.318.004-.688.321-.827.317-.14.688.004.827.32 1.336 3.03 2.317 6.24 2.917 9.54.062.342-.165.668-.506.731C939.028 433.129 938.991 433.133 938.954 433.133zM931.087 415.226c-.191 0-.38-.087-.503-.253-1.876-2.51-4.099-4.948-6.608-7.245-.256-.234-.273-.631-.039-.887.234-.255.631-.273.886-.039 2.567 2.351 4.843 4.846 6.766 7.421.208.277.151.67-.127.878C931.349 415.186 931.217 415.226 931.087 415.226zM916.555 401.73c-.121 0-.244-.036-.352-.109-2.593-1.763-5.46-3.483-8.52-5.113-.306-.163-.422-.543-.259-.849.163-.306.542-.423.849-.259 3.101 1.652 6.006 3.396 8.637 5.184.286.195.361.585.166.871C916.953 401.635 916.756 401.73 916.555 401.73zM898.935 392.253c-.083 0-.167-.016-.248-.051-2.921-1.261-6.051-2.492-9.299-3.659-.326-.118-.496-.477-.379-.803.117-.326.478-.49.803-.379 3.274 1.177 6.427 2.417 9.373 3.688.318.137.464.506.327.825C899.41 392.111 899.179 392.253 898.935 392.253zM880.069 385.43c-.06 0-.122-.009-.183-.027-3.062-.933-6.305-1.848-9.64-2.722-.335-.087-.536-.43-.448-.766.088-.335.428-.54.767-.447 3.35.878 6.609 1.798 9.686 2.734.332.102.519.452.418.783C880.587 385.256 880.338 385.43 880.069 385.43zM860.652 380.322c-.046 0-.093-.005-.14-.016-3.125-.712-6.424-1.417-9.805-2.096-.34-.069-.56-.4-.492-.739.069-.341.397-.565.739-.491 3.391.682 6.7 1.389 9.837 2.103.338.077.549.413.472.751C861.197 380.124 860.939 380.322 860.652 380.322zM840.963 376.359c-.036 0-.073-.004-.11-.01-3.154-.561-6.483-1.12-9.894-1.663-.342-.055-.576-.376-.521-.718.054-.342.371-.569.718-.522 3.418.544 6.755 1.106 9.916 1.668.341.06.569.386.508.728C841.526 376.146 841.261 376.359 840.963 376.359zM821.128 373.196c-.029 0-.059-.002-.09-.006-3.277-.471-6.593-.923-9.943-1.359-.344-.045-.586-.36-.541-.704.045-.343.358-.587.704-.542 3.355.439 6.676.891 9.958 1.362.343.049.582.368.533.711C821.703 372.97 821.435 373.196 821.128 373.196zM801.212 370.594c-.025 0-.05-.001-.075-.005-3.296-.392-6.621-.773-9.972-1.142-.344-.038-.593-.348-.555-.693.037-.344.343-.593.693-.555 3.355.369 6.683.75 9.983 1.145.344.04.59.353.549.697C801.796 370.359 801.525 370.594 801.212 370.594zM781.247 368.39c-.021 0-.043-.001-.064-.004-3.31-.339-6.641-.669-9.99-.993-.345-.034-.598-.341-.564-.685.033-.346.348-.594.685-.565 3.352.324 6.685.656 9.998.995.344.036.595.343.56.688C781.838 368.15 781.565 368.39 781.247 368.39zM761.256 366.453c-.019 0-.039-.001-.058-.002-3.32-.305-6.654-.604-10-.9-.345-.031-.601-.335-.57-.68.031-.344.338-.586.68-.57 3.347.295 6.683.594 10.004.9.345.032.599.337.568.683C761.85 366.209 761.576 366.453 761.256 366.453zM741.25 364.683c-.018 0-.036-.001-.055-.002-3.323-.286-6.654-.568-9.988-.849-.346-.029-.602-.332-.572-.678.029-.344.345-.593.678-.572 3.336.282 6.666.564 9.99.849.345.029.601.333.571.679C741.846 364.437 741.572 364.683 741.25 364.683zM721.245 362.992c-.018 0-.035-.001-.053-.002l-10.038-.844c-.346-.029-.602-.332-.572-.678.029-.344.343-.598.678-.572l10.038.845c.345.028.602.332.572.678C721.843 362.744 721.568 362.992 721.245 362.992zM701.201 361.296c-.018 0-.036-.001-.055-.002-3.341-.288-6.677-.579-10.004-.874-.346-.031-.601-.336-.57-.68.031-.347.328-.579.681-.57 3.327.295 6.662.586 10.001.874.345.029.601.333.571.679C701.798 361.049 701.524 361.296 701.201 361.296zM681.196 359.515c-.02 0-.039-.001-.059-.002-3.344-.31-6.678-.626-10-.949-.345-.034-.598-.341-.564-.685.033-.346.33-.592.685-.565 3.319.322 6.652.639 9.995.949.345.032.599.338.567.683C681.79 359.271 681.517 359.515 681.196 359.515zM661.208 357.562c-.021 0-.044-.001-.065-.004-3.348-.347-6.679-.702-9.989-1.069-.344-.038-.593-.348-.555-.693.039-.343.345-.592.693-.555 3.307.367 6.635.722 9.981 1.069.344.036.595.343.559.689C661.798 357.322 661.526 357.562 661.208 357.562zM641.247 355.344c-.025 0-.05-.001-.075-.005-3.349-.401-6.674-.815-9.971-1.245-.343-.045-.586-.36-.541-.704.045-.344.359-.593.704-.542 3.292.43 6.612.845 9.957 1.245.344.04.59.353.548.697C641.831 355.11 641.56 355.344 641.247 355.344zM621.333 352.741c-.029 0-.059-.002-.089-.006-3.349-.479-6.663-.976-9.94-1.492-.343-.054-.577-.375-.523-.718.055-.342.375-.57.718-.522 3.272.516 6.58 1.012 9.922 1.489.343.049.582.366.533.71C621.909 352.515 621.641 352.741 621.333 352.741zM601.498 349.605c-.036 0-.072-.002-.109-.01-3.383-.592-6.709-1.207-9.885-1.829-.34-.066-.562-.396-.496-.736.066-.341.397-.57.736-.495 3.169.619 6.487 1.233 9.862 1.824.341.059.569.385.51.726C602.062 349.391 601.797 349.605 601.498 349.605zM581.793 345.741c-.045 0-.09-.005-.135-.015-3.339-.734-6.633-1.505-9.791-2.292-.336-.085-.541-.424-.457-.761.083-.337.42-.542.761-.457 3.146.785 6.429 1.553 9.757 2.285.338.075.553.409.478.748C582.341 345.541 582.081 345.741 581.793 345.741zM562.32 340.865c-.057 0-.115-.007-.172-.024-3.337-.952-6.573-1.945-9.617-2.951-.329-.109-.508-.463-.399-.793.108-.33.463-.512.792-.398 3.029 1 6.248 1.988 9.568 2.937.333.094.526.442.431.776C562.845 340.685 562.593 340.865 562.32 340.865zM543.281 334.552c-.075 0-.152-.014-.226-.042-3.218-1.243-6.338-2.557-9.272-3.904-.315-.145-.453-.517-.309-.832.145-.314.518-.456.832-.308 2.911 1.336 6.006 2.639 9.2 3.872.323.125.484.489.359.811C543.77 334.4 543.533 334.552 543.281 334.552zM525.116 326.141c-.104 0-.208-.026-.306-.08-3.035-1.696-5.904-3.487-8.527-5.322-.284-.2-.353-.591-.154-.875s.59-.353.874-.153c2.589 1.81 5.422 3.579 8.42 5.254.302.169.411.552.241.854C525.549 326.026 525.336 326.141 525.116 326.141zM508.852 314.65c-.151 0-.303-.054-.423-.164-2.553-2.33-4.858-4.791-6.852-7.315-.215-.271-.169-.665.103-.881.273-.213.667-.167.881.104 1.952 2.47 4.211 4.881 6.714 7.165.256.234.275.63.04.886C509.191 314.581 509.022 314.65 508.852 314.65zM496.652 299.035c-.228 0-.447-.124-.559-.341-.134-.26-.265-.522-.394-.784-1.415-2.874-2.5-5.801-3.226-8.699-.085-.336.12-.677.456-.761.336-.08.678.12.761.457.705 2.81 1.759 5.654 3.135 8.448.126.255.254.51.385.765.158.308.037.686-.271.845C496.846 299.013 496.748 299.035 496.652 299.035zM491.971 279.754c-.006 0-.012 0-.017 0-.346-.01-.62-.298-.611-.643.086-3.307.628-6.657 1.611-9.957.099-.331.448-.517.78-.423.332.099.522.449.422.781-.951 3.195-1.475 6.436-1.558 9.631C492.589 279.483 492.31 279.754 491.971 279.754zM497.457 260.799c-.103 0-.207-.026-.304-.078-.303-.169-.413-.55-.244-.853 1.549-2.792 3.446-5.609 5.638-8.371.215-.272.61-.317.881-.102.271.216.317.61.102.881-2.149 2.71-4.008 5.469-5.524 8.2C497.892 260.682 497.678 260.799 497.457 260.799zM509.749 245.083c-.162 0-.324-.062-.447-.187-.243-.246-.241-.643.006-.887 2.281-2.248 4.808-4.509 7.512-6.72.267-.221.662-.181.883.088.219.268.18.663-.089.883-2.674 2.188-5.172 4.422-7.425 6.644C510.067 245.023 509.908 245.083 509.749 245.083zM525.213 232.348c-.197 0-.392-.093-.514-.266-.2-.283-.132-.675.152-.875 2.644-1.862 5.472-3.727 8.404-5.544.294-.183.682-.092.863.202.183.295.092.681-.203.864-2.912 1.804-5.718 3.656-8.343 5.504C525.463 232.311 525.337 232.348 525.213 232.348zM542.241 221.751c-.221 0-.434-.116-.549-.322-.169-.304-.059-.685.244-.854 2.849-1.581 5.842-3.162 8.896-4.697.313-.159.687-.031.843.278.156.31.031.686-.279.842-3.039 1.528-6.017 3.101-8.85 4.675C542.449 221.725 542.344 221.751 542.241 221.751zM560.16 212.72c-.238 0-.465-.136-.571-.365-.145-.315-.007-.688.308-.832 2.986-1.371 6.082-2.734 9.203-4.051.319-.131.688.015.822.335.134.32-.015.688-.335.822-3.108 1.31-6.193 2.668-9.167 4.034C560.337 212.702 560.248 212.72 560.16 212.72zM578.644 204.906c-.251 0-.488-.152-.585-.4-.126-.324.034-.686.357-.813 3.077-1.199 6.243-2.386 9.411-3.53.329-.112.686.053.803.378.118.326-.051.686-.378.804-3.158 1.139-6.314 2.323-9.381 3.518C578.797 204.893 578.72 204.906 578.644 204.906zM597.518 198.083c-.262 0-.507-.165-.595-.428-.11-.328.067-.685.395-.794 3.127-1.049 6.344-2.09 9.561-3.092.333-.104.683.081.786.413.103.331-.082.683-.413.786-3.209 1-6.417 2.037-9.536 3.083C597.652 198.073 597.585 198.083 597.518 198.083zM616.677 192.106c-.272 0-.523-.178-.603-.452-.096-.333.096-.682.428-.778 3.168-.918 6.423-1.829 9.677-2.705.33-.09.679.108.769.442s-.108.679-.442.768c-3.246.875-6.494 1.783-9.654 2.7C616.794 192.098 616.735 192.106 616.677 192.106zM636.054 186.878c-.281 0-.537-.19-.608-.476-.084-.336.12-.676.456-.761 3.24-.811 6.525-1.604 9.765-2.357.336-.078.675.131.753.469.079.338-.131.675-.469.754-3.233.75-6.511 1.542-9.744 2.352C636.156 186.872 636.105 186.878 636.054 186.878zM655.601 182.331c-.289 0-.55-.201-.613-.495-.073-.339.143-.673.482-.746 3.258-.7 6.538-1.378 9.837-2.032.338-.069.67.154.737.493.068.341-.153.671-.493.738-3.292.655-6.566 1.33-9.818 2.03C655.689 182.326 655.645 182.331 655.601 182.331zM675.288 178.427c-.297 0-.562-.212-.616-.515-.063-.342.164-.668.505-.731 3.284-.597 6.584-1.172 9.895-1.721.349-.065.666.175.722.516.057.342-.174.665-.516.722-3.306.549-6.599 1.122-9.877 1.718C675.363 178.424 675.325 178.427 675.288 178.427zM695.06 175.145c-.306 0-.573-.223-.62-.534-.052-.343.185-.662.528-.713 3.301-.496 6.611-.968 9.929-1.416.351-.064.659.194.706.538.046.343-.195.659-.538.705-3.311.447-6.615.919-9.91 1.413C695.123 175.142 695.091 175.145 695.06 175.145zM714.93 172.466c-.314 0-.585-.234-.623-.553-.041-.344.205-.657.549-.697 3.325-.397 6.655-.768 9.988-1.114.349-.037.653.214.689.559.036.344-.215.653-.559.689-3.326.346-6.651.717-9.97 1.112C714.98 172.464 714.954 172.466 714.93 172.466zM734.913 170.394c-.322 0-.596-.246-.624-.572-.031-.346.225-.65.57-.68 3.348-.294 6.695-.561 10.039-.804.344-.034.646.235.671.581.025.346-.235.646-.58.672-3.338.24-6.679.507-10.02.802C734.95 170.393 734.931 170.394 734.913 170.394zM754.957 168.95c-.33 0-.607-.259-.626-.593-.02-.346.245-.641.591-.661 3.351-.186 6.696-.347 10.033-.478.33.004.639.256.651.603.013.346-.256.637-.602.652-3.33.131-6.669.289-10.012.476C754.98 168.95 754.969 168.95 754.957 168.95zM805.102 168.334c-.007 0-.015 0-.022 0-3.281-.113-6.65-.195-10.013-.244-.346-.005-.623-.29-.618-.636.005-.347.265-.585.637-.619 3.371.049 6.749.131 10.038.244.346.012.618.303.605.65C805.716 168.067 805.438 168.334 805.102 168.334zM775.009 168.168c-.341 0-.62-.272-.628-.614-.007-.346.267-.634.614-.641 3.369-.073 6.75-.118 10.05-.131.001 0 .002 0 .002 0 .346 0 .626.279.628.625.001.347-.278.629-.625.63-3.292.013-6.666.058-10.028.131C775.019 168.168 775.014 168.168 775.009 168.168zM820.741 169.126c-.014 0-.028 0-.043-.001-1.661-.112-3.328-.214-5.001-.31-.346-.02-.611-.316-.591-.662.02-.347.315-.64.662-.591 1.677.096 3.349.199 5.014.31.346.023.607.322.584.668C821.344 168.872 821.068 169.126 820.741 169.126z"/><path fill="#30334D" d="M708.832 258.973c-1.84-6.459-6.719-11.604-12.901-14.133-3.483-1.424-7.293-2.098-11.05-1.904-.242.012-.245.384 0 .378 6.436-.164 12.87 2.069 17.457 6.673 4.409 4.425 6.658 10.991 5.876 17.191-.487 3.856-2.252 7.146-4.631 10.15-.142.179.076.408.254.254C709.015 273.097 710.662 265.394 708.832 258.973zM743.48 327.603c-.695-2.451-2.107-4.664-4.015-6.348-.984-.868-2.125-1.496-3.183-2.263-1.23-.89-2.091-2.007-2.469-3.492-.781-3.066.36-6.208.477-9.285.099-2.6-.336-5.32-1.555-7.641-2.207-4.199-6.591-6.019-10.96-7.113-4.883-1.224-10.429-1.862-14.268-5.462-.157-.148-.371.073-.234.234 2.834 3.32 7.129 4.361 11.213 5.327 4.121.975 8.741 1.888 11.707 5.179 1.799 1.995 2.724 4.682 2.95 7.329.253 2.976-.619 5.824-.68 8.779-.054 2.623.74 5.072 2.873 6.705 1.052.804 2.246 1.403 3.286 2.223.995.785 1.841 1.755 2.518 2.825 1.596 2.519 2.263 5.584 1.704 8.526-.575 3.026-2.304 5.447-4.426 7.599-.185.187.05.496.281.364C743.177 338.523 744.828 332.353 743.48 327.603z"/><path fill="#30334D" d="M603.256,453.472c-19.052-16.532-18.517-42.448,9.082-65c34.898-30.222-7.264-58.901,31.669-95.668
	c5.335-11.955-3.274-29.312,7.99-38.806c5.715-4.53,14.183-3.49,20.511-7.114c7.608-6.204,18.766-5.99,27.34,2.438
	c7.584,7.457,7.671,22.366,5.371,27.943c-3.69,8.95,17.435,10.877,21.572,19.704c5.234,11.172-3.243,18.066,6.932,25.044
	c22.082,15.143,3.234,16.565-8.618,41.801c10.442,40.019-10.087,19.801-16.377,50.475c7.974,23.307,22.669,42.179,0.463,60.719
	c-19.128,21.529-28.285-18.463-53.028-15.705C625.234,462.749,611.57,460.687,603.256,453.472z"/><path fill="#F7C1CE" d="M680.842,716.335c5.758-1.994-13.845-37.778-6.75-38.101c2.577-0.113,5.312-0.302,8.203-0.57
	c67.015-6.096,214.405-50.751,195.678-133.36c-13.302-58.666-107.206-79.84-129.904-84.142l-1.195-0.205l-1.787-0.323l-1.243-0.211
	l-0.708-0.122l-63.427,15.662c1.087,26.59,10.459,44.434,23.327,56.732c31.865,30.503,85.071,27.011,85.916,38.858
	c2.253,31.35-77.05,67.429-115.518,79.081c0,0-0.288,0.031-0.808,0.119c-3.346,0.54-16.218,3.069-22.144,11.274
	C643.661,670.485,675.084,718.329,680.842,716.335z"/><path fill="#3A67B3" d="M672.627,649.755l9.669,27.909c67.015-6.096,214.405-50.751,195.678-133.36
	c-13.302-58.666-107.206-79.84-129.904-84.142l-1.195-0.205l-1.787-0.323l-1.243-0.211l-0.708-0.122l-40.1,72.394
	c2.641,2.527,5.439,4.839,8.344,6.931c32.006,23.087,76.793,21.066,77.572,31.927c2.253,31.35-77.05,67.429-115.518,79.081
	C673.435,649.636,673.147,649.666,672.627,649.755z"/><path fill="#325899" d="M672.627,649.755l3.195,9.222c11.177-3.047,24.386-6.521,39.97-10.496
	c88.775-22.654,109.811-75.305,98.315-96.826c-15.312-28.665-61.502-20.722-81.35-50.568c0,0-7.504,27.365-21.376,37.539
	c32.006,23.087,76.793,21.066,77.572,31.927c2.253,31.35-77.05,67.429-115.518,79.081
	C673.435,649.636,673.147,649.666,672.627,649.755z"/><path fill="#F7C1CE" d="M660.345,858.432c2.593,8.281,30.828,55.005,39.254,49.515c8.419-5.51-14.382-46.083-13.387-53.749
	c0.56-4.28,1.962-8.048,3.092-10.55c0.903-1.966,1.624-3.134,1.624-3.134s30.287-34.406,56.065-75.399
	c14.968-23.776,28.421-49.803,33.55-72.557c14.313-63.689-37.406-233.257-37.406-233.257L690.514,472.3l-10.044,2.469l-0.76,0.194
	c-9.065,14.845-14.445,29.125-17.114,42.948c-0.123,0.639-0.233,1.252-0.356,1.891c-11.612,65.989,38.267,120.73,43.43,170.282
	c4.307,41.518-34.97,144.38-34.97,144.38s-0.209,0.256-0.561,0.699c-0.284,0.374-0.669,0.853-1.12,1.468
	c-1.75,2.373-4.546,6.418-6.549,10.645C660.582,851.235,659.389,855.342,660.345,858.432z"/><path fill="#3A67B3" d="M667.618,836.037l1.4,0.594l5.494,2.343l15.084,7.128c2.407-5.013,28.275-36.06,57.397-80.986
	c15.541-23.974,29.547-50.194,35.005-73.06c15.214-64.002-36.341-233.627-36.341-233.627l-55.452,13.84l-9.676,2.411
	c-0.014,0.028-0.048,0.062-0.06,0.089c-9.401,14.937-15.007,29.296-17.874,43.142c-0.123,0.639-0.233,1.252-0.356,1.891
	c-12.472,66.288,38.184,120.759,43.04,170.417c4.062,41.604-37.08,145.111-37.08,145.111S667.97,835.593,667.618,836.037z"/><path fill="#325899" d="M674.512,838.974c13.481-30.514,55.563-112.076,54.445-139.307c-1.739-42.316-41.099-106.644-47.944-151.576
	c-4.438-29.135,14.769-75.229,14.769-75.229l-5.268-0.562l-0.309-0.031l-9.676,2.411c-0.014,0.028-0.048,0.062-0.06,0.089
	l-0.76,0.194c-9.065,14.845-14.445,29.125-17.114,42.948c-0.123,0.639-0.233,1.252-0.356,1.891
	c-12.472,66.288,38.184,120.759,43.04,170.417c4.062,41.604-37.08,145.111-37.08,145.111s-0.23,0.262-0.582,0.707L674.512,838.974z"/><path fill="#30334D" d="M658.929,654.145c-12.448,1.196-12.956,13.801-17,19.708c-0.657,0.96-0.779,2.188-0.295,3.245l2.742,5.985
	c0.521,1.139,1.642,1.884,2.894,1.925l0.15,0.006c1.506,0.049,2.796,1.057,3.204,2.507c4.241,15.087,18.334,39.529,26.805,38.848
	c7.51-0.604,2.548-23.1,2.548-23.1C667.243,704.413,663.584,685.368,658.929,654.145z"/><path fill="#F7C1CE" d="M681.583,307.246l4.564,24.385l-10.09,6.389c-42.888-31.388-74.693-50.184-96.491-91.976
	c-2.294-4.369-4.454-9.014-6.529-13.941c-4.937-15.114-14.186-30.504-18.048-27.535c-5.015,3.802,3.04,16.167-0.552,14.721
	c-9.411-3.789-19.635-24.494-24.73-17.617c-7.999,10.798-0.796,33.305,23.89,39.195c3.416,0.815,6.48,8.28,7.259,11.659
	c13.119,57.216,48.715,101.596,96.998,137.358l-0.192,0.57c0,0,15.136,19.245,20.563,44.057c2.695,12.218,1.484,40.454,1.484,40.454
	l63.427-15.662c0,0,15.051-52.814,10.455-71.579c0.213,0.019,47.263,1.345,78.826-16.589c20.493-11.667,27.814-72.043,27.814-72.043
	c16.467-13.73-1.768-25.411,4.832-28.609c7.702-3.732,12.082-6.386,12.038-8.253c-0.074-3.172-9.335-1.54-23.045,5.355
	c-7.245,3.643-10.702,29.12-10.702,29.12s-10.867,28.321-26.906,36.151c-17.423,8.468-51.74,3.488-95.114,2.035l-11.053-3.883
	l-7.096-21.796L681.583,307.246z"/><path fill="#FFBC47" d="M618.047,355.201c0.972,1.018,1.957,2.007,2.949,3.017c11.181,11.275,23.527,21.801,36.859,31.665
	l-0.192,0.57c0,0,15.136,19.245,20.563,44.057c1.745,7.887,0.253,24.447-1.007,35.188c-0.474,3.996,3.411,7.195,7.181,5.821
	c3.763-1.395,7.546-2.201,11.382-2.657c18.326-2.219,37.498,3.372,60.535-10.69c1.689-1.022,2.737-2.83,2.673-4.804
	c-0.253-11.664-1.458-53.567-5.399-69.645c0,0,0.047,0.006,0.144,0.019c2.752,0.057,48.017,0.808,78.682-16.608
	c0.443-0.246,0.859-0.504,1.288-0.79c19.419-12.444,26.889-48.883,28.192-64.137l-21.602-7.483
	c-2.419,7.194-7.809,26.3-23.847,34.13c-17.423,8.468-51.74,3.488-95.114,2.035l-11.053-3.883l-24.135,0.626l-10.09,6.389
	c-42.888-31.388-74.693-50.184-96.491-91.976l-18.709,6.481C570.043,292.557,590.226,326.305,618.047,355.201z"/><path fill="#E39E24" d="M753.591 387.722c0 0 .047.006.144.019 2.789.057 49.313.83 79.982-17.362-34.868 7.116-40.479 7.319-43.57 7.404-13.707-.036-28.758-3-41.754-10.397l-12.393-7.055C751.166 376.812 753.591 387.722 753.591 387.722zM677.219 469.698c-.474 3.996 3.411 7.195 7.181 5.821 3.763-1.395 7.546-2.201 11.382-2.657 1.263-10.399 2.217-27.186-1.627-43.319-6.176-25.975-23.341-49.291-23.341-49.291l-49.818-22.034c11.181 11.275 23.527 21.801 36.859 31.665l-.192.57c0 0 15.136 19.245 20.563 44.057C679.971 442.397 678.479 458.957 677.219 469.698z"/><path fill="#30334D" d="M664.1,844.148c-9.915,6.906-6.256,14.156-9.185,20.687c-0.475,1.06-0.378,2.292,0.286,3.244l3.764,5.403
	c0.717,1.028,1.953,1.563,3.192,1.379l0.148-0.021c1.49-0.22,2.94,0.542,3.599,1.896c6.858,14.093,25.076,35.634,33.291,33.457
	c7.282-1.931-1.603-23.184-1.603-23.184C685.265,890.401,674.238,874.044,664.1,844.148z"/><path fill="#F7C1CE" d="M687.665,257.092c0,0-0.626,27.981-14.287,33.676c0,0-7.512-7.035-11.282-1.953
	c-3.772,5.082,5.485,13.79,5.485,13.79c11.315,11.944,47.489,18.675,45.822-4.52C711.563,272.508,687.665,257.092,687.665,257.092z"/><path fill="#30334D" d="M656.884 255.12c-.067 0-.067.104 0 .104C656.951 255.224 656.951 255.12 656.884 255.12zM658.453 459.157c-2.962-.286-5.98-.065-8.941.17-2.934.234-5.838.591-8.754.992-5.679.781-11.387 1.548-17.129 1.566-5.439.017-10.978-.678-16.012-2.835-4.862-2.084-9.016-5.483-12.543-9.382-6.792-7.51-12.085-17.904-10.025-28.279 1.932-9.732 9.623-17.102 17.202-22.882 7.801-5.951 16.37-11.152 22.274-19.182.724-.984 1.369-1.995 1.948-3.07.114-.211-.185-.38-.318-.186-2.943 4.309-6.489 7.951-10.543 11.224-4.023 3.247-8.304 6.148-12.479 9.191-7.78 5.671-15.704 12.567-18.66 22.072-3.171 10.196.872 20.892 7.155 29.006 3.225 4.165 7.108 7.952 11.636 10.68 4.653 2.803 9.938 4.215 15.319 4.692 5.653.501 11.318-.02 16.922-.777 3.015-.408 6.017-.909 9.03-1.326 3.113-.431 6.226-.932 9.367-1.105 1.517-.083 3.034-.126 4.55-.209C658.686 459.503 658.681 459.179 658.453 459.157z"/><path fill="#30334D" d="M671.498,247.7c-9.315-0.188-20.41,0.691-26.698,8.558c-3.026,3.787-3.878,8.598-3.398,13.336
	c0.546,5.394,2.48,10.587,2.754,16.009c0.147,2.909-0.311,5.787-1.498,8.455c-0.559,1.256-1.249,2.452-2.026,3.585
	c-0.796,1.16-1.637,2.365-2.565,3.421c-0.259,0.295,0.146,0.71,0.435,0.434c0.853-0.816,1.705-1.58,2.432-2.514
	c0.721-0.926,1.385-1.893,1.969-2.91c1.138-1.982,1.999-4.165,2.353-6.43c0.822-5.252-0.823-10.508-1.877-15.605
	c-1.014-4.906-1.73-10.37,0.677-14.998c2.03-3.903,5.759-6.658,9.78-8.271c5.626-2.256,11.708-2.276,17.661-2.672
	C671.75,248.08,671.755,247.705,671.498,247.7z"/><path fill="#FCCACF" d="M984.532,542.62H851.524c-6.114,0-11.071-4.956-11.071-11.07v-59.792c0-6.114,4.956-11.071,11.071-11.071
	h133.008c6.114,0,11.071,4.957,11.071,11.071v59.792C995.603,537.664,990.646,542.62,984.532,542.62z"/><path fill="#FFF" d="M854.94 501.654c0-3.307 2.681-5.988 5.988-5.988s5.987 2.681 5.987 5.988c0 3.307-2.681 5.987-5.987 5.987S854.94 504.96 854.94 501.654zM878.802 501.654c0-3.307 2.681-5.988 5.987-5.988 3.307 0 5.988 2.681 5.988 5.988 0 3.307-2.681 5.987-5.988 5.987C881.483 507.641 878.802 504.96 878.802 501.654zM902.665 501.654c0-3.307 2.681-5.988 5.988-5.988 3.307 0 5.987 2.681 5.987 5.988 0 3.307-2.681 5.987-5.987 5.987C905.345 507.641 902.665 504.96 902.665 501.654zM926.527 501.654c0-3.307 2.681-5.988 5.988-5.988 3.307 0 5.987 2.681 5.987 5.988 0 3.307-2.681 5.987-5.987 5.987C929.208 507.641 926.527 504.96 926.527 501.654zM950.39 501.654c0-3.307 2.681-5.988 5.987-5.988 3.307 0 5.988 2.681 5.988 5.988 0 3.307-2.681 5.987-5.988 5.987C953.07 507.641 950.39 504.96 950.39 501.654zM974.252 501.654c0-3.307 2.681-5.988 5.988-5.988 3.307 0 5.987 2.681 5.987 5.988 0 3.307-2.681 5.987-5.987 5.987C976.933 507.641 974.252 504.96 974.252 501.654z"/><path fill="#C9E3FF" d="M969.169,293.294H836.16c-6.114,0-11.07-4.956-11.07-11.07v-59.792c0-6.114,4.956-11.07,11.07-11.07h133.008
	c6.114,0,11.07,4.956,11.07,11.07v59.792C980.239,288.338,975.283,293.294,969.169,293.294z"/><path fill="#FFF" d="M832.723 253.774l7.199-.451c.156 1.169.474 2.06.953 2.672.779.991 1.893 1.487 3.341 1.487 1.08 0 1.912-.253 2.497-.76.585-.507.878-1.094.878-1.763 0-.635-.279-1.203-.836-1.704-.557-.501-1.848-.975-3.875-1.42-3.319-.746-5.685-1.737-7.099-2.973-1.425-1.236-2.138-2.812-2.138-4.727 0-1.258.365-2.447 1.094-3.566.73-1.119 1.826-1.999 3.291-2.639 1.464-.64 3.472-.961 6.022-.961 3.129 0 5.515.582 7.157 1.746 1.642 1.164 2.62 3.015 2.932 5.554l-7.133.417c-.19-1.102-.588-1.904-1.194-2.405-.607-.501-1.445-.752-2.514-.752-.879 0-1.542.187-1.988.56-.445.373-.668.827-.668 1.361 0 .389.184.741.551 1.052.357.323 1.203.624 2.539.902 3.307.713 5.676 1.433 7.108 2.163 1.43.73 2.472 1.634 3.124 2.714.651 1.081.977 2.289.977 3.625 0 1.57-.435 3.018-1.303 4.343-.869 1.325-2.082 2.33-3.642 3.016-1.559.685-3.524 1.027-5.896 1.027-4.165 0-7.049-.802-8.653-2.405C833.842 258.284 832.934 256.247 832.723 253.774zM858.547 237.388h6.799v4.627h-6.799V237.388zM858.547 244.136h6.799v17.739h-6.799V244.136zM882.033 244.136h6.364v16.754l.017.785c0 1.113-.237 2.174-.71 3.182-.474 1.008-1.102 1.824-1.887 2.447-.786.624-1.782 1.075-2.99 1.353-1.208.278-2.592.418-4.151.418-3.564 0-6.01-.535-7.341-1.604-1.331-1.069-1.997-2.5-1.997-4.293 0-.223.012-.524.033-.902l6.599.752c.167.612.423 1.036.768 1.27.501.345 1.13.517 1.887.517.98 0 1.713-.262 2.197-.785.485-.523.726-1.437.726-2.739v-2.69c-.668.791-1.336 1.364-2.004 1.72-1.046.557-2.177.836-3.391.836-2.372 0-4.287-1.036-5.746-3.107-1.036-1.469-1.554-3.413-1.554-5.829 0-2.762.668-4.866 2.004-6.314 1.336-1.447 3.084-2.171 5.245-2.171 1.381 0 2.52.234 3.416.702.897.467 1.734 1.242 2.514 2.322V244.136zM875.635 252.739c0 1.281.273 2.23.818 2.848.546.618 1.264.927 2.155.927.846 0 1.556-.32 2.13-.96.573-.64.86-1.606.86-2.898 0-1.291-.3-2.28-.902-2.965-.601-.685-1.336-1.027-2.205-1.027s-1.561.315-2.08.944C875.894 250.236 875.635 251.28 875.635 252.739zM892.505 244.136h6.331v2.89c.947-1.18 1.905-2.024 2.873-2.53.969-.507 2.149-.76 3.541-.76 1.882 0 3.354.56 4.418 1.679 1.063 1.119 1.595 2.848 1.595 5.186v11.275h-6.832v-9.755c0-1.113-.206-1.902-.618-2.364-.412-.462-.991-.693-1.737-.693-.825 0-1.493.312-2.005.935-.512.624-.768 1.743-.768 3.357v8.519h-6.798V244.136zM943.118 237.388h7.551v14.59c0 1.446-.226 2.812-.677 4.098-.451 1.285-1.158 2.409-2.121 3.372-.963.963-1.974 1.639-3.032 2.028-1.47.545-3.235.818-5.295.818-1.192 0-2.492-.084-3.901-.251-1.409-.167-2.586-.498-3.533-.993-.946-.495-1.812-1.199-2.597-2.112-.786-.912-1.323-1.853-1.612-2.821-.467-1.558-.701-2.938-.701-4.14v-14.59h7.55v14.937c0 1.335.37 2.379 1.111 3.129.741.752 1.768 1.127 3.082 1.127 1.303 0 2.324-.37 3.065-1.11.741-.74 1.111-1.788 1.111-3.146V237.388zM955.262 268.624v-24.488h6.364v2.623c.88-1.102 1.687-1.849 2.422-2.238.991-.523 2.088-.786 3.291-.786 2.372 0 4.207.908 5.504 2.723 1.297 1.815 1.946 4.059 1.946 6.732 0 2.951-.708 5.203-2.122 6.757-1.414 1.553-3.201 2.33-5.362 2.33-1.047 0-2.002-.179-2.864-.535-.863-.356-1.635-.885-2.314-1.587v8.469H955.262zM962.077 253.056c0 1.403.295 2.445.885 3.124.59.679 1.336 1.019 2.238 1.019.791 0 1.453-.326 1.988-.977.535-.651.802-1.756.802-3.316 0-1.437-.279-2.492-.836-3.165-.557-.674-1.235-1.01-2.038-1.01-.869 0-1.592.339-2.172 1.019C962.366 250.428 962.077 251.531 962.077 253.056z"/><path fill="#C9E3FF" d="M587.731,231.667H454.723c-6.114,0-11.07-4.956-11.07-11.07v-59.792c0-6.114,4.956-11.07,11.07-11.07
	h133.008c6.114,0,11.07,4.956,11.07,11.07v59.792C598.802,226.71,593.845,231.667,587.731,231.667z"/><path fill="#FFF" d="M540.013 169.802h-20.137c-.436 0-.789-.671-.789-1.499l0 0c0-.828.353-1.499.789-1.499h20.137c.436 0 .789.671.789 1.499l0 0C540.802 169.131 540.449 169.802 540.013 169.802zM575.581 169.802h-31.198c-.436 0-.789-.671-.789-1.499l0 0c0-.828.353-1.499.789-1.499h31.198c.436 0 .789.671.789 1.499l0 0C576.37 169.131 576.017 169.802 575.581 169.802zM587.257 169.802h-6.547c-.379 0-.687-.584-.687-1.304l0 0c0-.72.308-1.304.687-1.304h6.547c.379 0 .687.584.687 1.304l0 0C587.943 169.219 587.636 169.802 587.257 169.802zM587.154 185.288h-67.278c-.436 0-.789-.671-.789-1.498l0 0c0-.828.353-1.499.789-1.499h67.278c.436 0 .789.671.789 1.499l0 0C587.943 184.617 587.59 185.288 587.154 185.288zM540.013 214.595h-20.137c-.436 0-.789-.671-.789-1.498v0c0-.828.353-1.498.789-1.498h20.137c.436 0 .789.671.789 1.499l0 0C540.802 213.924 540.449 214.595 540.013 214.595zM575.581 214.595h-31.198c-.436 0-.789-.671-.789-1.499l0 0c0-.828.353-1.498.789-1.498h31.198c.436 0 .789.671.789 1.498l0 0C576.37 213.924 576.017 214.595 575.581 214.595zM553.355 199.109h-33.478c-.436 0-.789-.671-.789-1.499l0 0c0-.828.353-1.499.789-1.499h33.478c.436 0 .789.671.789 1.499l0 0C554.144 198.438 553.791 199.109 553.355 199.109zM587.154 199.109h-25.777c-.436 0-.789-.671-.789-1.499l0 0c0-.828.353-1.499.789-1.499h25.777c.436 0 .789.671.789 1.499l0 0C587.943 198.438 587.59 199.109 587.154 199.109zM587.257 214.595h-6.547c-.379 0-.687-.584-.687-1.304l0 0c0-.72.308-1.304.687-1.304h6.547c.379 0 .687.584.687 1.304l0 0C587.943 214.011 587.636 214.595 587.257 214.595z"/><circle cx="482.178" cy="189.485" r="29.304" fill="#FFF" transform="rotate(-80.613 482.172 189.49)"/><circle cx="481.742" cy="181.196" r="11.376" fill="#C9E3FF" transform="rotate(-67.5 481.733 181.19)"/><path fill="#C9E3FF" d="M492.176 192.664c-.916-.715-2.195-.69-3.095.044-1.958 1.597-4.461 2.56-7.191 2.56-2.641 0-5.071-.899-6.998-2.412-.918-.72-2.218-.705-3.104.054-2.295 1.968-3.693 4.806-3.693 8.495v.333c0 1.908 1.547 3.454 3.454 3.454h21.259c1.908 0 3.454-1.546 3.454-3.454v-.333C496.262 197.558 494.701 194.636 492.176 192.664zM528.067 616.921H381.132c-7.033 0-12.735-5.702-12.735-12.735v-59.267c0-7.033 5.702-12.735 12.735-12.735h146.935c7.033 0 12.735 5.702 12.735 12.735v59.267C540.802 611.219 535.101 616.921 528.067 616.921z"/><path fill="#FFF" d="M496.233 569.005H389.8c-3.026 0-5.479-2.453-5.479-5.479v-1.301c0-3.026 2.453-5.478 5.479-5.478h106.434c3.026 0 5.478 2.453 5.478 5.478v1.301C501.712 566.553 499.259 569.005 496.233 569.005zM496.233 597.219H390.121c-3.026 0-5.478-2.453-5.478-5.479v-1.301c0-3.026 2.453-5.478 5.478-5.478h106.112c3.026 0 5.478 2.453 5.478 5.478v1.301C501.712 594.766 499.259 597.219 496.233 597.219zM525.419 569.005h-12.003c-3.026 0-5.478-2.453-5.478-5.479v-1.301c0-3.026 2.453-5.478 5.478-5.478h12.003c3.026 0 5.479 2.453 5.479 5.478v1.301C530.898 566.553 528.445 569.005 525.419 569.005zM525.419 597.219h-12.003c-3.026 0-5.478-2.453-5.478-5.479v-1.301c0-3.026 2.453-5.479 5.478-5.479h12.003c3.026 0 5.479 2.453 5.479 5.479v1.301C530.898 594.766 528.445 597.219 525.419 597.219z"/><path fill="#C9E3FF" d="M395.623 587.259l.357 2.506c.018.125.147.203.266.159l2.376-.874c.213-.078.37.204.192.344l-1.992 1.562c-.1.078-.102.229-.005.31l1.945 1.621c.174.145.009.423-.202.338l-2.349-.944c-.118-.047-.249.026-.271.151l-.431 2.495c-.039.224-.362.219-.394-.006l-.357-2.506c-.018-.126-.147-.203-.266-.159l-2.376.874c-.213.078-.37-.204-.192-.344l1.992-1.562c.1-.078.102-.229.005-.31l-1.945-1.621c-.174-.145-.009-.423.202-.338l2.349.944c.118.047.249-.026.271-.151l.431-2.495C395.268 587.029 395.591 587.034 395.623 587.259zM406.818 587.259l.357 2.506c.018.125.147.203.266.159l2.376-.874c.213-.078.37.204.192.344l-1.992 1.562c-.1.078-.102.229-.005.31l1.945 1.621c.174.145.009.423-.202.338l-2.349-.944c-.118-.047-.249.026-.271.151l-.431 2.495c-.039.224-.362.219-.394-.006l-.357-2.506c-.018-.126-.147-.203-.266-.159l-2.376.874c-.213.078-.37-.204-.192-.344l1.992-1.562c.1-.078.102-.229.005-.31l-1.945-1.621c-.174-.145-.009-.423.202-.338l2.349.944c.118.047.249-.026.271-.151l.431-2.495C406.463 587.029 406.786 587.034 406.818 587.259zM418.013 587.259l.357 2.506c.018.125.147.203.266.159l2.376-.874c.213-.078.37.204.192.344l-1.992 1.562c-.1.078-.102.229-.005.31l1.945 1.621c.174.145.009.423-.202.338l-2.349-.944c-.118-.047-.249.026-.271.151l-.431 2.495c-.039.224-.362.219-.394-.006l-.357-2.506c-.018-.126-.147-.203-.266-.159l-2.376.874c-.213.078-.37-.204-.192-.344l1.992-1.562c.1-.078.102-.229.005-.31l-1.945-1.621c-.174-.145-.009-.423.202-.338l2.349.944c.118.047.249-.026.271-.151l.431-2.495C417.658 587.029 417.981 587.034 418.013 587.259zM429.207 587.259l.357 2.506c.018.125.147.203.266.159l2.376-.874c.213-.078.37.204.192.344l-1.992 1.562c-.1.078-.102.229-.005.31l1.945 1.621c.174.145.009.423-.202.338l-2.349-.944c-.118-.047-.249.026-.271.151l-.431 2.495c-.039.224-.362.219-.394-.006l-.357-2.506c-.018-.126-.147-.203-.266-.159l-2.376.874c-.213.078-.37-.204-.192-.344l1.992-1.562c.1-.078.102-.229.005-.31l-1.945-1.621c-.174-.145-.009-.423.202-.338l2.349.944c.118.047.249-.026.271-.151l.431-2.495C428.852 587.029 429.175 587.034 429.207 587.259zM440.402 587.259l.357 2.506c.018.125.147.203.266.159l2.376-.874c.213-.078.37.204.192.344l-1.992 1.562c-.1.078-.102.229-.005.31l1.945 1.621c.174.145.009.423-.202.338l-2.349-.944c-.118-.047-.249.026-.271.151l-.431 2.495c-.039.224-.362.219-.394-.006l-.357-2.506c-.018-.126-.147-.203-.266-.159l-2.376.874c-.213.078-.37-.204-.192-.344l1.992-1.562c.1-.078.102-.229.005-.31l-1.945-1.621c-.174-.145-.009-.423.202-.338l2.349.944c.118.047.249-.026.271-.151l.431-2.495C440.047 587.029 440.37 587.034 440.402 587.259zM393.049 562.876c0-.794.644-1.437 1.438-1.437.794 0 1.437.644 1.437 1.437 0 .794-.644 1.438-1.437 1.438C393.692 564.314 393.049 563.67 393.049 562.876zM397.69 562.876c0-.794.644-1.437 1.438-1.437.794 0 1.437.644 1.437 1.437 0 .794-.644 1.438-1.437 1.438C398.334 564.314 397.69 563.67 397.69 562.876zM402.332 562.876c0-.794.643-1.437 1.437-1.437.794 0 1.437.644 1.437 1.437 0 .794-.643 1.438-1.437 1.438C402.976 564.314 402.332 563.67 402.332 562.876zM406.974 562.876c0-.794.644-1.437 1.437-1.437.794 0 1.438.644 1.438 1.437 0 .794-.644 1.438-1.438 1.438C407.617 564.314 406.974 563.67 406.974 562.876zM411.615 562.876c0-.794.644-1.437 1.437-1.437.794 0 1.438.644 1.438 1.437 0 .794-.644 1.438-1.438 1.438C412.259 564.314 411.615 563.67 411.615 562.876zM416.257 562.876c0-.794.644-1.437 1.438-1.437.794 0 1.437.644 1.437 1.437 0 .794-.644 1.438-1.437 1.438C416.901 564.314 416.257 563.67 416.257 562.876zM420.899 562.876c0-.794.643-1.437 1.437-1.437.794 0 1.437.644 1.437 1.437 0 .794-.643 1.438-1.437 1.438C421.542 564.314 420.899 563.67 420.899 562.876zM425.54 562.876c0-.794.644-1.437 1.437-1.437.794 0 1.438.644 1.438 1.437 0 .794-.644 1.438-1.438 1.438C426.184 564.314 425.54 563.67 425.54 562.876z"/><path fill="#FCCACF" d="M837.459,130.319H704.451c-6.114,0-11.07-4.956-11.07-11.07V59.457c0-6.114,4.956-11.07,11.07-11.07h133.008
	c6.114,0,11.07,4.956,11.07,11.07v59.792C848.529,125.363,843.573,130.319,837.459,130.319z"/><path fill="#FFF" d="M746.643 68.455H708.4c-.828 0-1.499-.671-1.499-1.499l0 0c0-.828.671-1.499 1.499-1.499h38.243c.828 0 1.499.671 1.499 1.499l0 0C748.142 67.784 747.471 68.455 746.643 68.455zM814.193 68.455h-59.251c-.828 0-1.499-.671-1.499-1.499l0 0c0-.828.671-1.499 1.499-1.499h59.251c.828 0 1.499.671 1.499 1.499l0 0C815.691 67.784 815.02 68.455 814.193 68.455zM836.367 68.455h-12.433c-.72 0-1.304-.584-1.304-1.304l0 0c0-.72.584-1.304 1.304-1.304h12.433c.72 0 1.304.584 1.304 1.304l0 0C837.671 67.871 837.087 68.455 836.367 68.455zM836.172 83.941H708.4c-.828 0-1.499-.671-1.499-1.498l0 0c0-.828.671-1.499 1.499-1.499h127.772c.828 0 1.499.671 1.499 1.499l0 0C837.671 83.27 837 83.941 836.172 83.941zM746.643 113.248H708.4c-.828 0-1.499-.671-1.499-1.498v0c0-.828.671-1.498 1.499-1.498h38.243c.828 0 1.499.671 1.499 1.499l0 0C748.142 112.577 747.471 113.248 746.643 113.248zM814.193 113.248h-59.251c-.828 0-1.499-.671-1.499-1.499l0 0c0-.828.671-1.498 1.499-1.498h59.251c.828 0 1.499.671 1.499 1.498l0 0C815.691 112.577 815.02 113.248 814.193 113.248zM771.981 97.762H708.4c-.828 0-1.499-.671-1.499-1.499l0 0c0-.828.671-1.499 1.499-1.499h63.581c.828 0 1.499.671 1.499 1.499l0 0C773.48 97.091 772.809 97.762 771.981 97.762zM836.172 97.762h-48.955c-.828 0-1.499-.671-1.499-1.499l0 0c0-.828.671-1.499 1.499-1.499h48.955c.828 0 1.499.671 1.499 1.499l0 0C837.671 97.091 837 97.762 836.172 97.762zM836.367 113.248h-12.433c-.72 0-1.304-.584-1.304-1.304l0 0c0-.72.584-1.304 1.304-1.304h12.433c.72 0 1.304.584 1.304 1.304l0 0C837.671 112.664 837.087 113.248 836.367 113.248z"/><polygon fill="#2A66A8" points="835.838 171.481 868.204 175.131 859.297 158.162"/><polygon fill="#5C96D6" points="865.398 180.197 908.338 169.944 856.033 164.844"/><polygon fill="#5C96D6" points="908.381 169.895 844.804 136.282 853.306 151.839"/><polygon fill="#3E7ABD" points="908.338 169.944 855.914 164.979 835.838 171.481 853.317 151.599"/><path fill="#D94559" d="M469.811 716.164c.349.564.461 1.244.297 1.914-.216.884-.867 1.564-1.74 1.819l-8.432 2.459c-.874.255-1.788.031-2.445-.598-.656-.629-.92-1.533-.704-2.416l2.086-8.532c.216-.884.867-1.564 1.74-1.818.873-.255 1.787-.031 2.444.598l6.346 6.073C469.563 715.815 469.699 715.984 469.811 716.164zM458.776 720.216c.031.05.064.086.088.109.067.064.251.204.517.126l8.432-2.459c.266-.078.346-.295.368-.385.022-.089.052-.318-.149-.511l-6.346-6.073c-.201-.192-.429-.153-.517-.127-.089.026-.302.115-.368.385l-2.086 8.532C458.672 719.988 458.719 720.124 458.776 720.216zM993.347 396.221c.349.564.461 1.244.297 1.914-.216.884-.867 1.564-1.74 1.819l-8.432 2.459c-.874.255-1.788.031-2.445-.598-.656-.629-.92-1.533-.704-2.416l2.086-8.532c.216-.884.867-1.564 1.74-1.818.873-.255 1.787-.031 2.444.598l6.346 6.073C993.099 395.872 993.235 396.041 993.347 396.221zM982.312 400.273c.031.05.064.086.088.109.067.064.251.204.517.126l8.432-2.459c.266-.078.346-.295.368-.385.022-.089.052-.318-.149-.511l-6.346-6.073c-.201-.192-.429-.152-.517-.126-.089.026-.302.115-.368.384l-2.086 8.532C982.208 400.046 982.255 400.181 982.312 400.273z"/><path fill="#FFB86B" d="M578.919 640.766l3.102-3.102c.704-.704.704-1.846 0-2.55-.704-.704-1.846-.704-2.549 0l-3.102 3.102-3.102-3.102c-.703-.704-1.846-.704-2.549 0-.704.704-.704 1.846 0 2.55l3.102 3.102-3.096 3.096c-.704.704-.704 1.846 0 2.549.352.352.813.528 1.275.528s.923-.176 1.275-.528l3.096-3.096 3.096 3.096c.352.352.813.528 1.275.528s.923-.176 1.275-.528c.704-.704.704-1.845 0-2.549L578.919 640.766zM649.828 113.25l3.102-3.102c.704-.704.704-1.846 0-2.549-.704-.704-1.846-.704-2.549 0l-3.102 3.102-3.102-3.102c-.703-.704-1.846-.704-2.549 0-.704.704-.704 1.845 0 2.549l3.102 3.102-3.096 3.096c-.704.704-.704 1.846 0 2.549.352.352.813.528 1.275.528s.923-.176 1.275-.528l3.096-3.096 3.096 3.096c.352.352.813.528 1.275.528s.923-.176 1.275-.528c.704-.704.704-1.846 0-2.549L649.828 113.25z"/><path fill="#2363A8" d="M452.733 402.815c-3.906 0-7.084-3.178-7.084-7.084 0-3.906 3.178-7.084 7.084-7.084 3.906 0 7.084 3.178 7.084 7.084C459.817 399.637 456.639 402.815 452.733 402.815zM452.733 390.863c-2.684 0-4.867 2.184-4.867 4.867s2.184 4.867 4.867 4.867c2.684 0 4.867-2.184 4.867-4.867S455.416 390.863 452.733 390.863zM962.077 647.848c-3.906 0-7.084-3.178-7.084-7.084 0-3.906 3.178-7.084 7.084-7.084 3.906 0 7.084 3.178 7.084 7.084C969.161 644.67 965.983 647.848 962.077 647.848zM962.077 635.896c-2.684 0-4.867 2.184-4.867 4.867 0 2.684 2.184 4.867 4.867 4.867s4.867-2.184 4.867-4.867C966.944 638.08 964.761 635.896 962.077 635.896z"/><path fill="#C9E3FF" d="M479.617 518.529c-2.723-.948-6.006-.489-8.849-.48-2.912.009-5.824.01-8.737.015-5.925.01-11.849.028-17.774.048-11.946.04-23.904-.068-35.849.127-3.312.054-6.631.109-9.941.234-1.606.061-3.216.13-4.82.227-1.653.099-3.432.114-5.012.635-.686.226-.687 1.168 0 1.394 2.665.88 5.844.675 8.627.806 2.91.137 5.824.17 8.736.236 5.923.135 11.85.093 17.774.112 11.95.041 23.899.093 35.849.113 3.314.006 6.628.012 9.942.018 3.193.005 7 .585 10.054-.478C481.094 521.023 481.097 519.044 479.617 518.529zM509.317 519.23c-3.128-.192-6.263-.311-9.398-.306-1.504.003-3.034-.042-4.531.105-.815.08-1.646.161-2.446.334-.676.147-1.438.255-1.889.824-.25.317-.276.685 0 1.002.48.551 1.206.623 1.889.747.808.147 1.628.219 2.446.29 1.503.13 3.024.119 4.531.191 3.138.152 6.271.363 9.398.669 1.038.101 1.928-.959 1.928-1.928C511.245 520.061 510.361 519.294 509.317 519.23z"/><path fill="#FCCACF" d="M970.147 551.381c-1.367-.574-2.465-.799-3.961-.792-1.4.007-2.799.084-4.199.105-2.798.041-5.599.02-8.398.029-5.498.018-10.997.037-16.495.056-5.499.018-10.997.054-16.495.112-5.43.056-11.115-.263-16.455.859-.933.196-.933 1.69 0 1.887 5.342 1.122 11.023.803 16.455.859 5.499.057 10.997.093 16.495.112 5.499.018 10.997.037 16.495.056 2.799.009 5.599-.014 8.398.029 1.399.021 2.799.098 4.199.104 1.515.006 2.588-.216 3.961-.792C971.429 553.467 971.432 551.92 970.147 551.381zM993.358 550.746c-.71-.227-1.314-.034-2.014.054-.503.064-1.018.076-1.524.113l-3.43.253c-2.257.167-4.439.602-6.655 1.04-.62.122-.652 1.191 0 1.285 2.22.321 4.409.662 6.655.714 1.101.026 2.201.052 3.303.077.549.013 1.102.011 1.651.039.69.035 1.34.23 2.014-.022.77-.288 1.353-.914 1.353-1.777C994.71 551.692 994.133 550.994 993.358 550.746z"/><path fill="#C9E3FF" d="M994.546 253.133c-.01-4.528-.021-9.056-.032-13.584-.01-4.428-.04-8.854-.115-13.282-.037-2.204-.089-4.442-.263-6.641-.081-1.021-.257-3.927-1.941-3.62-1.617.295-1.569 3.007-1.636 4.223-.123 2.21-.215 4.428-.245 6.641-.06 4.428-.098 8.854-.108 13.282-.01 4.427-.02 8.854-.031 13.282-.005 2.115-.037 4.227.071 6.339.107 2.073-.001 4.527.952 6.415.443.879 1.882.879 2.326 0 .95-1.883.845-4.346.952-6.415C994.589 257.561 994.551 255.348 994.546 253.133zM994.861 281.42c-.062-1.216-.131-2.429-.286-3.636-.148-1.151-.124-2.884-1.079-3.705-.497-.428-1.343-.56-1.824 0-.868 1.009-.69 2.451-.725 3.705-.034 1.212-.022 2.424-.044 3.636-.044 2.425-.187 4.851-.219 7.274-.015 1.119.962 2.07 2.071 2.07 1.201 0 1.973-.952 2.071-2.07C995.034 286.301 994.983 283.818 994.861 281.42zM562.338 136.538c-5.261-.828-10.457-.741-15.774-.707l-16.319.105c-10.679.069-21.356.13-32.033.304-5.965.098-12.14-.033-18.056.79-.812.113-.813 1.527 0 1.64 5.121.712 10.473.666 15.638.75 5.44.089 10.879.192 16.319.227 10.678.069 21.356.137 32.033.206 6.106.04 12.148.26 18.192-.691C563.637 138.958 563.638 136.742 562.338 136.538zM591.844 137.018c-1.69-.316-3.513-.182-5.231-.213-1.698-.03-3.396-.061-5.094-.091-1.692-.03-3.402-.131-5.094-.053-.849.04-1.701.132-2.547.215-.768.075-1.293.187-1.777.819-.162.213-.136.586 0 .802.426.675 1.053.797 1.792.92.842.141 1.683.304 2.531.404 1.628.191 3.277.242 4.912.343 1.637.101 3.274.203 4.911.304 1.648.102 3.453.427 5.094.254.932-.098 1.734-.641 1.852-1.634C593.297 138.226 592.779 137.193 591.844 137.018z"/><path fill="#FCCACF" d="M680.605 90.085c-.027-3.78-.053-7.561-.08-11.341-.051-7.253.349-14.84-1.068-21.976-.134-.676-1.233-.677-1.367 0-1.417 7.135-1.016 14.723-1.068 21.976-.026 3.681-.052 7.362-.078 11.043-.026 3.755-.19 7.374.845 11.016.276.971 1.692.972 1.968 0C680.767 97.255 680.631 93.743 680.605 90.085zM680.644 117.033c-.05-1.198-.136-2.383-.247-3.577-.077-.822-.227-2.86-1.561-2.561-1.2.269-1.153 1.997-1.241 2.945-.107 1.151-.173 2.295-.222 3.449-.098 2.34-.246 4.685-.267 7.026-.022 2.455 3.837 2.459 3.815 0C680.9 121.887 680.746 119.457 680.644 117.033z"/><circle cx="551.439" cy="501.654" r="10.636" fill="#C9E3FF"/><path fill="#C9E3FF" d="M529.564 463.654c0-2.809 2.277-5.087 5.087-5.087s5.086 2.277 5.086 5.087c0 2.809-2.277 5.087-5.086 5.087S529.564 466.464 529.564 463.654zM387.962 647.848c0-2.809 2.277-5.087 5.087-5.087 2.809 0 5.087 2.277 5.087 5.087 0 2.809-2.277 5.087-5.087 5.087C390.24 652.934 387.962 650.657 387.962 647.848zM625.598 611.834c0-2.809 2.277-5.087 5.087-5.087 2.809 0 5.087 2.277 5.087 5.087s-2.277 5.087-5.087 5.087C627.876 616.921 625.598 614.643 625.598 611.834z"/><circle cx="883.888" cy="437.041" r="9.653" fill="#FCCACF"/><circle cx="757.794" cy="198.667" r="9.653" fill="#FCCACF"/><circle cx="854.94" cy="418.474" r="4.853" fill="#FCCACF"/><path fill="#FCCACF" d="M714.563,155.262c0-2.68,2.173-4.853,4.853-4.853c2.68,0,4.853,2.173,4.853,4.853
	c0,2.68-2.173,4.853-4.853,4.853C716.736,160.115,714.563,157.942,714.563,155.262z"/><circle cx="867.655" cy="43.533" r="4.853" fill="#FCCACF"/><path fill="#FCCACF" d="M909.787,584.961c0-2.68,2.173-4.853,4.853-4.853c2.68,0,4.853,2.173,4.853,4.853s-2.173,4.853-4.853,4.853
	C911.959,589.814,909.787,587.641,909.787,584.961z"/><circle cx="528.543" cy="282.523" r="11.195" fill="#C9E3FF" transform="rotate(-76.714 528.59 282.528)"/><path fill="#C9E3FF" d="M917.031,327.666c0-4.213,3.416-7.629,7.629-7.629c4.213,0,7.629,3.416,7.629,7.629
	s-3.416,7.629-7.629,7.629C920.446,335.295,917.031,331.88,917.031,327.666z"/><circle cx="459.817" cy="256.666" r="6.278" fill="#C9E3FF"/><path fill="#C9E3FF" d="M952.931,316.987c0-2.363,1.915-4.278,4.278-4.278c2.363,0,4.278,1.916,4.278,4.278
	c0,2.363-1.915,4.278-4.278,4.278C954.847,321.266,952.931,319.35,952.931,316.987z"/><circle cx="619.32" cy="161.54" r="6.278" fill="#C9E3FF"/></svg>