<svg xmlns="http://www.w3.org/2000/svg" width="6001.794" height="5437.283" enable-background="new 0 0 8000 8000" viewBox="999.104 1281.359 6001.794 5437.283"><ellipse cx="3223.521" cy="3980.133" fill="#97b0e8" opacity=".1" rx="1900.74" ry="2294.363"/><ellipse cx="4417.115" cy="3737.712" fill="#97b0e8" opacity=".1" rx="1830.191" ry="2209.204"/><path fill="#97b0e8" d="M2269.464,6471.492h3342.486c525.06-463.177,856.351-1140.896,856.351-1896.05    c0-1396.031-1131.59-2527.622-2527.622-2527.622c-1395.885,0-2527.627,1131.591-2527.627,2527.622    C1413.051,5330.595,1744.389,6008.315,2269.464,6471.492z" opacity=".1"/><path fill="none" stroke="#97b0e8" stroke-dasharray="18.87" stroke-miterlimit="10" stroke-width="7.548" d="    M3018.819,4769.547c-271.534-290.201-260.096-787.969,0.26-1088.24s723.176-388.843,1091.004-238.343    c367.828,150.5,629.281,514.464,692.291,906.863c42.42,264.178-3.325,551.33-169.148,761.311    c-220.263,278.919-600.601,371.646-954.693,402.152c-299.576,25.809-607.713,18.819-891.768-79.794    c-284.055-98.613-542.921-298.898-659.865-575.911c-165.647-392.375-9.497-869.301,298.298-1163.681    c370.817-354.655,950.11-472.737,1430.158-291.521s836.801,652.651,880.751,1163.879    c24.976,290.513-51.708,598.932-252.351,810.505c-201.292,212.258-502.056,304.358-794.05,322.02    c-482.314,29.172-1003.65-151.726-1264.031-558.764c-283.677-443.456-188.964-1051.127,105.092-1487.769    c404.053-599.977,1170.899-937.429,1883.957-815.86c713.058,121.569,1329.191,702.889,1478.149,1410.732    c65.776,312.565,41.149,655.858-130.816,925.025c-193.043,302.158-540.313,469.629-884.803,569.085    c-501.308,144.73-1046.567,175.021-1541.642,10.229c-495.075-164.792-931.827-541.257-1099.835-1035.25    c-187.324-550.789-17.072-1184.67,354.438-1632.375s919.554-723.385,1486.291-854.797    c437.447-101.433,936.861-110.816,1292.284,163.633c263.52,203.484,402.188,529.008,488.368,850.6    c130.175,485.769,163.875,1008.012,17.016,1489c-175.384,574.408-612.026,1061.375-1160.037,1307.117    c-548.01,245.741-1197.704,248.969-1752.011,17.783c-374.982-156.395-707.814-418.06-935.067-754.849    s-345.818-748.619-316.51-1153.85c49.052-678.22,514.331-1286.55,1115.946-1603.484    c507.911-267.571,1112.749-346.009,1672.111-216.846s1068.574,464.847,1407.749,928.019    c276.914,378.149,441.872,852.011,387.805,1317.58c-45.509,391.886-243.722,757.393-518.71,1040.282    s-623.392,487.142-990.961,630.453c-559.322,218.072-1183.395,299.122-1765.839,153.672    c-582.444-145.45-1115.508-533.981-1366.823-1079.175c-306.455-664.812-159.584-1472.085,220.766-2097.563    c220.698-362.933,520.353-684.1,891.681-890.361c371.329-206.26,817.366-290.875,1230.321-191.393s783.72,394.196,935.323,790.989    c123.313,322.75,98.369,687.106-2.213,1017.646c-100.581,330.54-272.241,634.21-442.566,934.814" opacity=".3"/><polygon fill="#ffbda6" points="3632.575 6118.424 3632.575 6202.815 3438.571 6266.876 3438.571 6118.424"/><rect width="194.004" height="116.963" x="2682.627" y="6118.424" fill="#ffbda6"/><path fill="#fb6072" d="M3548.206,6471.491v-40.133l40.131,40.133h361.488c-1.926-9.851-20.824-92.759-117.931-140.321        c-103.351-50.621-166.629-139.209-166.629-139.209l-248.887,82.26c0,0,5.271,49.567-5.274,92.806        c-8.982,36.835-2.676,89.6-0.606,104.464H3548.206z"/><path fill="#2d2c2b" d="M3407.146 6437.343c.924 15.314 2.496 27.998 3.352 34.149h137.708v-34.149H3407.146zM3554.19 6437.343l34.146 34.149h361.487c-.694-3.553-3.675-16.679-11.655-34.149H3554.19zM3709.834 6219.634l-53.084 53.083c-3.776 3.777-10.071 3.777-13.918-.07-3.776-3.777-3.776-10.071 0-13.848l53.084-53.084c3.777-3.776 10.071-3.776 13.848 0C3713.611 6209.563 3713.611 6215.857 3709.834 6219.634zM3742.339 6252.138l-53.084 53.083c-3.777 3.777-10.071 3.777-13.918-.07-3.777-3.776-3.777-10.071 0-13.848l53.084-53.083c3.776-3.777 10.071-3.777 13.848 0C3746.116 6242.067 3746.115 6248.362 3742.339 6252.138zM3774.843 6284.643l-53.083 53.084c-3.777 3.776-10.071 3.777-13.918-.07-3.777-3.776-3.777-10.071 0-13.848l53.083-53.083c3.777-3.777 10.071-3.777 13.848 0C3778.62 6274.572 3778.62 6280.866 3774.843 6284.643z"/><path fill="#fb6072" d="M2916.111,6471.491c1.143-25.167,3.495-76.176,5.226-109.002        c2.363-44.931-33.108-127.102-33.108-127.102h-217.562c0,0-23.647,77.441-33.107,105.163        c-7.38,21.628-3.253,98.222-1.081,130.941H2916.111z"/><path fill="#2d2c2b" d="M2634.578 6437.638c.602 13.151 1.32 25.095 1.903 33.854h279.63c.397-8.748.946-20.71 1.558-33.854H2634.578zM2821.868 6285.383l-75.072 0c-5.341 0-9.792-4.45-9.792-9.891 0-5.341 4.451-9.792 9.792-9.792h75.072c5.341 0 9.792 4.451 9.792 9.792C2831.659 6280.932 2827.208 6285.383 2821.868 6285.383zM2821.868 6317.887h-75.072c-5.341 0-9.792-4.451-9.792-9.891 0-5.341 4.451-9.792 9.792-9.792h75.072c5.341 0 9.792 4.451 9.792 9.792C2831.659 6313.437 2827.208 6317.887 2821.868 6317.887zM2821.868 6350.392h-75.072c-5.341 0-9.792-4.45-9.792-9.891 0-5.341 4.451-9.792 9.792-9.792h75.072c5.341 0 9.792 4.451 9.792 9.792C2831.659 6345.941 2827.208 6350.392 2821.868 6350.392z"/><g><path fill="#2d2c2b" d="M3348.802,6132.882l-240.978-1344.338l-103.643,1344.338h-424.097l59.257-1386.576       c298.449,110.777,833.771-26.611,987.251-70.241l148.838,1456.817H3348.802z"/><path fill="#ffbda6" d="M3993.603,3196.237c0,0,36.382-26.836,72.511-50.399c36.13-23.563,87.969-37.701,119.386-40.843       c31.417-3.142,91.11-3.142,59.693,32.988l-37.701,26.705c0,0,21.992,29.846,3.142,72.26       c-18.851,42.413-32.988,39.271-39.272,17.28c-6.283-21.992-6.283-51.839-17.279-51.839s-75.402,42.414-75.402,42.414       s95.823,31.494,102.106,50.306c6.284,18.812-48.697,20.383-86.398,20.383c-37.701,0-89.427,38.993-89.427,38.993       L3993.603,3196.237z"/><path fill="#2d2c2b" d="M3011.034,2142.256c5.012-43.964-22.185-88.687-62.051-107.888       c-39.865-19.202-89.507-13.723-126.536,10.501c-37.029,24.224-61.425,65.483-68.936,109.09       c-3.058,17.753-3.495,36.055-0.13,53.752c5.48,28.823,21.292,55.57,43.903,74.266s51.852,29.201,81.191,29.17"/><path fill="#fb6072" d="M3116.308,2236.351c5.011-43.964-22.186-88.687-62.051-107.888s-89.507-13.722-126.536,10.501       c-37.029,24.224-61.425,65.483-68.936,109.09c-3.058,17.752-3.495,36.055-0.13,53.752c5.48,28.823,21.292,55.57,43.903,74.266       c22.611,18.696,51.852,29.201,81.191,29.17"/><path fill="#2d2c2b" d="M2972.057,2475.988c-34.051,1.215-66.199-21.007-82.914-50.698s-19.707-65.535-14.998-99.28       c8.297-59.461,40.02-115.222,86.494-153.23c46.474-38.008,107.171-58.012,167.164-55.72       c51.424,1.965,104.348,21.721,135.811,62.444c31.463,40.722,35.154,104.186,0.246,141.997"/><path fill="#f3f3f1" d="M3393.084,3299.679l139.091,706.13l136.77,657.858c0,0-205.31,64.362-448.525,100.721       c-77.513,11.604-158.895,20.268-238.728,23.208c-192.624,6.808-375.964-20.423-473.746-123.929l316.708-1404.524l10.521-46.724       l-10.521-38.525l-112.48-412.476c0,0,18.567-42.702,112.48-77.049c37.132-13.77,86.332-26.147,150.849-34.038l193.087,10.521       c0,0,85.404-15.626,182.565,46.88c29.706,19.185,60.497,45.796,90.356,82.309c127.022,155.801,202.679,382.616,202.679,382.616       h347.651l15.162,210.105C4007.003,3382.762,3464.099,3558.212,3393.084,3299.679z"/><path fill="#2d2c2b" d="M3218.698,4773.132c-77.514,11.604-162.771,19.581-242.603,22.521       c-0.774-10.367,2.636-29.1,2.482-40.239l76.431-1051.149h132.437l0.155,5.261l30.943,1040.782       C3218.698,4755.104,3218.698,4768.49,3218.698,4773.132z"/><path fill="#f3f3f1" d="M2712.181,2761.404c0,0-98.003,150.634-113.156,281.331       c-15.153,130.698-17.047,363.68-17.047,363.68l130.203,422.399l199.381-143.957l-91.246-406.465l70.41-279.223"/><path fill="#ffbda6" d="M2863.655,3719.447c0,0-10.744,6.459,47.908,6.204c58.651-0.255,72.36-11.33,74.469,0.007       c2.109,11.337-33.744,39.809-33.744,39.809h-51.694l23.908,27.417l-152.534,138.14l-6.593-140.617L2863.655,3719.447z"/><path fill="none" stroke="#000" stroke-miterlimit="10" stroke-width="3.774" d="M4207.493,3164.688       c0,0-86.398-36.13-128.811,80.114"/><path fill="#6ad3c9" d="M3168.59,3011.75l20.577,692.515h-132.437l51.056-702.88l-207.165-338.521       c18.41-4.178,38.834-7.736,60.958-10.676c4.487-0.619,9.13-1.238,13.925-1.856l14.08,0.773l162.143,8.819l16.864,0.928       c0,0,4.95-0.928,14.08-1.393c15.162-0.928,41.773-0.464,74.728,7.582L3168.59,3011.75z"/><path fill="#f3f3f1" d="M3182.669,2659.459l-0.31,2.631c-0.31,3.558-9.439,86.486-111.86,110.468       c-8.2,1.857-16.091,2.786-23.517,2.786c-17.328,0-32.492-5.261-45.331-15.627c-37.444-30.17-39.918-94.842-40.073-107.529       c4.487-0.619,9.13-1.238,13.925-1.856l14.08,0.773c0,0.31-0.155,0.619-0.155,0.928c0,18.566,5.26,66.373,29.704,86.023       c11.449,9.283,26.146,11.759,45.023,7.272c70.86-16.555,86.641-66.529,89.735-81.536c-0.618-1.083-1.39-2.475-2.165-3.868       l16.864,0.928C3168.59,2660.852,3173.54,2659.924,3182.669,2659.459z"/><path fill="#ffad97" d="M2958.454,2390.471c0,0,40.005,158.688,17.046,259.917c0,0-2.087,130.449,91.836,108.534       s101.229-98.098,101.229-98.098s-37.591-55.214-26.101-117.878"/><path fill="#ffbda6" d="M2978.492,2423.671c-19.106,7.55-43.253-1.792-52.302-20.235       c-9.05-18.444-9.793-69.849,17.137-72.785c22.056-2.405,41.959,13.268,64.097,14.743       c56.671,3.776,114.42-24.268,146.495-71.141c8.444-12.34,15.557-26.218,27.719-34.915c18.799-13.443,47.77-9.623,62.442,8.234       c12.173,14.815,13.921,35.332,15.148,54.466c1.904,29.703,3.808,59.405,5.713,89.108c2.335,36.418,4.357,74.618-11.035,107.706       c-5.935,12.76-14.519,24.518-25.996,32.662c-15.17,10.764-34.337,14.521-52.937,14.678       c-43.492,0.368-86.808-18.366-116.326-50.31"/><circle cx="3149.19" cy="2377.07" r="13.46"/><path d="M3157.772,2333.241c-7.993-4.524-17.834-2.65-25.166,1.992c-7.201,4.84-12.867,13.122-11.888,22.27       c7.453-5.003,12.566-8.741,18.351-12.398C3144.72,2341.24,3150.205,2338.041,3157.772,2333.241z"/><circle cx="3222.164" cy="2364.832" r="13.46"/><path d="M3251.09,2349.393c-0.331-9.178-7.082-16.581-14.875-20.396c-7.894-3.6-17.917-4.091-25.198,1.534       c8.165,3.73,14.027,6.128,20.173,9.141C3237.44,2342.463,3243.038,2345.461,3251.09,2349.393z"/><path fill="none" stroke="#000" stroke-miterlimit="10" stroke-width="3.774" d="M3190.385 2398.906c-.59 6.598 4.338 12.335 9.354 16.663 5.016 4.327 10.751 8.55 12.778 14.857 2.155 6.705-1.027 14.719-7.194 18.12-6.167 3.401-14.643 1.815-19.164-3.585M3209.888 2495.432c-13.714 8.773-31.241 11.333-46.892 6.849-15.65-4.484-29.163-15.937-36.151-30.64"/><polyline fill="none" stroke="#dcdcd6" stroke-miterlimit="10" stroke-width="3.774" points="2900.593 2662.796 3107.77 3001.379 2977.868 4788.505"/><polyline fill="none" stroke="#dcdcd6" stroke-miterlimit="10" stroke-width="3.774" points="3257.463 2667.041 3168.565 3011.824 3220.745 4764.281"/><polyline fill="none" stroke="#000" stroke-miterlimit="10" stroke-width="3.774" points="2875.748 3058.57 2835.175 3212.419 2820.316 3278.392 2911.562 3684.857 2863.655 3719.447"/><line x1="3393.084" x2="3342.786" y1="3299.679" y2="3058.57" fill="none" stroke="#000" stroke-miterlimit="10" stroke-width="3.774"/></g><path fill="none" stroke="#000" stroke-miterlimit="10" stroke-width="3.774" d="M2961.457,2346.733     c-3.474-2.871-8.551-3.311-12.804-1.817c-4.252,1.494-7.738,4.689-10.366,8.351c-7.539,10.507-8.231,25.488-1.693,36.645     c6.538,11.157,19.946,17.876,32.797,16.434"/><g><path fill="#4d64de" d="M5371.005,6274.911l-65.255,50.755c-134.143-172.14-332.197-275.396-547.973-286.81              l-0.538,236.322l-78.014-0.134l0.538-236.457c-215.914,10.608-414.505,112.656-549.317,284.259l-64.987-51.158              c150.79-191.609,373.148-305.34,614.573-315.679l2.013-948.627l77.883,0.135l-2.02,948.627              C4999.333,5967.692,5221.153,6082.631,5371.005,6274.911z"/><path fill="#fb6072" d="M4846.073,4986.107c-0.167,69.072-56.314,124.947-125.385,124.779             c-69.073-0.167-124.831-56.313-124.663-125.386c0.167-69.072,56.196-124.83,125.27-124.662             C4790.365,4861.006,4846.24,4917.036,4846.073,4986.107z"/><path fill="#f8c14a" d="M4930.762,4927.007l-0.07,28.857c-0.035,14.672-11.958,26.537-26.63,26.501             l-366.006-0.887c-14.672-0.036-26.537-11.958-26.501-26.63l0.07-28.857L4930.762,4927.007z"/><circle cx="5366.756" cy="6349.245" r="122.2" fill="#202a5c"/><circle cx="5366.756" cy="6349.245" r="72.547" fill="#f3f3f1"/><circle cx="4718.038" cy="6347.671" r="122.2" fill="#202a5c"/><circle cx="4718.038" cy="6347.671" r="72.547" fill="#f3f3f1"/><circle cx="4069.319" cy="6346.098" r="122.2" fill="#202a5c"/><circle cx="4069.319" cy="6346.098" r="72.547" fill="#f3f3f1"/><path fill="#f8c14a" d="M4774.645,5562.679v252.586c0,7.254-5.702,13.212-12.953,13.212h-87.048       c-7.254,0-13.212-5.958-13.212-13.212v-252.586c0-7.248,5.958-13.206,13.212-13.206h87.048       C4768.942,5549.473,4774.645,5555.431,4774.645,5562.679z"/><g><path fill="#f8c14a" d="M4522.522,4817.755v-594.954h-870.288l-191.313,594.954H4522.522z M3796.251,4327.558h621.515         v447.82h-765.532L3796.251,4327.558z"/><polygon fill="#fad077" points="3589.471 4817.755 3780.888 4222.79 3652.28 4222.79 3460.857 4817.755"/><rect width="93.36" height="447.762" x="4324.388" y="4327.604" fill="#f6b11d"/></g><path fill="#45c8bc" d="M5710.015,3058.768v1650.107H4370.958l212.026-1658.329      c4.137-32.361,31.679-56.605,64.303-56.605h997.9C5680.991,2993.942,5710.015,3022.966,5710.015,3058.768z"/><path fill="#34968d" d="M5709.958,3058.457v1650.419h-190.926V2993.63h126.099      C5680.934,2993.63,5709.958,3022.654,5709.958,3058.457z"/><path fill="#34968d" d="M5709.958,4708.875v175.828c0,23.042-18.679,41.72-41.72,41.72H3695.515      c-60.074,0-108.774-48.7-108.774-108.774l0,0c0-60.074,48.7-108.774,108.774-108.774H5709.958z"/><path fill="#6ad3c9" d="M4757.181,4926.634H3695.212c-59.897,0-108.567-48.67-108.567-109.192      c0-59.897,48.67-108.567,108.567-108.567h1061.969c-59.897,0-108.567,48.67-108.567,108.567      C4648.614,4877.964,4697.284,4926.634,4757.181,4926.634z"/><g><path fill="#f8c14a" d="M5710.015,4817.755v-594.954h-870.288l-191.313,594.954H5710.015z M4983.743,4327.558h621.515         v447.82h-765.531L4983.743,4327.558z"/><polygon fill="#fad077" points="4776.963 4817.755 4968.381 4222.79 4839.773 4222.79 4648.349 4817.755"/><rect width="93.36" height="447.762" x="5511.881" y="4327.604" fill="#f6b11d"/></g><g><polygon fill="#ffbda6" points="3334.826 5654.268 3307.031 5786.792 3489.278 5892.516 3530.634 5695.335"/><path fill="#45c8bc" d="M3335.31,6075.825l8.496-40.506l-49,32.011l-364.849-76.522         c4.029-9.535,40.654-89.213,148.731-116.661c115.027-29.214,197.647-105.23,197.647-105.23l233.788,135.71         c0,0-15.812,48.913-14.323,94.785c1.269,39.08-16.267,91-21.501,105.564L3335.31,6075.825z"/><path fill="#2d2c2b" d="M3484.909 6071.219c-4.174 15.262-8.446 27.73-10.612 33.757l-138.989-29.151 7.229-34.466L3484.909 6071.219zM3336.499 6040.092l-41.692 27.238-364.848-76.522c1.453-3.439 7.24-16.056 18.992-31.999L3336.499 6040.092zM3225.493 5787.412l42.34 64.814c3.012 4.611 9.365 5.944 14.062 2.875 4.611-3.012 5.944-9.365 2.931-13.976l-42.34-64.814c-3.012-4.611-9.365-5.944-13.977-2.932C3223.813 5776.447 3222.481 5782.8 3225.493 5787.412zM3185.806 5813.337l42.34 64.814c3.012 4.611 9.365 5.944 14.062 2.875 4.611-3.012 5.944-9.365 2.931-13.977l-42.34-64.814c-3.012-4.611-9.365-5.943-13.977-2.931C3184.126 5802.374 3182.794 5808.727 3185.806 5813.337zM3146.118 5839.264l42.34 64.814c3.012 4.611 9.365 5.944 14.062 2.875 4.611-3.012 5.944-9.365 2.931-13.976l-42.34-64.814c-3.012-4.611-9.365-5.944-13.977-2.932C3144.438 5828.299 3143.106 5834.652 3146.118 5839.264z"/><g><polygon fill="#ffbda6" points="4239.435 6013.627 4257.977 6147.759 4465.207 6185.804 4437.619 5986.231"/><path fill="#45c8bc" d="M4382.105,6410.309l-5.667-40.998l-35.328,46.665l-369.276,51.047         c0.576-10.335,8.174-97.698,100.656-159.998c98.429-66.307,150.561-165.739,150.561-165.739l265.865,48.886         c0,0,1.616,51.379,18.493,94.061c14.378,36.36,15.386,91.153,15.372,106.629L4382.105,6410.309z"/><path fill="#2d2c2b" d="M4521.38 6355.505c1.219 15.775 1.404 28.954 1.398 35.358l-140.675 19.446-4.822-34.884L4521.38 6355.505zM4371.169 6376.27l-30.06 39.707-369.275 51.047c.208-3.728 1.399-17.558 7.084-36.531L4371.169 6376.27zM4181.428 6175.85l61.723 46.731c4.391 3.325 10.821 2.437 14.208-2.037 3.324-4.392 2.436-10.822-1.956-14.146l-61.724-46.731c-4.391-3.325-10.821-2.436-14.146 1.956C4176.147 6166.095 4177.037 6172.525 4181.428 6175.85zM4152.813 6213.645l61.723 46.731c4.392 3.325 10.821 2.437 14.208-2.037 3.325-4.392 2.436-10.822-1.956-14.146l-61.724-46.731c-4.391-3.325-10.821-2.436-14.146 1.956C4147.533 6203.89 4148.422 6210.32 4152.813 6213.645zM4124.199 6251.439l61.723 46.731c4.392 3.325 10.821 2.437 14.208-2.037 3.325-4.392 2.436-10.822-1.956-14.146l-61.724-46.731c-4.391-3.325-10.821-2.436-14.146 1.956C4118.918 6241.685 4119.808 6248.115 4124.199 6251.439z"/></g><path fill="#2d2c2b" d="M5309.994,4364.22c0,0,76.246,283.265-80.64,383.497       c-58.237,37.207-785.81,16.529-785.81,16.529L4631.82,6055.08h-592.1l-92.431-1061.243v-538.425L5309.994,4364.22z"/><path fill="#2d2c2b" d="M5307.338,4351.356c0,0,78.901,296.128-77.984,396.36       c-58.237,37.207-785.81,16.529-785.81,16.529L4631.82,6055.08h-592.1l-92.431-1061.243l7.206-642.48H5307.338z"/><path fill="#191817" d="M3664.761,4351.356c0,0-254.599,631.247-480.565,1270.955l507.752,217.876       c0,0,564.655-1415.138,790.621-1488.338"/><g><path fill="#2d2c2b" d="M5016.475,2931.646c-4.047-39.689,22.712-79.98,60.396-93.075       c37.684-13.095,82.739,1.142,107.299,32.581s27.793,77.529,9.263,112.859c-18.53,35.33-57.273,58.661-97.14,60.155"/><path fill="#f8c14a" d="M4947.902,2994.297c-3.824-37.5,21.459-75.569,57.065-87.942       c35.605-12.373,78.176,1.079,101.381,30.784c23.205,29.705,26.26,73.253,8.752,106.635       c-17.508,33.382-54.115,55.426-91.783,56.837"/><path fill="#2d2c2b" d="M4596.074,3457.908c0.278,2.782,0.417,5.703,0.695,8.485c0-46.042,31.437-85.824,64.264-118.096       s70.106-62.734,87.911-105.299c1.53-3.478,2.782-7.094,3.895-10.711c8.624-25.873,9.876-54.11,6.955-81.374       c-3.199-29.35,0.974-59.117-13.91-83.877c-0.835-1.391-1.669-2.782-2.643-4.173c-34.914-50.215-17.249-125.19,29.768-164.277       c47.016-38.948,115.036-45.486,173.875-28.933c93.893,26.568,169.006,110.723,184.725,207.12       c5.842,35.331,4.173,72.054,13.493,106.69c10.989,40.617,36.444,75.948,63.986,107.802       c27.542,31.854,58.004,61.482,82.208,95.979c24.064,34.636,41.869,75.531,39.644,117.678       c-2.087,42.008-27.82,84.573-68.02,97.37"/><path fill="none" stroke="#000" stroke-miterlimit="10" stroke-width="1.075" d="M4803.193,3422.715v16.692       c0,57.727,45.068,98.065,109.473,98.065c51.049,0,111.141-27.681,130.613-89.58c-100.151-20.169-213.657-22.812-213.657-22.812       S4819.329,3423.968,4803.193,3422.715z"/><path fill="#fc808e" d="M3893.283,3943.6l10.653,193.789h498.2l2.048,78.869h956.042c0,0-9.217-395.364-53.261-504.55       c-44.044-109.391-57.358-166.134-146.878-223.698c-27.041-17.208-68.216-29.909-112.668-39.332       c-1.434-0.204-2.663-0.614-4.097-0.819c-100.173-20.075-213.66-22.738-213.66-22.738s-10.243-1.229-26.427-2.458       c-1.433-0.205-2.867-0.205-4.301-0.41c-48.141-3.482-139.095-6.76-178.836,14.75c-55.514,29.907-261.8,474.026-261.8,474.026       L3893.283,3943.6z"/><path fill="none" stroke="#000" stroke-miterlimit="10" stroke-width="1.49" d="M4585.714,3706.956       c-45.338,22.021-80.205,64.564-92.893,113.344s-2.968,102.92,25.895,144.24"/><path fill="#ffbda6" d="M4510.61,3998.781c-43.537-42.903-106.61-69.852-167.725-70.945       c-68.514-1.224-133.832,26.485-196.725,53.689c-6.931,2.998-5.663,13.991-2.222,20.713       c3.441,6.721,10.581,10.966,17.961,12.559c7.381,1.593,15.054,0.867,22.53-0.192c23.471-3.325,46.481-9.886,68.177-19.44       c0,0-64.556,53.838-77.826,80.378c-13.27,26.541,25.804,28.015,37.6,14.008c0,0,15.482,28.588,46.447,8.765       c0,0,12.533,30.871,49.395,6.999c36.862-23.873,88.47-12.814,102.478-7.653c14.007,5.161,75.269,36.138,75.269,36.138"/><path fill="none" stroke="#000" stroke-miterlimit="10" stroke-width="1.49" d="M4258.827,4098.315       c0,0,35.23-37.031,65.692-41.999c30.462-4.968,78.01,9.936,78.01,9.936"/><path fill="none" stroke="#000" stroke-miterlimit="10" stroke-width="1.49" d="M4212.38 4089.551c0 0 80.86-82.911 104.989-87.168 24.129-4.258 89.418 28.416 89.418 28.416M4252.606 3995.165c0 0 35.708-26.137 56.977-27.556 21.269-1.419 71.655 18.451 71.655 18.451"/><path fill="#fff" d="M4798.933,3422.252v17.208c0,60.226,46.706,102.221,113.692,102.221       c52.852,0,114.922-28.68,134.793-93.003c-1.434-0.204-2.663-0.614-4.097-0.819c-100.173-20.075-213.66-22.738-213.66-22.738       s-10.243-1.229-26.427-2.458C4801.801,3422.457,4800.367,3422.457,4798.933,3422.252z"/><path fill="#ffad97" d="M4829.661,3251.815v187.645c0,95.87,159.169,95.05,188.667,0v-187.645H4829.661z"/><path fill="#ffbda6" d="M4759.191,3205.724c-3.073,19.666-5.736,39.536-5.941,59.407v4.301       c-0.614,39.538,7.989,77.229,45.272,92.594c36.873,15.364,124.755-2.253,186.415-84.194       c19.053,7.579,42.61,3.482,57.974-10.448c17.617-16.183,22.738-44.452,11.882-65.758       c-5.122-10.242-15.364-19.256-26.426-20.689c12.291-54.491,6.351-99.354,6.351-99.354       c-157.122-14.545-203.419-114.511-203.419-114.511c-20.894,61.865-85.423,99.967-85.423,99.967       c14.955,24.788,10.653,54.491,13.93,83.785C4761.649,3169.056,4761.854,3187.697,4759.191,3205.724z"/><linearGradient id="a" x1="4942.067" x2="4977.455" y1="3203.629" y2="3203.629" gradientTransform="matrix(-1 0 0 1 9777.872 0)" gradientUnits="userSpaceOnUse"><stop offset="0" stop-color="#41262f"/><stop offset="1" stop-color="#543843"/></linearGradient><path fill="url(#a)" d="M4823.71,3169.131c-1.243,8.661-6.322,15.495-11.087,22.49       c-4.831,6.952-9.976,14.511-11.855,23.878c-0.819,4.726-0.225,9.808,1.995,14.286c2.086,4.466,6.964,8.453,12.245,8.341       c10.78,0.103,16.798-8.697,20.797-15.829c-5.832,6.12-13.02,12.257-20.409,11.118c-7.078-0.863-10.27-9.68-8.572-16.907       c1.018-7.731,5.726-14.865,9.805-22.416C4820.772,3186.676,4824.808,3177.948,4823.71,3169.131z"/><linearGradient id="b" x1="4911.462" x2="4985.102" y1="3285.192" y2="3285.192" gradientTransform="matrix(-1 0 0 1 9777.872 0)" gradientUnits="userSpaceOnUse"><stop offset="0" stop-color="#41262f"/><stop offset="1" stop-color="#543843"/></linearGradient><path fill="url(#b)" d="M4866.41,3259.017c-21.41,14.394-50.727,16.073-73.64,4.218       c2.686,11.461,6.375,23.621,13.151,33.248c6.776,9.626,18.538,16.712,30.094,14.468c9.563-1.857,17.086-9.706,21.129-18.57       C4861.186,3283.517,4865.333,3268.699,4866.41,3259.017z"/><linearGradient id="c" x1="4875.361" x2="4906.659" y1="3127.476" y2="3127.476" gradientTransform="matrix(-1 0 0 1 9777.872 0)" gradientUnits="userSpaceOnUse"><stop offset="0" stop-color="#41262f"/><stop offset="1" stop-color="#543843"/></linearGradient><path fill="url(#c)" d="M4871.213,3127.546c0,8.624,7.094,15.579,15.718,15.579s15.579-6.955,15.579-15.579         c0-8.624-6.955-15.719-15.579-15.719S4871.213,3118.922,4871.213,3127.546z"/><linearGradient id="d" x1="4845.533" x2="4906.729" y1="3086.716" y2="3086.716" gradientTransform="matrix(-1 0 0 1 9777.872 0)" gradientUnits="userSpaceOnUse"><stop offset="0" stop-color="#41262f"/><stop offset="1" stop-color="#543843"/></linearGradient><path fill="url(#d)" d="M4925.017,3102.07l7.322-8.362c-16.284-14.244-38.229-22.346-60.315-22.346         c-0.3,0-0.581,0-0.88,0l0.12,11.123c0.24,0,0.5,0,0.76,0C4891.469,3082.485,4910.733,3089.607,4925.017,3102.07z"/><linearGradient id="e" x1="4969.039" x2="5000.337" y1="3122.55" y2="3122.55" gradientTransform="matrix(-1 0 0 1 9777.872 0)" gradientUnits="userSpaceOnUse"><stop offset="0" stop-color="#41262f"/><stop offset="1" stop-color="#543843"/></linearGradient><path fill="url(#e)" d="M4808.114,3127.33c-2.591,8.226-11.447,12.728-19.673,10.137         s-12.77-11.314-10.179-19.54c2.591-8.226,11.356-12.903,19.582-10.312C4806.07,3110.207,4810.705,3119.104,4808.114,3127.33z         "/><linearGradient id="f" x1="4952.82" x2="5017.896" y1="3078.048" y2="3078.048" gradientTransform="matrix(-1 0 0 1 9777.872 0)" gradientUnits="userSpaceOnUse"><stop offset="0" stop-color="#41262f"/><stop offset="1" stop-color="#543843"/></linearGradient><path fill="url(#f)" d="M4764.457,3086.886c17.584-7.722,38.41-8.642,57.154-2.561l3.441-10.563         c-21.305-6.962-45.011-5.901-65.076,2.921L4764.457,3086.886z"/><path fill="none" stroke="#000" stroke-miterlimit="10" stroke-width="1.49" d="M5029.488,3199.811       c9.795,3.335,16.697,13.133,17.725,23.429c1.028,10.296-3.339,20.733-10.534,28.171s-16.976,12.044-27.099,14.188"/><linearGradient id="g" x1="4536.202" x2="4754.356" y1="2933.168" y2="2933.168" gradientTransform="matrix(-1 0 0 1 9777.872 0)" gradientUnits="userSpaceOnUse"><stop offset="0" stop-color="#41262f"/><stop offset="1" stop-color="#2d2c2b"/></linearGradient><path fill="none" stroke="url(#g)" stroke-miterlimit="10" stroke-width="1.49" d="M5024.259,2897.422       c2.679-34.894,29.565-65.428,62.606-76.967c33.04-11.538,70.653-5.628,101.301,11.269c14.724,8.118,28.33,18.907,37.396,33.068       c11.137,17.395,14.681,38.616,15.273,59.262c0.833,28.967-3.974,58.844-19.074,83.577       c-15.101,24.734-41.691,43.522-70.662,44.23"/><linearGradient id="h" x1="4559.458" x2="4744.955" y1="2936.403" y2="2936.403" gradientTransform="matrix(-1 0 0 1 9777.872 0)" gradientUnits="userSpaceOnUse"><stop offset="0" stop-color="#41262f"/><stop offset="1" stop-color="#2d2c2b"/></linearGradient><path fill="none" stroke="url(#h)" stroke-miterlimit="10" stroke-width="1.49" d="M5033.59,2877.635       c13.687-28.77,42.525-49.784,74.104-53.998s64.919,8.503,85.671,32.677c25.05,29.182,30.286,72.422,17.78,108.792       c-12.506,36.369-40.917,65.912-74.329,84.957"/><linearGradient id="i" x1="4430.471" x2="5051.115" y1="3225.949" y2="3225.949" gradientTransform="matrix(-1 0 0 1 9777.872 0)" gradientUnits="userSpaceOnUse"><stop offset="0" stop-color="#41262f"/><stop offset="1" stop-color="#2d2c2b"/></linearGradient><path fill="none" stroke="url(#i)" stroke-miterlimit="10" stroke-width="1.49" d="M4727.502,3004.803       c0-71.635,53.124-140.542,117.404-160.022c64.281-19.48,136.717-2.284,190.398,38.086s89.36,101.804,105.897,166.904       c13.688,53.886,15.489,111.671,40.937,161.103c32.282,62.71,97.653,102.262,134.505,162.4       c44.996,73.429,38.838,174.721-14.722,242.157"/><polyline fill="#fc808e" points="5068.45 3863.665 5090.769 4074.303 4516.048 3968.984 4482.569 4152.42 4690.417 4216.281 5274.903 4216.281"/><polygon points="5069.812 3876.521 5055.358 4035.536 4536.535 3972.738 5090.769 4074.303" opacity=".1"/><polyline fill="none" stroke="#000" stroke-miterlimit="10" stroke-width="1.075" points="5068.45 3863.665 5090.769 4074.303 4516.048 3968.984 4482.569 4152.42 4690.417 4216.281 5274.903 4216.281"/></g></g></g><g><path fill="#fb6072" d="M2137.952,3209.049c0,114.627-93.234,208.016-207.861,208.016      c-114.629,0-207.861-93.389-207.861-208.016c0-114.628,93.232-207.86,207.861-207.86      C2044.718,3001.189,2137.952,3094.421,2137.952,3209.049z"/><path fill="#fff" d="M2004.343,3209.064c19.959,11.602,39.615,23.024,59.453,34.566     c-12.383,21.521-24.706,42.982-37.09,64.624c-19.778-11.482-39.496-22.964-59.513-34.566v69.132h-74.122v-69.132     c-19.958,11.662-39.676,23.084-59.453,34.566c-12.324-21.521-24.648-42.982-37.092-64.624     c19.778-11.482,39.496-22.964,59.454-34.566c-19.898-11.542-39.616-22.964-59.454-34.506     c12.384-21.581,24.708-43.042,37.092-64.624c19.776,11.482,39.494,22.904,59.393,34.506v-69.012h74.182v69.072     c19.957-11.602,39.615-23.024,59.513-34.566c12.324,21.521,24.708,43.042,37.09,64.624     C2044.019,3186.04,2024.361,3197.462,2004.343,3209.064z"/></g><g><path fill="#4d64de" d="M4464.314,1979.112c0,205.61-166.583,372.193-372.036,372.193     c-205.61,0-372.192-166.583-372.192-372.193c0-205.451,166.583-372.034,372.192-372.034     C4297.731,1607.078,4464.314,1773.661,4464.314,1979.112z"/><path fill="#f3f3f1" d="M4423.794,1979.12c0,183.221-148.443,331.664-331.525,331.664     c-183.221,0-331.664-148.443-331.664-331.664c0-183.079,148.443-331.523,331.664-331.523     C4275.351,1647.598,4423.794,1796.041,4423.794,1979.12z"/><path fill="#151c3d" d="M4101.955 1690.683c0 5.303-4.402 9.705-9.705 9.705-5.403 0-9.805-4.402-9.805-9.705 0-5.403 4.402-9.805 9.805-9.805C4097.553 1680.878 4101.955 1685.28 4101.955 1690.683zM4101.955 2267.799c0 5.303-4.402 9.705-9.705 9.705-5.403 0-9.805-4.402-9.805-9.705 0-5.403 4.402-9.805 9.805-9.805C4097.553 2257.994 4101.955 2262.396 4101.955 2267.799zM4380.708 1988.946c-5.303 0-9.705-4.402-9.705-9.705 0-5.403 4.402-9.805 9.705-9.805 5.403 0 9.805 4.402 9.805 9.805C4390.513 1984.544 4386.111 1988.946 4380.708 1988.946zM3803.592 1988.946c-5.303 0-9.705-4.402-9.705-9.705 0-5.403 4.402-9.805 9.705-9.805 5.403 0 9.805 4.402 9.805 9.805C3813.397 1984.544 3808.995 1988.946 3803.592 1988.946zM4303.104 1782.083c-3.75 3.75-9.975 3.75-13.725 0-3.82-3.821-3.82-10.046-.071-13.796 3.821-3.821 10.046-3.821 13.867 0C4306.924 1772.037 4306.924 1778.262 4303.104 1782.083zM3895.021 2190.166c-3.75 3.75-9.975 3.75-13.725 0-3.821-3.821-3.821-10.046-.071-13.796 3.821-3.821 10.046-3.821 13.867 0C3898.842 2180.12 3898.842 2186.345 3895.021 2190.166zM4289.308 2190.095c-3.75-3.75-3.75-9.975 0-13.725 3.821-3.821 10.046-3.821 13.796-.071 3.821 3.821 3.821 10.046 0 13.866C4299.354 2193.916 4293.128 2193.916 4289.308 2190.095zM3881.225 1782.012c-3.75-3.75-3.75-9.975 0-13.725 3.821-3.821 10.046-3.821 13.796-.071 3.821 3.821 3.821 10.046 0 13.867C3891.271 1785.833 3885.046 1785.833 3881.225 1782.012z"/><path fill="#f6b11d" d="M4120.628,1979.185c0,15.708-12.726,28.434-28.422,28.434c-15.708,0-28.434-12.726-28.434-28.434     c0-15.696,12.726-28.422,28.434-28.422C4107.902,1950.763,4120.628,1963.489,4120.628,1979.185z"/><g><rect width="6.199" height="293.744" x="4210.254" y="1915.409" fill="#151c3d" transform="rotate(-55.577 4213.108 2062.228)"/></g><polygon fill="#fb6072" points="4098.146 1979.191 4092.2 1660.875 4086.254 1979.191"/><polygon fill="#4d64de" points="4092.147 1973.306 3835.998 1980.221 4092.191 1985.2"/><path fill="#f3f3f1" d="M4105.623,1979.188c0,7.417-6.009,13.426-13.42,13.426c-7.417,0-13.426-6.009-13.426-13.426     c0-7.411,6.009-13.42,13.426-13.42C4099.614,1965.768,4105.623,1971.777,4105.623,1979.188z"/></g><g><polygon fill="#151c3d" points="4972.766 6471.492 4972.766 4336.036 5757.303 4336.036 5757.303 6471.492 5789.925 6471.492 5789.925 4303.413 4940.142 4303.413 4940.142 6471.492"/></g><g><polygon fill="#151c3d" points="1962.714 6471.492 1962.714 4336.036 2747.251 4336.036 2747.251 6471.492 2779.875 6471.492 2779.875 4303.413 1930.091 4303.413 1930.091 6471.492"/></g><rect width="4663.98" height="190.149" x="1638.915" y="4210.019" fill="#4d64de"/><rect width="1409.802" height="190.149" x="4893.093" y="4210.019" fill="#3a4ba7"/><g><path fill="#7ec6f7" d="M4600.219,4138.58v15.003c0,31.168-25.267,56.436-56.436,56.436H3511.027v-71.439H4600.219z"/><path fill="#7ec6f7" d="M4206.705,4210.019H3049.13l-163.689-672.491c-6.838-28.421,14.745-55.561,43.807-55.561H3994.08     c20.729,0,38.892,14.104,43.807,34.192L4206.705,4210.019z"/><path fill="#5eb8f5" d="M3602.594,3820.243c0,50.431-41.029,91.46-91.674,91.46c-50.431,0-91.461-41.029-91.461-91.46     c0-50.645,41.03-91.461,91.461-91.461C3561.565,3728.782,3602.594,3769.598,3602.594,3820.243z"/></g><g><path fill="#45c8bc" d="M1810.464,5394.255c2.312,16.378,6.338,33.092,12.682,49.019           c25.471-23.477,55.612-41.954,88.37-54.631c-32.124,23.772-56.651,53.642-72.422,86.338l0.005,0.113           c9.291,14.609,20.882,28.084,35.253,39.424c31.326,24.904,72.278,37.249,112.057,43.883           c50.578,8.428,106.21,7.251,141.789-21.039c43.643-34.951,41.892-96.566,54.549-148.911           c13.637-56.666,47.675-107.394,95.952-143.911c-11.848-50.813-15.433-101.02-11.328-148.807           c14.842,41.892,35.215,81.807,59.888,118.525c42.62-22.917,87.935-44.058,105.703-84.583           c12.678-28.848,8.531-62.614,4.191-94.895c-10.422-76.989-20.839-153.865-31.261-230.854           c-2.585-19.507-6.165-40.801-21.883-55.905c-26.786-25.669-71.875-19.716-104.9-7.171           c-37.523,14.235-71.157,33.542-101.781,55.789c7.859,29.15,10.747,58.234,8.744,86.107           c-5.579-24.984-14.911-49.154-27.184-71.885c-42.395,33.642-79.295,73.142-113.819,113.126           c-16.641,19.281-33.152,38.571-49.395,57.991c45.597,31.168,86.031,66.637,120.177,104.725           c-50.132-27.406-102.697-47.932-155.079-61.537c-33.744,42.799-65.333,86.991-92.733,134.198           C1826.945,5230.288,1798.575,5310.843,1810.464,5394.255z"/><path fill="#6ad3c9" d="M1887.948 6059.016c3.764-55.631 7.68-111.242 11.961-166.796 6.452-81.962 14.9-163.918 25.453-245.382 4.35-33.156 9.441-66.191 15.277-99.097 8.568-47.936 19.127-95.375 32.536-142.191 22.479-78.854 53.522-155.349 94.874-226.386 41.107-71.155 92.641-136.223 150.633-194.839-59.481 57.125-112.755 120.954-156.098 191.615-43.462 70.411-76.742 146.905-101.58 226.01-14.529 46.196-26.201 93.136-35.887 140.447-7.079 33.782-13.038 67.683-18.503 101.708-12.792 81.71-23.223 163.548-31.914 245.753-5.788 56.38-11.187 112.771-16.428 169.158H1887.948zM1753.743 5563.261c0 0 0 0 0 .127 9.19 68.176 16.891 136.598 23.722 205.023.242 2.483.496 4.842.622 7.325 2.233 22.229 4.344 44.459 6.329 66.688 6.475 72.083 11.892 144.316 17.011 216.592h17.938c-6.254-76.802-12.837-153.604-20.664-230.378-.996-10.927-2.111-21.857-3.354-32.782-.622-6.087-1.244-12.293-1.865-18.504-6.084-55.507-12.664-111.142-20.114-166.527 0 0 0 0 0-.125-1.118-7.948-2.239-16.02-3.354-24.093-.622-4.718-1.244-9.314-1.985-14.032-2.732-19.497-5.588-38.871-8.568-58.367l-12.299 1.864c.747 5.215 1.495 10.432 2.239 15.647C1750.891 5542.275 1752.379 5552.829 1753.743 5563.261z"/><path fill="#45c8bc" d="M1279.06,5119.425c3.464,10.832,8.17,21.4,13.999,31.29           c28.382,48.247,77.165,80.999,127.411,105.639c50.323,24.551,103.768,42.798,152.188,70.95           c94.921,55.445,166.085,149.959,193.993,256.135c2.612,9.64,4.814,19.395,6.603,29.267c0,0,12.925-252.451-58.329-372.033           c-34.866-58.513-99.835-95.282-165.668-112.717c-39.962-10.559-82.662-13.16-119.341-32.227           c-43.442-22.653-73.742-68.563-77.516-117.405c-15.338,38.067-2.768,90.677,28.451,117.326           c-45.176-5.184-80.478-52.631-81.291-98.09C1270.497,5031.241,1265.58,5077.658,1279.06,5119.425z"/><path fill="#34968d" d="M1279.06,5119.425c3.464,10.832,8.17,21.4,13.999,31.29           c28.382,48.247,77.165,80.999,127.411,105.639c50.323,24.551,103.768,42.798,152.188,70.95           c94.921,55.445,166.085,149.959,193.993,256.135c1.206-8.173,2.063-16.487,2.677-24.698           c2.149-31.388-0.09-62.935-6.882-93.532c-6.136-27.621-15.822-54.37-29.236-79.313           c-33.932-63.124-90.029-113.894-156.147-141.32c-51.507-21.429-107.618-28.693-161.39-43.634           C1363.538,5186.463,1310.919,5162.684,1279.06,5119.425z"/><g><path fill="#45c8bc" d="M2368.336,5650.355c-3.325,6.955-7.46,13.617-12.287,19.721           c-23.51,29.782-59.291,47.276-95.306,59.188c-36.059,11.845-73.632,19.169-108.745,33.608           c-68.858,28.478-125.366,85.383-153.901,154.111c-2.644,6.233-5.022,12.581-7.134,19.044           c0,0,14.607-170.723,73.488-244.455c28.811-36.078,75.832-54.776,121.65-60.413c27.81-3.404,56.725-1.213,83.115-10.633           c31.263-11.206,55.845-39.24,62.885-71.692c6.789,26.978-6.505,61.148-29.929,76.165           c30.815,0.686,58.899-27.92,63.638-58.373C2382.221,5591.926,2381.241,5623.55,2368.336,5650.355z"/><path fill="#6ad3c9" d="M1954.723,6059.016c13.641-53.182,30.174-105.583,50.987-156.362           c1.369-3.602,2.855-7.203,4.35-10.806c0.123-0.123,0.123-0.25,0.242-0.374c2.981-7.447,6.212-14.652,9.441-21.981           l-11.304-5.214c-2.108,4.345-4.099,8.692-6.084,13.041c-1.859,3.97-3.599,7.945-5.465,12.045           c-24.398,54.808-43.75,111.773-59.803,169.651H1954.723z"/><path fill="#34968d" d="M2369.392,5650.389c-3.325,6.955-7.46,13.618-12.287,19.721           c-23.51,29.782-59.291,47.276-95.307,59.188c-36.059,11.845-73.632,19.169-108.745,33.608           c-68.858,28.478-125.366,85.383-153.901,154.11c-0.056-5.6,0.135-11.262,0.48-16.832           c1.452-21.277,5.866-42.255,13.249-62.176c6.668-17.982,15.641-35.052,26.949-50.565           c28.609-39.26,70.964-68.18,117.895-80.499c36.566-9.639,74.917-9.341,112.405-14.415           C2306.479,5687.616,2344.008,5676.501,2369.392,5650.389z"/></g><g><path fill="#45c8bc" d="M1825.648,5764.336c-1.391,10.494-3.877,21.211-7.85,31.438           c-16.427-14.886-35.816-26.547-56.848-34.482c20.686,15.039,36.544,34.021,46.813,54.86l-0.003,0.072           c-5.866,9.399-13.211,18.085-22.346,25.42c-19.912,16.107-46.052,24.229-71.472,28.689           c-32.321,5.667-67.929,5.216-90.851-12.696c-28.118-22.13-27.331-61.57-35.714-95           c-9.034-36.189-31.091-68.468-62.183-91.575c7.307-32.582,9.33-64.73,6.444-95.29           c-9.271,26.889-22.093,52.543-37.683,76.174c-27.399-14.434-56.512-27.718-68.102-53.556           c-8.269-18.393-5.798-40.023-3.195-60.705c6.253-49.325,12.503-98.578,18.755-147.902           c1.548-12.498,3.724-26.144,13.701-35.895c17.003-16.571,45.889-13.006,67.091-5.157           c24.09,8.906,45.718,21.08,65.436,35.151c-4.871,18.697-6.562,37.325-5.13,55.151c3.435-16.019,9.276-31.537,17.007-46.149           c27.312,21.299,51.14,46.377,73.45,71.778c10.754,12.249,21.424,24.503,31.924,36.844           c-29.011,20.192-54.694,43.11-76.339,67.668c31.933-17.81,65.461-31.229,98.909-40.22           c21.826,27.206,42.28,55.316,60.07,85.377C1814.213,5659.496,1832.805,5710.892,1825.648,5764.336z"/><path fill="#6ad3c9" d="M1740.579,5864.031c11.794,64.255,18.392,129.682,24.852,194.984h22.141           c-5.286-45.059-11.719-89.931-19.175-134.758c-3.851-21.854-7.946-43.835-12.789-65.566           c-6.583-30.054-14.407-59.98-24.096-89.285c-16.508-50.543-38.494-99.475-66.928-144.301           c-28.565-44.833-63.705-85.068-102.33-120.954c74.638,74.883,128.656,168.267,157.09,268.977           C1728.038,5803.057,1734.872,5833.358,1740.579,5864.031z"/></g><path fill="#fc808e" d="M1602.229,6027.533l86.356,410.405l0,0c4.06,19.518,21.259,33.507,41.194,33.507h247.355        c19.901,0,37.081-13.943,41.175-33.419l86.302-410.493H1602.229z"/><path fill="#fb6072" d="M2104.519,6027.615l-86.134,410.554c-4.091,19.177-21.382,33.322-41.183,33.322h-28.293        c1.255-11.946,1.884-24.205,1.884-36.465c0-163.153-112.225-295.499-250.544-295.499c-25.15,0-49.353,4.401-71.99,12.575        l-26.091-124.487H2104.519z"/><path fill="#bc4856" d="M2135.49,6064.806c-3.507,13.772-15.657,23.224-29.429,23.224h-498.755        c-14.039,0-26.193-9.452-29.433-23.224c-4.592-18.901,9.721-37.265,29.433-37.265h498.755        C2125.502,6027.542,2140.085,6045.905,2135.49,6064.806z"/></g><g><path fill="#45c8bc" d="M6097.112,5394.255c2.312,16.378,6.338,33.092,12.682,49.019           c25.471-23.477,55.612-41.954,88.37-54.631c-32.124,23.772-56.65,53.642-72.421,86.338l0.005,0.113           c9.291,14.609,20.882,28.084,35.253,39.424c31.326,24.904,72.278,37.249,112.057,43.883           c50.578,8.428,106.21,7.251,141.789-21.039c43.643-34.951,41.892-96.566,54.549-148.911           c13.638-56.666,47.675-107.394,95.952-143.911c-11.848-50.813-15.433-101.02-11.328-148.807           c14.842,41.892,35.215,81.807,59.888,118.525c42.621-22.917,87.935-44.058,105.704-84.583           c12.678-28.848,8.531-62.614,4.19-94.895c-10.422-76.989-20.838-153.865-31.261-230.854           c-2.585-19.507-6.165-40.801-21.883-55.905c-26.786-25.669-71.875-19.716-104.9-7.171           c-37.523,14.235-71.157,33.542-101.781,55.789c7.859,29.15,10.747,58.234,8.744,86.107           c-5.579-24.984-14.911-49.154-27.184-71.885c-42.395,33.642-79.295,73.142-113.819,113.126           c-16.642,19.281-33.152,38.571-49.395,57.991c45.597,31.168,86.03,66.637,120.177,104.725           c-50.132-27.406-102.698-47.932-155.08-61.537c-33.744,42.799-65.333,86.991-92.733,134.198           C6113.592,5230.288,6085.222,5310.843,6097.112,5394.255z"/><path fill="#6ad3c9" d="M6174.595 6059.016c3.764-55.631 7.68-111.242 11.961-166.796 6.452-81.962 14.9-163.918 25.454-245.382 4.35-33.156 9.441-66.191 15.276-99.097 8.568-47.936 19.127-95.375 32.536-142.191 22.479-78.854 53.522-155.349 94.874-226.386 41.107-71.155 92.641-136.223 150.633-194.839-59.48 57.125-112.755 120.954-156.098 191.615-43.462 70.411-76.742 146.905-101.58 226.01-14.529 46.196-26.201 93.136-35.887 140.447-7.08 33.782-13.038 67.683-18.502 101.708-12.792 81.71-23.223 163.548-31.914 245.753-5.788 56.38-11.187 112.771-16.428 169.158H6174.595zM6040.39 5563.261c0 0 0 0 0 .127 9.19 68.176 16.891 136.598 23.722 205.023.242 2.483.497 4.842.622 7.325 2.233 22.229 4.344 44.459 6.329 66.688 6.476 72.083 11.893 144.316 17.011 216.592h17.938c-6.254-76.802-12.837-153.604-20.664-230.378-.995-10.927-2.11-21.857-3.354-32.782-.622-6.087-1.244-12.293-1.866-18.504-6.083-55.507-12.664-111.142-20.114-166.527 0 0 0 0 0-.125-1.118-7.948-2.239-16.02-3.354-24.093-.622-4.718-1.244-9.314-1.985-14.032-2.732-19.497-5.587-38.871-8.568-58.367l-12.299 1.864c.748 5.215 1.495 10.432 2.239 15.647C6037.538 5542.275 6039.027 5552.829 6040.39 5563.261z"/><path fill="#45c8bc" d="M5565.708,5119.425c3.464,10.832,8.169,21.4,13.999,31.29           c28.382,48.247,77.166,80.999,127.412,105.639c50.324,24.551,103.768,42.798,152.188,70.95           c94.921,55.445,166.085,149.959,193.993,256.135c2.612,9.64,4.814,19.395,6.603,29.267c0,0,12.925-252.451-58.329-372.033           c-34.866-58.513-99.835-95.282-165.668-112.717c-39.962-10.559-82.662-13.16-119.341-32.227           c-43.442-22.653-73.742-68.563-77.516-117.405c-15.338,38.067-2.768,90.677,28.452,117.326           c-45.176-5.184-80.479-52.631-81.292-98.09C5557.145,5031.241,5552.228,5077.658,5565.708,5119.425z"/><path fill="#34968d" d="M5565.708,5119.425c3.464,10.832,8.169,21.4,13.999,31.29           c28.382,48.247,77.166,80.999,127.412,105.639c50.324,24.551,103.768,42.798,152.188,70.95           c94.921,55.445,166.085,149.959,193.993,256.135c1.206-8.173,2.063-16.487,2.678-24.698           c2.149-31.388-0.09-62.935-6.882-93.532c-6.136-27.621-15.822-54.37-29.236-79.313           c-33.932-63.124-90.029-113.894-156.147-141.32c-51.507-21.429-107.618-28.693-161.39-43.634           C5650.185,5186.463,5597.566,5162.684,5565.708,5119.425z"/><g><path fill="#45c8bc" d="M6654.983,5650.355c-3.326,6.955-7.46,13.617-12.288,19.721           c-23.51,29.782-59.291,47.276-95.306,59.188c-36.059,11.845-73.632,19.169-108.745,33.608           c-68.858,28.478-125.366,85.383-153.901,154.111c-2.644,6.233-5.021,12.581-7.134,19.044           c0,0,14.607-170.723,73.488-244.455c28.811-36.078,75.832-54.776,121.65-60.413c27.811-3.404,56.725-1.213,83.115-10.633           c31.263-11.206,55.846-39.24,62.885-71.692c6.789,26.978-6.505,61.148-29.929,76.165           c30.815,0.686,58.899-27.92,63.639-58.373C6668.868,5591.926,6667.889,5623.55,6654.983,5650.355z"/><path fill="#6ad3c9" d="M6241.37,6059.016c13.642-53.182,30.174-105.583,50.987-156.362           c1.369-3.602,2.855-7.203,4.35-10.806c0.123-0.123,0.123-0.25,0.242-0.374c2.981-7.447,6.212-14.652,9.441-21.981           l-11.304-5.214c-2.108,4.345-4.099,8.692-6.084,13.041c-1.859,3.97-3.599,7.945-5.465,12.045           c-24.398,54.808-43.75,111.773-59.803,169.651H6241.37z"/><path fill="#34968d" d="M6656.04,5650.389c-3.326,6.955-7.46,13.618-12.288,19.721           c-23.51,29.782-59.291,47.276-95.307,59.188c-36.059,11.845-73.632,19.169-108.745,33.608           c-68.858,28.478-125.366,85.383-153.901,154.11c-0.056-5.6,0.135-11.262,0.48-16.832           c1.452-21.277,5.866-42.255,13.25-62.176c6.668-17.982,15.641-35.052,26.949-50.565           c28.609-39.26,70.964-68.18,117.895-80.499c36.566-9.639,74.917-9.341,112.405-14.415           C6593.126,5687.616,6630.655,5676.501,6656.04,5650.389z"/></g><g><path fill="#45c8bc" d="M6112.295,5764.336c-1.391,10.494-3.877,21.211-7.851,31.438           c-16.427-14.886-35.816-26.547-56.848-34.482c20.687,15.039,36.544,34.021,46.813,54.86l-0.003,0.072           c-5.866,9.399-13.211,18.085-22.346,25.42c-19.912,16.107-46.053,24.229-71.473,28.689           c-32.321,5.667-67.929,5.216-90.851-12.696c-28.118-22.13-27.331-61.57-35.715-95           c-9.034-36.189-31.091-68.468-62.183-91.575c7.307-32.582,9.33-64.73,6.444-95.29           c-9.271,26.889-22.093,52.543-37.684,76.174c-27.398-14.434-56.512-27.718-68.102-53.556           c-8.269-18.393-5.798-40.023-3.195-60.705c6.253-49.325,12.502-98.578,18.755-147.902           c1.549-12.498,3.724-26.144,13.702-35.895c17.002-16.571,45.889-13.006,67.091-5.157           c24.09,8.906,45.718,21.08,65.436,35.151c-4.871,18.697-6.562,37.325-5.129,55.151           c3.435-16.019,9.276-31.537,17.007-46.149c27.313,21.299,51.14,46.377,73.451,71.778           c10.754,12.249,21.424,24.503,31.923,36.844c-29.011,20.192-54.694,43.11-76.339,67.668           c31.934-17.81,65.461-31.229,98.909-40.22c21.826,27.206,42.28,55.316,60.07,85.377           C6100.861,5659.496,6119.453,5710.892,6112.295,5764.336z"/><path fill="#6ad3c9" d="M6027.227,5864.031c11.794,64.255,18.392,129.682,24.853,194.984h22.141           c-5.286-45.059-11.719-89.931-19.175-134.758c-3.851-21.854-7.946-43.835-12.789-65.566           c-6.583-30.054-14.407-59.98-24.096-89.285c-16.508-50.543-38.494-99.475-66.928-144.301           c-28.565-44.833-63.705-85.068-102.33-120.954c74.638,74.883,128.656,168.267,157.09,268.977           C6014.686,5803.057,6021.52,5833.358,6027.227,5864.031z"/></g><path fill="#fc808e" d="M5888.877,6027.533l86.355,410.405l0,0c4.06,19.518,21.259,33.507,41.194,33.507h247.355        c19.901,0,37.081-13.943,41.175-33.419l86.302-410.493H5888.877z"/><path fill="#fb6072" d="M6391.167,6027.615l-86.134,410.554c-4.091,19.177-21.382,33.322-41.183,33.322h-28.293        c1.255-11.946,1.884-24.205,1.884-36.465c0-163.153-112.225-295.499-250.544-295.499c-25.15,0-49.353,4.401-71.99,12.575        l-26.09-124.487H6391.167z"/><path fill="#bc4856" d="M6422.138,6064.806c-3.507,13.772-15.658,23.224-29.43,23.224h-498.755        c-14.039,0-26.192-9.452-29.433-23.224c-4.592-18.901,9.721-37.265,29.433-37.265h498.755        C6412.15,6027.542,6426.732,6045.905,6422.138,6064.806z"/></g></svg>