<svg xmlns="http://www.w3.org/2000/svg" width="5835.367" height="5437.283" enable-background="new 0 0 8000 8000" viewBox="1082.316 1281.359 5835.367 5437.283"><path fill="#97b0e8" d="M2294.243,6471.491h3342.486c525.06-463.177,856.351-1140.896,856.351-1896.049    c0-1396.031-1131.59-2527.622-2527.622-2527.622c-1395.885,0-2527.627,1131.591-2527.627,2527.622    C1437.831,5330.595,1769.168,6008.314,2294.243,6471.491z" opacity=".1"/><ellipse cx="3248.3" cy="3980.132" fill="#97b0e8" opacity=".1" rx="1900.74" ry="2294.363"/><ellipse cx="4441.895" cy="3737.712" fill="#97b0e8" opacity=".1" rx="1830.191" ry="2209.204"/><path fill="#ffbda6" d="M3989.581,4229.869c-48.558-26.969-110.338-35.215-164.111-21.299    c-60.283,15.6-110.728,55.754-159.173,94.876c-5.338,4.311-1.553,13.628,3.095,18.675c4.648,5.048,11.932,7.026,18.781,6.625    c6.85-0.402,13.391-2.904,19.679-5.651c19.74-8.623,38.29-19.966,54.959-33.61c0,0-43.419,62.845-48.579,89.312    c-5.16,26.466,29.409,18.249,36.328,3.114c0,0,20.512,21.262,42.798-3.628c0,0,18.485,23.979,44.95-5.893    c26.465-29.871,74.339-32.747,87.859-31.638c13.52,1.11,74.694,13.324,74.694,13.324"/><path fill="none" stroke="#97b0e8" stroke-dasharray="18.87" stroke-miterlimit="10" stroke-width="7.548" d="    M3043.598,4769.546c-271.535-290.201-260.096-787.969,0.26-1088.239s723.176-388.843,1091.004-238.343    s629.281,514.464,692.291,906.863c42.42,264.178-3.325,551.329-169.148,761.311c-220.263,278.919-600.601,371.646-954.693,402.152    c-299.576,25.809-607.713,18.819-891.768-79.794c-284.055-98.613-542.921-298.898-659.865-575.91    c-165.647-392.376-9.497-869.301,298.298-1163.681c370.817-354.655,950.11-472.737,1430.158-291.521    c480.048,181.216,836.801,652.651,880.751,1163.879c24.976,290.512-51.708,598.932-252.351,810.505    c-201.292,212.258-502.056,304.358-794.05,322.019c-482.314,29.173-1003.65-151.726-1264.031-558.764    c-283.677-443.456-188.964-1051.127,105.092-1487.77c404.053-599.976,1170.899-937.429,1883.957-815.86    s1329.191,702.889,1478.149,1410.732c65.776,312.564,41.15,655.857-130.816,925.025    c-193.043,302.158-540.313,469.629-884.803,569.085c-501.308,144.73-1046.567,175.021-1541.642,10.228    c-495.075-164.792-931.827-541.257-1099.835-1035.25c-187.324-550.79-17.072-1184.67,354.438-1632.375    s919.554-723.385,1486.29-854.797c437.447-101.433,936.861-110.816,1292.285,163.633    c263.52,203.484,402.188,529.009,488.368,850.6c130.176,485.769,163.876,1008.012,17.016,1489    c-175.384,574.408-612.027,1061.376-1160.037,1307.117c-548.01,245.741-1197.704,248.969-1752.011,17.783    c-374.982-156.394-707.814-418.06-935.067-754.848c-227.253-336.789-345.818-748.62-316.51-1153.85    c49.052-678.22,514.331-1286.549,1115.946-1603.484c507.911-267.571,1112.75-346.009,1672.111-216.846    c559.362,129.163,1068.574,464.847,1407.749,928.019c276.914,378.149,441.872,852.01,387.805,1317.58    c-45.509,391.885-243.722,757.393-518.71,1040.282s-623.392,487.142-990.961,630.452    c-559.322,218.072-1183.395,299.122-1765.839,153.672s-1115.508-533.981-1366.823-1079.176    c-306.455-664.812-159.584-1472.085,220.766-2097.563c220.698-362.934,520.353-684.1,891.682-890.361    c371.329-206.261,817.366-290.875,1230.321-191.393c412.955,99.482,783.72,394.196,935.323,790.99    c123.313,322.75,98.369,687.105-2.212,1017.646s-272.241,634.21-442.566,934.814" opacity=".3"/><path fill="#4d64de" d="M5231.691,6292.899l-59.298,46.122c-121.897-156.425-301.872-250.256-497.95-260.627              l-0.489,214.749l-70.892-0.122l0.489-214.871c-196.204,9.64-376.667,102.372-499.171,258.309l-59.054-46.488              c137.024-174.118,339.084-277.466,558.469-286.861l1.829-862.029l70.773,0.122l-1.835,862.029              C4893.947,6013.726,5095.519,6118.172,5231.691,6292.899z"/><path fill="#fb6072" d="M4754.679,5121.748c-0.152,62.767-51.173,113.541-113.939,113.389             c-62.768-0.152-113.435-51.173-113.283-113.939s51.066-113.434,113.834-113.282             C4704.056,5008.067,4754.831,5058.982,4754.679,5121.748z"/><path fill="#f8c14a" d="M4831.636,5068.043l-0.063,26.223c-0.033,13.333-10.867,24.114-24.199,24.082             l-332.594-0.806c-13.333-0.033-24.114-10.867-24.082-24.199l0.063-26.223L4831.636,5068.043z"/><circle cx="5227.83" cy="6360.447" r="111.044" fill="#202a5c"/><circle cx="5227.83" cy="6360.447" r="65.924" fill="#f3f3f1"/><circle cx="4638.332" cy="6359.018" r="111.044" fill="#202a5c"/><circle cx="4638.332" cy="6359.018" r="65.924" fill="#f3f3f1"/><circle cx="4048.833" cy="6357.588" r="111.044" fill="#202a5c"/><circle cx="4048.833" cy="6357.588" r="65.924" fill="#f3f3f1"/><path fill="#f8c14a" d="M4689.771,5645.686v229.528c0,6.592-5.181,12.006-11.771,12.006h-79.102       c-6.592,0-12.006-5.414-12.006-12.006v-229.528c0-6.587,5.414-12.001,12.006-12.001H4678       C4684.589,5633.685,4689.771,5639.099,4689.771,5645.686z"/><g><path fill="#f8c14a" d="M4460.664,4968.764v-540.642h-790.841l-173.848,540.642H4460.664z M3800.693,4523.316h564.778         v406.939h-695.648L3800.693,4523.316z"/><polygon fill="#fad077" points="3612.789 4968.764 3786.733 4428.112 3669.865 4428.112 3495.916 4968.764"/><rect width="84.837" height="406.887" x="4280.618" y="4523.358" fill="#f6b11d"/></g><path fill="#45c8bc" d="M5539.752,3370.352v1499.472H4322.936l192.671-1506.943c3.76-29.406,28.787-51.438,58.433-51.438      h906.804C5513.378,3311.444,5539.752,3337.818,5539.752,3370.352z"/><path fill="#34968d" d="M5539.701,3370.069v1499.755h-173.496V3311.16h114.587      C5513.327,3311.16,5539.701,3337.535,5539.701,3370.069z"/><path fill="#34968d" d="M5539.701,4869.824v159.777c0,20.938-16.974,37.911-37.912,37.911H3709.153      c-54.59,0-98.844-44.254-98.844-98.844l0,0c0-54.59,44.254-98.844,98.844-98.844H5539.701z"/><path fill="#6ad3c9" d="M4673.901,5067.704h-965.023c-54.429,0-98.656-44.227-98.656-99.224      c0-54.429,44.227-98.656,98.656-98.656h965.023c-54.429,0-98.656,44.227-98.656,98.656      C4575.245,5023.477,4619.472,5067.704,4673.901,5067.704z"/><g><path fill="#f8c14a" d="M5539.752,4968.764v-540.642h-790.841l-173.848,540.642H5539.752z M4879.781,4523.316h564.778         v406.939h-695.648L4879.781,4523.316z"/><polygon fill="#fad077" points="4691.878 4968.764 4865.821 4428.112 4748.954 4428.112 4575.005 4968.764"/><rect width="84.837" height="406.887" x="5359.706" y="4523.358" fill="#f6b11d"/></g><g><polygon fill="#ffbda6" points="3381.391 5728.914 3356.133 5849.34 3521.743 5945.413 3559.324 5766.232"/><path fill="#45c8bc" d="M3381.831,6111.988l7.72-36.808l-44.527,29.088l-331.543-69.536         c3.661-8.665,36.943-81.069,135.154-106.012c104.527-26.547,179.604-95.624,179.604-95.624l212.446,123.322         c0,0-14.369,44.447-13.015,86.132c1.153,35.512-14.781,82.692-19.539,95.927L3381.831,6111.988z"/><path fill="#2d2c2b" d="M3517.773 6107.802c-3.793 13.868-7.675 25.199-9.643 30.675l-126.301-26.49 6.569-31.32L3517.773 6107.802zM3382.91 6079.517l-37.886 24.752-331.542-69.537c1.32-3.125 6.579-14.59 17.258-29.078L3382.91 6079.517zM3282.039 5849.903l38.475 58.897c2.737 4.19 8.51 5.401 12.778 2.613 4.19-2.737 5.401-8.51 2.664-12.7l-38.475-58.898c-2.737-4.19-8.51-5.401-12.701-2.664C3280.512 5839.939 3279.302 5845.712 3282.039 5849.903zM3245.974 5873.462l38.475 58.897c2.737 4.19 8.51 5.401 12.778 2.613 4.19-2.737 5.401-8.511 2.664-12.701l-38.475-58.897c-2.737-4.19-8.51-5.401-12.7-2.664C3244.448 5863.499 3243.237 5869.272 3245.974 5873.462zM3209.91 5897.021l38.475 58.898c2.737 4.19 8.51 5.401 12.778 2.613 4.19-2.737 5.401-8.51 2.664-12.701l-38.475-58.897c-2.737-4.19-8.51-5.401-12.701-2.664C3208.383 5887.058 3207.173 5892.831 3209.91 5897.021z"/><g><polygon fill="#ffbda6" points="4203.419 6055.467 4220.269 6177.355 4408.581 6211.927 4383.511 6030.572"/><path fill="#45c8bc" d="M4333.065,6415.937l-5.15-37.255l-32.104,42.405l-335.565,46.387         c0.524-9.392,7.428-88.78,91.467-145.392c89.443-60.253,136.816-150.608,136.816-150.608l241.595,44.422         c0,0,1.468,46.689,16.805,85.474c13.065,33.041,13.981,82.832,13.968,96.896L4333.065,6415.937z"/><path fill="#2d2c2b" d="M4459.626 6366.136c1.108 14.334 1.276 26.311 1.271 32.13l-127.833 17.671-4.382-31.7L4459.626 6366.136zM4323.127 6385.005l-27.315 36.082-335.564 46.387c.188-3.387 1.271-15.955 6.437-33.196L4323.127 6385.005zM4150.708 6202.881l56.089 42.465c3.99 3.021 9.833 2.214 12.911-1.851 3.021-3.99 2.213-9.833-1.777-12.854l-56.089-42.465c-3.991-3.021-9.834-2.213-12.855 1.777C4145.91 6194.017 4146.718 6199.86 4150.708 6202.881zM4124.706 6237.226l56.089 42.465c3.99 3.021 9.833 2.214 12.911-1.851 3.021-3.99 2.213-9.833-1.777-12.854l-56.089-42.465c-3.99-3.021-9.833-2.213-12.854 1.777C4119.907 6228.362 4120.715 6234.205 4124.706 6237.226zM4098.703 6271.57l56.089 42.465c3.991 3.021 9.833 2.214 12.911-1.851 3.021-3.99 2.213-9.833-1.777-12.854l-56.089-42.465c-3.99-3.021-9.833-2.213-12.854 1.777C4093.904 6262.707 4094.712 6268.549 4098.703 6271.57z"/></g><path fill="#2d2c2b" d="M5176.249,4556.632c0,0,69.285,257.406-73.278,348.488       c-52.92,33.81-714.074,15.02-714.074,15.02l171.088,1172.996h-538.048l-83.994-964.364v-489.273L5176.249,4556.632z"/><path fill="#2d2c2b" d="M5173.836,4544.943c0,0,71.698,269.095-70.865,360.177       c-52.92,33.81-714.074,15.02-714.074,15.02l171.088,1172.996h-538.048l-83.994-964.364l6.549-583.829H5173.836z"/><path fill="#191817" d="M3681.206,4544.943c0,0-231.357,573.621-436.695,1154.931l461.401,197.986       c0,0,513.109-1285.952,718.447-1352.47"/><g><path fill="#2d2c2b" d="M4909.525,3254.835c-3.678-36.066,20.639-72.678,54.882-84.578       c34.244-11.9,75.187,1.037,97.504,29.606c22.318,28.569,25.256,70.451,8.417,102.556       c-16.838,32.105-52.044,53.306-88.272,54.663"/><path fill="#f8c14a" d="M4847.212,3311.766c-3.475-34.077,19.5-68.67,51.855-79.914       c32.355-11.244,71.04,0.98,92.127,27.974c21.087,26.993,23.863,66.566,7.953,96.9s-49.174,50.366-83.404,51.649"/><path fill="#2d2c2b" d="M4527.501,3733.055c0.252,2.528,0.379,5.182,0.632,7.71c0-41.839,28.567-77.99,58.397-107.315       c29.831-29.325,63.707-57.007,79.886-95.686c1.391-3.16,2.528-6.446,3.54-9.733c7.837-23.511,8.975-49.17,6.32-73.945       c-2.907-26.671,0.885-53.721-12.64-76.22c-0.758-1.264-1.517-2.528-2.401-3.792c-31.727-45.631-15.674-113.761,27.05-149.28       c42.724-35.393,104.534-41.333,158.002-26.292c85.321,24.143,153.578,100.616,167.862,188.212       c5.309,32.106,3.792,65.476,12.261,96.95c9.986,36.909,33.117,69.015,58.145,97.961c25.027,28.946,52.709,55.869,74.703,87.217       c21.868,31.474,38.047,68.636,36.024,106.936c-1.896,38.173-25.28,76.852-61.81,88.481"/><path fill="none" stroke="#000" stroke-miterlimit="10" stroke-width="1.075" d="M4715.713,3701.075v15.168       c0,52.457,40.954,89.113,99.479,89.113c46.389,0,100.995-25.154,118.69-81.403c-91.008-18.328-194.153-20.729-194.153-20.729       S4730.376,3702.213,4715.713,3701.075z"/><path fill="#4d64de" d="M3888.867,4174.409l9.68,176.098h452.72l1.861,71.669h868.768c0,0-8.376-359.271-48.399-458.49       c-40.023-99.405-52.122-150.968-133.47-203.277c-24.572-15.637-61.989-27.178-102.383-35.742       c-1.303-0.185-2.42-0.558-3.723-0.744c-91.028-18.242-194.155-20.662-194.155-20.662s-9.308-1.117-24.015-2.234       c-1.302-0.186-2.605-0.186-3.908-0.373c-43.746-3.164-126.397-6.143-162.511,13.404       c-50.446,27.177-237.901,430.753-237.901,430.753L3888.867,4174.409z"/><path fill="#2d2c2b" d="M4332.249,4266.792c0,35.098-53.971,63.593-120.584,63.593       c-66.797,0-120.768-28.495-120.768-63.593c0-35.099,53.971-63.404,120.768-63.404       C4278.277,4203.387,4332.249,4231.693,4332.249,4266.792z"/><path fill="none" stroke="#000" stroke-miterlimit="10" stroke-width="1.49" d="M4518.087,3959.368       c-41.199,20.01-72.883,58.67-84.412,102.997c-11.529,44.327-2.697,93.525,23.531,131.073"/><path fill="#ffbda6" d="M4449.839,4224.553c-39.563-38.987-96.878-63.476-152.414-64.468       c-62.259-1.112-121.614,24.067-178.766,48.788c-6.298,2.724-5.146,12.714-2.019,18.822c3.126,6.108,9.614,9.965,16.322,11.412       c6.707,1.447,13.679,0.788,20.473-0.174c21.329-3.021,42.238-8.984,61.953-17.666c0,0-58.662,48.923-70.721,73.041       c-12.059,24.118,23.448,25.458,34.167,12.729c0,0,14.069,25.979,42.206,7.965c0,0,11.389,28.053,44.886,6.359       c33.498-21.693,80.394-11.645,93.123-6.955c12.729,4.689,68.398,32.839,68.398,32.839"/><path fill="none" stroke="#000" stroke-miterlimit="10" stroke-width="1.49" d="M4221.041,4315.001       c0,0,32.015-33.65,59.696-38.165c27.681-4.515,70.889,9.028,70.889,9.028"/><path fill="none" stroke="#000" stroke-miterlimit="10" stroke-width="1.49" d="M4178.834 4307.037c0 0 73.478-75.342 95.404-79.211 21.926-3.87 81.255 25.822 81.255 25.822M4215.388 4221.267c0 0 32.449-23.751 51.776-25.041 19.328-1.29 65.114 16.767 65.114 16.767"/><path fill="#fff" d="M4711.842,3700.654v15.637c0,54.729,42.442,92.889,103.313,92.889       c48.027,0,104.431-26.062,122.488-84.513c-1.303-0.185-2.42-0.558-3.723-0.744c-91.028-18.242-194.155-20.662-194.155-20.662       s-9.308-1.117-24.015-2.234C4714.448,3700.841,4713.145,3700.841,4711.842,3700.654z"/><path fill="#ffad97" d="M4739.765,3545.776v170.515c0,87.119,144.639,86.373,171.444,0v-170.515H4739.765z"/><path fill="#ffbda6" d="M4675.729,3503.892c-2.793,17.871-5.213,35.927-5.399,53.984v3.908       c-0.558,35.928,7.26,70.179,41.14,84.141c33.507,13.961,113.366-2.047,169.397-76.508c17.313,6.887,38.72,3.164,52.681-9.494       c16.009-14.706,20.663-40.395,10.797-59.755c-4.654-9.308-13.961-17.498-24.013-18.8c11.169-49.517,5.771-90.284,5.771-90.284       c-142.779-13.217-184.849-104.058-184.849-104.058c-18.987,56.217-77.625,90.841-77.625,90.841       c13.59,22.525,9.68,49.517,12.658,76.136C4677.962,3470.572,4678.148,3487.511,4675.729,3503.892z"/><linearGradient id="a" x1="5032.524" x2="5064.681" y1="3501.989" y2="3501.989" gradientTransform="matrix(-1 0 0 1 9777.872 0)" gradientUnits="userSpaceOnUse"><stop offset="0" stop-color="#41262f"/><stop offset="1" stop-color="#543843"/></linearGradient><path fill="url(#a)" d="M4734.357,3470.64c-1.129,7.87-5.745,14.081-10.075,20.436       c-4.39,6.317-9.065,13.187-10.773,21.699c-0.744,4.295-0.205,8.912,1.812,12.982c1.896,4.059,6.329,7.682,11.128,7.58       c9.796,0.093,15.264-7.903,18.898-14.384c-5.299,5.562-11.831,11.138-18.546,10.103c-6.432-0.784-9.333-8.796-7.79-15.363       c0.925-7.025,5.204-13.508,8.91-20.369C4731.688,3486.584,4735.355,3478.652,4734.357,3470.64z"/><linearGradient id="b" x1="5004.713" x2="5071.631" y1="3576.106" y2="3576.106" gradientTransform="matrix(-1 0 0 1 9777.872 0)" gradientUnits="userSpaceOnUse"><stop offset="0" stop-color="#41262f"/><stop offset="1" stop-color="#543843"/></linearGradient><path fill="url(#b)" d="M4773.159,3552.32c-19.456,13.08-46.096,14.606-66.918,3.833       c2.441,10.415,5.793,21.465,11.951,30.213c6.157,8.748,16.845,15.187,27.346,13.147c8.69-1.688,15.527-8.82,19.2-16.875       S4772.18,3561.119,4773.159,3552.32z"/><linearGradient id="c" x1="4971.908" x2="5000.348" y1="3432.788" y2="3432.788" gradientTransform="matrix(-1 0 0 1 9777.872 0)" gradientUnits="userSpaceOnUse"><stop offset="0" stop-color="#41262f"/><stop offset="1" stop-color="#543843"/></linearGradient><path fill="url(#c)" d="M4777.523,3432.851c0,7.837,6.447,14.157,14.284,14.157s14.157-6.32,14.157-14.157         c0-7.837-6.32-14.283-14.157-14.283S4777.523,3425.014,4777.523,3432.851z"/><linearGradient id="d" x1="4944.802" x2="5000.412" y1="3395.749" y2="3395.749" gradientTransform="matrix(-1 0 0 1 9777.872 0)" gradientUnits="userSpaceOnUse"><stop offset="0" stop-color="#41262f"/><stop offset="1" stop-color="#543843"/></linearGradient><path fill="url(#d)" d="M4826.416,3409.701l6.653-7.599c-14.797-12.943-34.74-20.306-54.809-20.306         c-0.272,0-0.527,0-0.8,0l0.109,10.107c0.218,0,0.455,0,0.691,0C4795.93,3391.904,4813.437,3398.376,4826.416,3409.701z"/><linearGradient id="e" x1="5057.033" x2="5085.475" y1="3428.311" y2="3428.311" gradientTransform="matrix(-1 0 0 1 9777.872 0)" gradientUnits="userSpaceOnUse"><stop offset="0" stop-color="#41262f"/><stop offset="1" stop-color="#543843"/></linearGradient><path fill="url(#e)" d="M4720.185,3432.656c-2.354,7.475-10.402,11.566-17.877,9.211         c-7.475-2.354-11.604-10.281-9.25-17.756s10.319-11.725,17.794-9.37C4718.328,3417.095,4722.54,3425.181,4720.185,3432.656z"/><linearGradient id="f" x1="5042.295" x2="5101.431" y1="3387.872" y2="3387.872" gradientTransform="matrix(-1 0 0 1 9777.872 0)" gradientUnits="userSpaceOnUse"><stop offset="0" stop-color="#41262f"/><stop offset="1" stop-color="#543843"/></linearGradient><path fill="url(#f)" d="M4680.513,3395.903c15.979-7.017,34.903-7.853,51.937-2.327l3.127-9.598         c-19.361-6.326-40.902-5.363-59.136,2.654L4680.513,3395.903z"/><path fill="none" stroke="#000" stroke-miterlimit="10" stroke-width="1.49" d="M4921.35,3498.52       c8.901,3.03,15.173,11.934,16.107,21.291c0.935,9.357-3.034,18.84-9.572,25.599s-15.426,10.945-24.625,12.893"/><linearGradient id="g" x1="4663.641" x2="4862.017" y1="3256.218" y2="3256.218" gradientTransform="matrix(-1 0 0 1 9777.872 0)" gradientUnits="userSpaceOnUse"><stop offset="0" stop-color="#41262f"/><stop offset="1" stop-color="#2d2c2b"/></linearGradient><path fill="none" stroke="url(#g)" stroke-miterlimit="10" stroke-width="1.49" d="M4916.598,3223.735       c2.435-31.709,26.867-59.456,56.891-69.94c30.024-10.485,64.203-5.114,92.053,10.24c13.38,7.377,25.744,17.181,33.982,30.049       c10.12,15.807,13.34,35.091,13.879,53.852c0.756,26.323-3.611,53.472-17.333,75.948c-13.722,22.476-37.885,39.548-64.21,40.192       "/><linearGradient id="h" x1="4684.775" x2="4853.467" y1="3259.153" y2="3259.153" gradientTransform="matrix(-1 0 0 1 9777.872 0)" gradientUnits="userSpaceOnUse"><stop offset="0" stop-color="#41262f"/><stop offset="1" stop-color="#2d2c2b"/></linearGradient><path fill="none" stroke="url(#h)" stroke-miterlimit="10" stroke-width="1.49" d="M4925.078,3205.755       c12.437-26.144,38.643-45.239,67.339-49.069c28.697-3.829,58.993,7.727,77.85,29.694c22.763,26.518,27.521,65.811,16.157,98.86       s-37.182,59.895-67.543,77.202"/><linearGradient id="i" x1="4567.563" x2="5131.685" y1="3522.258" y2="3522.258" gradientTransform="matrix(-1 0 0 1 9777.872 0)" gradientUnits="userSpaceOnUse"><stop offset="0" stop-color="#41262f"/><stop offset="1" stop-color="#2d2c2b"/></linearGradient><path fill="none" stroke="url(#i)" stroke-miterlimit="10" stroke-width="1.49" d="M4646.932,3321.313       c0-65.095,48.274-127.712,106.687-145.414c58.412-17.702,124.236-2.076,173.017,34.609       c48.78,36.685,81.203,92.51,96.23,151.667c12.438,48.967,14.075,101.477,37.199,146.396       c29.335,56.985,88.738,92.927,122.226,147.575c40.889,66.726,35.293,158.771-13.378,220.052"/><polyline fill="#4d64de" points="4956.755 4101.771 4977.037 4293.181 4454.781 4197.476 4424.359 4364.167 4613.232 4422.198 5144.362 4422.198"/><polygon points="4957.993 4113.454 4944.858 4257.953 4473.398 4200.888 4977.037 4293.181" opacity=".1"/><polyline fill="none" stroke="#000" stroke-miterlimit="10" stroke-width="1.075" points="4956.755 4101.771 4977.037 4293.181 4454.781 4197.476 4424.359 4364.167 4613.232 4422.198 5144.362 4422.198"/></g></g><g><path fill="#45c8bc" d="M5943.579,5253.95c2.597,18.4,7.121,37.177,14.247,55.069            c28.615-26.375,62.477-47.132,99.278-61.374c-36.089,26.707-63.644,60.262-81.361,96.995l0.006,0.127            c10.438,16.412,23.46,31.55,39.604,44.291c35.193,27.978,81.2,41.847,125.888,49.299            c56.821,9.468,119.321,8.146,159.291-23.636c49.03-39.265,47.063-108.486,61.283-167.292            c15.32-63.66,53.56-120.65,107.795-161.674c-13.311-57.086-17.338-113.489-12.726-167.175            c16.674,47.063,39.562,91.905,67.28,133.156c47.881-25.745,98.789-49.496,118.751-95.023            c14.243-32.409,9.584-70.343,4.708-106.608c-11.709-86.492-23.411-172.857-35.12-259.35            c-2.904-21.916-6.926-45.837-24.584-62.806c-30.092-28.837-80.747-22.15-117.848-8.056            c-42.155,15.992-79.94,37.682-114.345,62.675c8.829,32.748,12.074,65.422,9.824,96.736            c-6.267-28.068-16.751-55.222-30.54-80.758c-47.627,37.793-89.082,82.169-127.869,127.09            c-18.696,21.662-37.244,43.332-55.492,65.149c51.226,35.015,96.65,74.863,135.011,117.651            c-56.32-30.789-115.374-53.848-174.222-69.132c-37.909,48.082-73.397,97.729-104.179,150.762            C5962.094,5069.744,5930.222,5160.242,5943.579,5253.95z"/><path fill="#6ad3c9" d="M6030.626 6000.767c4.229-62.498 8.628-124.973 13.438-187.384 7.248-92.079 16.739-184.152 28.595-275.672 4.887-37.249 10.607-74.361 17.163-111.329 9.626-53.854 21.488-107.147 36.552-159.743 25.253-88.588 60.129-174.524 106.585-254.33 46.181-79.938 104.076-153.038 169.226-218.89-66.822 64.176-126.673 135.884-175.366 215.268-48.827 79.102-86.215 165.038-114.118 253.908-16.323 51.899-29.435 104.632-40.317 157.784-7.953 37.952-14.646 76.037-20.786 114.263-14.372 91.795-26.089 183.735-35.853 276.088-6.502 63.34-12.568 126.691-18.456 190.038H6030.626zM5879.856 5443.817c0 0 0 0 0 .143 10.324 76.591 18.976 153.459 26.65 230.331.272 2.79.558 5.439.699 8.229 2.509 24.973 4.88 49.947 7.11 74.92 7.275 80.98 13.36 162.129 19.11 243.327h20.152c-7.026-86.282-14.422-172.564-23.215-258.815-1.118-12.276-2.371-24.555-3.768-36.829-.699-6.838-1.397-13.811-2.096-20.788-6.835-62.359-14.227-124.861-22.597-187.082 0 0 0 0 0-.141-1.256-8.929-2.516-17.997-3.769-27.067-.699-5.3-1.397-10.464-2.23-15.764-3.07-21.903-6.277-43.668-9.626-65.572l-13.817 2.094c.839 5.859 1.679 11.72 2.515 17.579C5876.652 5420.242 5878.324 5432.098 5879.856 5443.817z"/><path fill="#45c8bc" d="M5346.581,4945.196c3.892,12.169,9.178,24.042,15.727,35.152            c31.885,54.202,86.69,90.997,143.139,118.679c56.535,27.581,116.576,48.081,170.973,79.708            c106.638,62.289,186.586,168.469,217.939,287.751c2.935,10.83,5.408,21.79,7.418,32.879c0,0,14.52-283.612-65.53-417.956            c-39.169-65.736-112.158-107.043-186.118-126.631c-44.895-11.862-92.866-14.785-134.072-36.205            c-48.804-25.45-82.845-77.026-87.084-131.897c-17.231,42.766-3.11,101.87,31.963,131.808            c-50.752-5.824-90.412-59.128-91.326-110.198C5336.96,4846.127,5331.437,4898.273,5346.581,4945.196z"/><path fill="#34968d" d="M5346.581,4945.196c3.892,12.169,9.178,24.042,15.727,35.152            c31.885,54.202,86.69,90.997,143.139,118.679c56.535,27.581,116.576,48.081,170.973,79.708            c106.638,62.289,186.586,168.469,217.939,287.751c1.354-9.182,2.318-18.522,3.008-27.746            c2.414-35.262-0.101-70.703-7.732-105.078c-6.894-31.031-17.775-61.082-32.845-89.103            c-38.121-70.916-101.142-127.953-175.421-158.765c-57.865-24.074-120.902-32.234-181.311-49.02            C5441.485,5020.51,5382.371,4993.795,5346.581,4945.196z"/><g><path fill="#45c8bc" d="M6570.313,5541.663c-3.736,7.813-8.381,15.298-13.804,22.155            c-26.412,33.458-66.61,53.112-107.071,66.495c-40.51,13.307-82.721,21.535-122.168,37.756            c-77.357,31.993-140.84,95.922-172.898,173.133c-2.97,7.002-5.642,14.134-8.015,21.396c0,0,16.411-191.797,82.559-274.63            c32.368-40.532,85.193-61.538,136.667-67.87c31.243-3.825,63.727-1.363,93.375-11.946            c35.122-12.588,62.739-44.084,70.647-80.542c7.626,30.309-7.309,68.696-33.623,85.566            c34.619,0.771,66.169-31.367,71.494-65.578C6585.911,5476.021,6584.811,5511.549,6570.313,5541.663z"/><path fill="#6ad3c9" d="M6105.644,6000.767c15.325-59.746,33.898-118.615,57.281-175.663            c1.538-4.047,3.207-8.093,4.887-12.14c0.138-0.138,0.138-0.281,0.272-0.42c3.349-8.366,6.979-16.46,10.606-24.694            l-12.699-5.857c-2.368,4.882-4.605,9.765-6.835,14.65c-2.089,4.46-4.044,8.925-6.14,13.532            c-27.409,61.573-49.149,125.569-67.185,190.592H6105.644z"/><path fill="#34968d" d="M6571.499,5541.701c-3.736,7.813-8.381,15.299-13.804,22.156            c-26.412,33.458-66.61,53.111-107.071,66.494c-40.51,13.307-82.721,21.535-122.168,37.756            c-77.358,31.993-140.84,95.923-172.898,173.134c-0.063-6.291,0.152-12.652,0.54-18.91            c1.631-23.903,6.589-47.471,14.885-69.851c7.492-20.203,17.571-39.379,30.275-56.807            c32.141-44.106,79.724-76.596,132.448-90.436c41.08-10.829,84.164-10.494,126.279-16.194            C6500.819,5583.523,6542.981,5571.036,6571.499,5541.701z"/></g><g><path fill="#45c8bc" d="M5960.637,5669.712c-1.563,11.789-4.355,23.83-8.819,35.318            c-18.455-16.724-40.237-29.824-63.865-38.738c23.24,16.895,41.054,38.22,52.592,61.631l-0.003,0.081            c-6.591,10.56-14.842,20.318-25.105,28.558c-22.37,18.095-51.737,27.219-80.295,32.23            c-36.311,6.366-76.314,5.859-102.065-14.264c-31.589-24.862-30.705-69.17-40.123-106.726            c-10.149-40.656-34.929-76.919-69.858-102.879c8.209-36.604,10.481-72.72,7.239-107.052            c-10.416,30.208-24.82,59.028-42.335,85.577c-30.781-16.216-63.487-31.14-76.508-60.167            c-9.29-20.663-6.514-44.964-3.59-68.198c7.024-55.414,14.046-110.746,21.07-166.159            c1.74-14.041,4.184-29.371,15.393-40.326c19.102-18.617,51.553-14.612,75.373-5.793            c27.064,10.006,51.362,23.681,73.514,39.489c-5.473,21.005-7.373,41.932-5.763,61.959            c3.858-17.996,10.421-35.429,19.106-51.846c30.684,23.928,57.453,52.102,82.517,80.638            c12.082,13.761,24.068,27.528,35.864,41.392c-32.592,22.685-61.445,48.432-85.763,76.021            c35.875-20.008,73.542-35.084,111.118-45.185c24.52,30.564,47.499,62.144,67.485,95.916            C5947.791,5551.931,5968.677,5609.672,5960.637,5669.712z"/><path fill="#6ad3c9" d="M5865.068,5781.714c13.25,72.187,20.662,145.689,27.92,219.053h24.874            c-5.938-50.621-13.166-101.031-21.542-151.392c-4.326-24.551-8.927-49.245-14.368-73.659            c-7.396-33.764-16.185-67.384-27.07-100.306c-18.546-56.782-43.245-111.754-75.189-162.113            c-32.091-50.367-71.568-95.569-114.961-135.884c83.851,84.126,144.537,189.037,176.481,302.178            C5850.979,5713.214,5858.656,5747.255,5865.068,5781.714z"/></g><path fill="#fc808e" d="M5709.64,5965.398l97.015,461.063l0,0c4.561,21.927,23.883,37.643,46.279,37.643h277.888         c22.357,0,41.658-15.665,46.258-37.544l96.955-461.163H5709.64z"/><path fill="#fb6072" d="M6273.931,5965.49l-96.766,461.231c-4.596,21.545-24.021,37.436-46.267,37.436h-31.786         c1.41-13.42,2.117-27.192,2.117-40.966c0-183.292-126.078-331.975-281.47-331.975c-28.255,0-55.445,4.945-80.876,14.127         l-29.311-139.854H6273.931z"/><path fill="#bc4856" d="M6308.725,6007.272c-3.94,15.472-17.59,26.091-33.062,26.091h-560.319         c-15.772,0-29.426-10.619-33.066-26.091c-5.159-21.234,10.92-41.865,33.066-41.865h560.319         C6297.504,5965.407,6313.887,5986.038,6308.725,6007.272z"/></g><g><rect width="1827.729" height="2364.1" x="2188.319" y="1572.895" fill="#fb6072"/><rect width="1675.973" height="1848.394" x="2264.199" y="1749.051" fill="#dcdcd6"/><rect width="1675.973" height="1805.01" x="2264.199" y="1749.051" fill="#f3f3f1"/><rect width="201.911" height="74.95" x="2382.231" y="2182.616" fill="#fb6072"/><rect width="201.911" height="74.95" x="2588.564" y="2182.616" fill="#f8c14a"/><rect width="201.911" height="74.95" x="2794.897" y="2182.616" fill="#4d64de"/><rect width="201.911" height="74.95" x="3001.23" y="2182.616" fill="#7ec6f7"/><rect width="201.911" height="74.95" x="3207.563" y="2182.616" fill="#fb6072"/><rect width="201.911" height="74.95" x="3413.896" y="2182.616" fill="#45c8bc"/><rect width="201.911" height="74.95" x="3620.229" y="2182.616" fill="#2a387a"/><path fill="#2a387a" d="M2378.016,2275.361v1202.008h1448.34V2275.361H2378.016z M3817.924,2570.828h-195.977v-287.036     h195.977V2570.828z M2994.861,2872.149h-197.788v-292.89h197.788V2872.149z M3003.292,2579.259h197.788v292.89h-197.788V2579.259     z M2994.861,2880.58v292.89h-197.788v-292.89H2994.861z M3003.292,2880.58h197.788v292.89h-197.788V2880.58z M3209.51,2880.58     h197.788v292.89H3209.51V2880.58z M3209.51,2872.149v-292.89h197.788v292.89H3209.51z M3415.729,2579.259h197.788v292.89     h-197.788V2579.259z M3415.729,2570.828v-287.036h197.788v287.036H3415.729z M3407.298,2570.828H3209.51v-287.036h197.788     V2570.828z M3201.079,2570.828h-197.788v-287.036h197.788V2570.828z M2994.861,2570.828h-197.788v-287.036h197.788V2570.828z      M2788.642,2570.828h-197.788v-287.036h197.788V2570.828z M2788.642,2579.259v292.89h-197.788v-292.89H2788.642z      M2582.423,2872.149h-195.977v-292.89h195.977V2872.149z M2582.423,2880.58v292.89h-195.977v-292.89H2582.423z M2590.854,2880.58     h197.788v292.89h-197.788V2880.58z M2788.642,3181.902v287.037h-197.788v-287.037H2788.642z M2797.073,3181.902h197.788v287.037     h-197.788V3181.902z M3003.292,3181.902h197.788v287.037h-197.788V3181.902z M3209.51,3181.902h197.788v287.037H3209.51V3181.902     z M3415.729,3181.902h197.788v287.037h-197.788V3181.902z M3415.729,3173.471v-292.89h197.788v292.89H3415.729z      M3621.948,2880.58h195.977v292.89h-195.977V2880.58z M3621.948,2872.149v-292.89h195.977v292.89H3621.948z M2582.423,2283.792     v287.036h-195.977v-287.036H2582.423z M2386.447,3181.902h195.977v287.037h-195.977V3181.902z M3621.948,3468.938v-287.037     h195.977v287.037H3621.948z"/><rect width="1448.34" height="204.449" x="2378.014" y="1926.908" fill="#7ec6f7"/><circle cx="2428.797" cy="1795.18" r="20.211" fill="#151c3d"/><path fill="#3a4ba7" d="M2427.316,1696.906c-28.803,0-52.602,23.308-53.464,52.124h16.931        c0.854-19.53,16.981-35.263,36.533-35.263c20.328,0,36.869,16.541,36.869,36.877c0,19.609-15.555,35.544-34.992,36.536v16.951        c28.75-0.997,51.854-24.57,51.854-53.487C2481.047,1721.013,2456.94,1696.906,2427.316,1696.906z"/><circle cx="2562.159" cy="1795.18" r="20.211" fill="#151c3d"/><path fill="#3a4ba7" d="M2560.679,1696.906c-28.803,0-52.602,23.308-53.464,52.124h16.931        c0.854-19.53,16.981-35.263,36.533-35.263c20.328,0,36.869,16.541,36.869,36.877c0,19.609-15.555,35.544-34.992,36.536v16.951        c28.75-0.997,51.854-24.57,51.854-53.487C2614.409,1721.013,2590.302,1696.906,2560.679,1696.906z"/><circle cx="2695.522" cy="1795.18" r="20.211" fill="#151c3d"/><path fill="#3a4ba7" d="M2694.042,1696.906c-28.803,0-52.603,23.308-53.464,52.124h16.931        c0.854-19.53,16.981-35.263,36.533-35.263c20.328,0,36.869,16.541,36.869,36.877c0,19.609-15.555,35.544-34.992,36.536v16.951        c28.75-0.997,51.854-24.57,51.854-53.487C2747.772,1721.013,2723.665,1696.906,2694.042,1696.906z"/><circle cx="2828.884" cy="1795.18" r="20.211" fill="#151c3d"/><path fill="#3a4ba7" d="M2827.404,1696.906c-28.803,0-52.603,23.308-53.464,52.124h16.931        c0.854-19.53,16.981-35.263,36.533-35.263c20.328,0,36.868,16.541,36.868,36.877c0,19.609-15.555,35.544-34.992,36.536v16.951        c28.751-0.997,51.854-24.57,51.854-53.487C2881.134,1721.013,2857.027,1696.906,2827.404,1696.906z"/><circle cx="2962.247" cy="1795.18" r="20.211" fill="#151c3d"/><path fill="#3a4ba7" d="M2960.766,1696.906c-28.803,0-52.602,23.308-53.464,52.124h16.931        c0.854-19.53,16.981-35.263,36.533-35.263c20.328,0,36.869,16.541,36.869,36.877c0,19.609-15.555,35.544-34.992,36.536v16.951        c28.751-0.997,51.854-24.57,51.854-53.487C3014.497,1721.013,2990.39,1696.906,2960.766,1696.906z"/><circle cx="3095.609" cy="1795.18" r="20.211" fill="#151c3d"/><path fill="#3a4ba7" d="M3094.129,1696.906c-28.803,0-52.602,23.308-53.464,52.124h16.931        c0.854-19.53,16.981-35.263,36.533-35.263c20.328,0,36.869,16.541,36.869,36.877c0,19.609-15.555,35.544-34.992,36.536v16.951        c28.75-0.997,51.854-24.57,51.854-53.487C3147.859,1721.013,3123.752,1696.906,3094.129,1696.906z"/><g><circle cx="3228.972" cy="1795.18" r="20.211" fill="#151c3d"/><path fill="#3a4ba7" d="M3227.491,1696.906c-28.803,0-52.602,23.308-53.464,52.124h16.931        c0.854-19.53,16.981-35.263,36.533-35.263c20.328,0,36.869,16.541,36.869,36.877c0,19.609-15.555,35.544-34.992,36.536v16.951        c28.75-0.997,51.854-24.57,51.854-53.487C3281.222,1721.013,3257.115,1696.906,3227.491,1696.906z"/></g><g><circle cx="3362.334" cy="1795.18" r="20.211" fill="#151c3d"/><path fill="#3a4ba7" d="M3360.854,1696.906c-28.803,0-52.603,23.308-53.464,52.124h16.931        c0.854-19.53,16.981-35.263,36.533-35.263c20.328,0,36.869,16.541,36.869,36.877c0,19.609-15.555,35.544-34.992,36.536v16.951        c28.75-0.997,51.854-24.57,51.854-53.487C3414.584,1721.013,3390.477,1696.906,3360.854,1696.906z"/></g><g><circle cx="3495.697" cy="1795.18" r="20.211" fill="#151c3d"/><path fill="#3a4ba7" d="M3494.217,1696.906c-28.803,0-52.603,23.308-53.464,52.124h16.931        c0.854-19.53,16.981-35.263,36.533-35.263c20.328,0,36.868,16.541,36.868,36.877c0,19.609-15.555,35.544-34.992,36.536v16.951        c28.751-0.997,51.854-24.57,51.854-53.487C3547.947,1721.013,3523.84,1696.906,3494.217,1696.906z"/></g><g><circle cx="3629.059" cy="1795.18" r="20.211" fill="#151c3d"/><path fill="#3a4ba7" d="M3627.579,1696.906c-28.803,0-52.602,23.308-53.464,52.124h16.931        c0.854-19.53,16.981-35.263,36.533-35.263c20.328,0,36.869,16.541,36.869,36.877c0,19.609-15.555,35.544-34.992,36.536v16.951        c28.751-0.997,51.854-24.57,51.854-53.487C3681.309,1721.013,3657.202,1696.906,3627.579,1696.906z"/></g><g><circle cx="3762.422" cy="1795.18" r="20.211" fill="#151c3d"/><path fill="#3a4ba7" d="M3760.941,1696.906c-28.803,0-52.602,23.308-53.464,52.124h16.931        c0.854-19.53,16.981-35.263,36.533-35.263c20.328,0,36.869,16.541,36.869,36.877c0,19.609-15.555,35.544-34.992,36.536v16.951        c28.75-0.997,51.854-24.57,51.854-53.487C3814.672,1721.013,3790.565,1696.906,3760.941,1696.906z"/></g></g><g><polygon fill="#fb6072" points="1807.897 6471.492 1853.613 4545.39 1751.408 4545.39 1749.148 6471.492"/><polygon fill="#fb6072" points="2372.547 6471.492 2326.831 4545.39 2429.036 4545.39 2431.296 6471.492"/><rect width="4273.924" height="215.987" x="1473.823" y="4329.403" fill="#2a387a"/><g><rect width="1291.958" height="215.987" x="4455.788" y="4329.403" fill="#202a5c"/></g><g><polygon fill="#fb6072" points="4816.204 6471.492 4861.919 4545.39 4759.715 4545.39 4757.455 6471.492"/></g><g><polygon fill="#fb6072" points="5380.854 6471.492 5335.138 4545.39 5437.342 4545.39 5439.603 6471.492"/></g></g><g><polygon fill="#ffbda6" points="2837.156 5956.015 2793.861 6099.342 2625.352 6049.799 2690.154 5908.459"/><path fill="#fb6072" d="M2602.727,6247.675l19.64-28.311l8.732,47.907l255.569,176.515        c3.459-7.89,30.672-75.604-14.705-156.572c-48.294-86.176-49.678-179.567-49.678-179.567l-216.217-63.503        c0,0-20.531,37.54-49.146,62.892c-24.377,21.599-45.74,61.9-51.552,73.396L2602.727,6247.675z"/><path fill="#2d2c2b" d="M2519.712 6154.706c-6.841 11.254-11.937 20.97-14.342 25.727l97.358 67.243 16.712-24.089L2519.712 6154.706zM2623.67 6226.508l7.429 40.763 255.568 176.515c1.248-2.846 5.564-13.561 8.472-29.781L2623.67 6226.508zM2840.252 6148.931l-63.508 11.526c-4.518.82-8.968-2.253-9.805-6.845-.822-4.508 2.259-8.949 6.777-9.769l63.508-11.526c4.518-.82 8.969 2.253 9.79 6.762C2847.851 6143.671 2844.77 6148.111 2840.252 6148.931zM2847.325 6187.733l-63.508 11.526c-4.518.82-8.969-2.253-9.805-6.846-.822-4.508 2.259-8.948 6.777-9.769l63.508-11.526c4.518-.82 8.968 2.254 9.79 6.762C2854.924 6182.473 2851.843 6186.913 2847.325 6187.733zM2854.398 6226.534l-63.508 11.526c-4.518.82-8.969-2.253-9.806-6.845-.822-4.508 2.259-8.949 6.777-9.769l63.508-11.526c4.518-.82 8.968 2.254 9.79 6.762C2861.997 6221.274 2858.917 6225.714 2854.398 6226.534z"/><g><polygon fill="#ffbda6" points="3632.663 5923.901 3724.617 6042.184 3586.479 6150.473 3508.615 6015.855"/><path fill="#fb6072" d="M3734.962,6283.569l-11.736-32.38l44.185,20.67l292.297-105.472        c-4.438-7.386-43.963-68.763-136.39-78.803c-98.371-10.687-175.442-63.697-175.442-63.697l-177.194,138.986        c0,0,18.756,38.454,22.874,76.415c3.508,32.34,24.037,73.071,30.057,84.459L3734.962,6283.569z"/><path fill="#2d2c2b" d="M3610.917 6297.175c5.225 12.086 10.205 21.861 12.696 26.573l111.35-40.179-9.986-27.551L3610.917 6297.175zM3729.815 6254.271l37.596 17.589 292.296-105.472c-1.6-2.664-7.849-12.385-19.41-24.151L3729.815 6254.271zM3792.006 6033.21l-27.401 58.316c-1.949 4.149-7.039 5.986-11.274 4.004-4.158-1.945-5.999-7.023-4.049-11.172l27.4-58.316c1.949-4.149 7.039-5.985 11.197-4.041C3792.115 6023.983 3793.955 6029.062 3792.006 6033.21zM3827.794 6049.951l-27.401 58.317c-1.949 4.148-7.039 5.985-11.274 4.004-4.158-1.945-5.999-7.023-4.049-11.172l27.4-58.316c1.949-4.149 7.039-5.985 11.197-4.041C3827.903 6040.724 3829.743 6045.803 3827.794 6049.951zM3863.582 6066.692l-27.4 58.316c-1.949 4.149-7.039 5.986-11.274 4.004-4.158-1.945-5.999-7.024-4.049-11.172l27.4-58.317c1.949-4.148 7.039-5.985 11.197-4.04C3863.691 6057.465 3865.531 6062.543 3863.582 6066.692z"/></g><polygon fill="#2d2c2b" points="2523.745 5174.365 3473.273 6151.915 3813.1 5930.337 3206.122 5174.365"/><path fill="#191817" d="M2606.546,4544.943c0,0,598.788,100.436,725.256,218.898s170.345,262.678,54.201,504.754      c-116.144,242.076-420.7,883.319-420.7,883.319l-392.309-252.377l407.795-723.652h-353.594L2606.546,4544.943z"/><g><path fill="#ffbda6" d="M3432.092,4240.523c0,0,47.377-43.147,58.117-48.049        c30.18-13.775,156.87,16.451,172.725,29.043c15.855,12.593-10.264,27.161-35.018,22.647s-43.984-4.227-43.984-4.227        s14.901,18.124,2.127,27.123c0,0,11.569,22.44-5.535,31.897c0,0,2.632,20.15-14.209,18.617l-15.98-6.147        c0,0,3.103,16.95-13.286,18.79c-16.389,1.841-26.244-15.301-49.858-4.99L3432.092,4240.523z"/><path fill="none" stroke="#000" stroke-miterlimit="10" stroke-width="1.348" d="M3585.517 4239.813c-9.153-1.208-18.306-2.417-27.459-3.626M3586.061 4267.061c-10.515-1.033-20.512-4.058-30.634-7.104M3580.525 4298.958c-14.468-7.13-29.214-14.153-44.852-18.074M3550.881 4311.445c-4.324-2.046-8.846-3.672-13.481-4.847"/><polygon fill="#ffad97" points="2263.659 3652.802 2431.25 3680.112 2431.219 3609.201 2431.173 3563.922 2431.145 3542.395 2366.25 3497.893 2311.004 3527.02"/><path fill="#ffbda6" d="M2342.042,3485.295c29,38.393,67.555,69.258,111.305,89.15       c13.284,6.041,27.175,11.015,41.597,11.505c14.408,0.322,29.48-4.36,38.788-15.288c14.69-16.957,11.664-42.027,8.849-64.207       c-7.926-59.402-9.416-119.784-4.358-179.615C2288.826,3181.448,2301.553,3318.418,2342.042,3485.295z"/><path fill="#2d2c2b" d="M2205.646,3425.476c9.084,23.606,18.193,47.551,32.228,68.574       c14.033,21.024,33.357,39.444,57.414,47.608c24.057,8.165,52.893,4.365,71.124-13.363       c12.786-12.547,18.872-30.076,24.143-47.033c0.4-1.567,0.969-3.147,1.37-4.713c-5.551-10.362-8.633-22.1-9.658-33.816       c-1.049-12.055,0.078-24.782,5.638-35.438c5.377-10.813,16.037-19.618,28.12-20.666c10.039-0.898,19.938,3.338,27.758,9.606       c5.64,4.546,10.32,10.015,14.671,15.681c1.22-25.549,4.875-50.591,11.634-75.345c21.393-0.186,42.957-0.384,63.198-6.979       c20.423-6.437,39.462-20.122,46.908-40.142c7.167-19.145,2.661-41.031-6.393-59.513       c-22.598-46.888-74.552-78.318-126.986-76.392c-52.264,1.912-101.783,36.776-121.204,85.176       c-26.092-19.637-66.696-17.545-94.749-0.643c-27.882,16.889-45.437,48.579-48.377,81.087       C2179.148,3355.633,2192.532,3391.228,2205.646,3425.476z"/><path fill="#45c8bc" d="M3486.115,4178.378l-667.117-241.382c-114.014-149.47-249.34-223.526-298.004-240.329       c-48.83-16.79-257.334-43.865-257.334-43.865s-64.25-11.491-153.52,15.412c-237.686,71.629-226.325,286.652-226.325,286.652       l148.945,590.077l591.123-42.895c0,0,16.633-263.184,47.435-317.537c58.767,68.528,173.045,90.118,240.051,100.243       c93.994,14.204,415.5,68.126,574.747,42.587V4178.378z"/><path fill="none" stroke="#000" stroke-miterlimit="10" stroke-width="1.348" d="M2432.021 3563.174c-19.371-10.382-37.591-22.901-54.219-37.256M2671.318 4184.511c-29.907-28.862-55.728-61.932-76.461-97.926"/></g><g><path fill="#4d64de" d="M1914.873,6312.233l52.996,41.129c108.942-139.491,269.788-223.164,445.027-232.413        l0.437,191.501l63.358-0.108l-0.437-191.61c175.351,8.596,336.634,91.29,446.119,230.346l52.778-41.456        c-122.461-155.268-303.046-247.428-499.115-255.806l-1.635-819.064l-63.251,0.109l1.64,819.064        C2216.721,6063.282,2036.572,6156.421,1914.873,6312.233z"/><path fill="#fb6072" d="M2341.188,5217.511c0.136,55.972,45.735,101.249,101.829,101.113       c56.097-0.136,101.379-45.633,101.243-101.605s-45.639-101.154-101.736-101.018       C2386.43,5116.137,2341.052,5161.54,2341.188,5217.511z"/><path fill="#f8c14a" d="M2272.409,5169.62l0.057,23.384c0.029,11.889,9.712,21.504,21.627,21.475l297.246-0.719       c11.916-0.029,21.552-9.69,21.522-21.58l-0.057-23.384L2272.409,5169.62z"/><ellipse cx="1918.323" cy="6372.468" fill="#3a4ba7" rx="99.243" ry="99.023"/><ellipse cx="1918.323" cy="6372.468" fill="#f3f3f1" rx="58.917" ry="58.787"/><ellipse cx="2445.169" cy="6371.193" fill="#3a4ba7" rx="99.243" ry="99.023"/><ellipse cx="2445.169" cy="6371.193" fill="#f3f3f1" rx="58.917" ry="58.787"/><ellipse cx="2972.016" cy="6369.919" fill="#3a4ba7" rx="99.243" ry="99.023"/><ellipse cx="2972.016" cy="6369.919" fill="#f3f3f1" rx="58.917" ry="58.787"/><path fill="#5eb8f5" d="M1797.321,3954.851l66.845,1215.813h799.653l-0.112-1.849h521.58      c60.522,0,103.378-59.083,84.512-116.424c-9.595-29.16-36.966-48.963-67.719-48.963h-547.422l-52.344-951.738      c-3.056-54.295-47.98-96.838-102.505-96.838H1797.321z"/><path fill="#9ed4f9" d="M2466.966,4022.002l63.153,1148.703h-669.015c-73.279,0-133.78-57.146-137.793-130.153      l-53.75-977.67c-3.226-58.673,43.587-108.015,102.479-108.015h623.85C2433.688,3954.866,2464.895,3984.344,2466.966,4022.002z"/></g></g><path fill="#2d2c2b" d="M2963.615,3979.303l-93.927,302.966c-3.097,9.991-13.685,15.566-23.675,12.469l-109.755-34.027    c-9.994-3.098-15.567-13.684-12.469-23.675l93.927-302.966c3.097-9.991,13.681-15.568,23.675-12.47l109.755,34.027    C2961.136,3958.725,2966.713,3969.312,2963.615,3979.303z"/><g><path fill="#2d2c2b" d="M3106.499,4413.71c-27.255,0-54.4-0.221-81.415-0.442     c-103.124-0.829-201.585-6.487-272.828-66.028c-44.817-37.427-70.598-92.067-68.976-146.171     c1.751-57.994,36.58-111.711,86.686-133.715c52.557-23.035,119.303-6.579,151.811,37.612l-6.081,4.459     c-30.48-41.408-93.099-56.906-142.707-35.143c-47.489,20.824-80.494,71.87-82.153,127.006     c-1.566,51.82,23.201,104.211,66.249,140.164c69.345,57.92,166.369,63.448,268.073,64.259     c156.989,1.29,319.377,2.599,473.768-39.712c49.885-13.655,99.475-32.12,147.406-49.977     c74.837-27.881,152.216-56.703,232.636-67.944c89.266-12.458,175.638-2.119,249.738,29.964l-2.985,6.929     c-72.846-31.549-157.818-41.74-245.72-29.411c-79.591,11.112-156.584,39.786-231.033,67.539     c-48.097,17.912-97.835,36.432-148.051,50.198C3372.177,4408.569,3238.241,4413.71,3106.499,4413.71z"/></g></svg>